<mxfile host="app.diagrams.net" agent="Mozilla/5.0 (Windows NT 10.0; Win64; x64) AppleWebKit/537.36 (KHTML, like Gecko) Chrome/141.0.0.0 Safari/537.36" version="27.2.0">
  <diagram name="PÃ¡gina-1" id="k0oy0QIVDfboM58kHfZX">
    <mxGraphModel dx="2144" dy="454" grid="1" gridSize="10" guides="1" tooltips="1" connect="1" arrows="1" fold="1" page="1" pageScale="1" pageWidth="827" pageHeight="1169" math="0" shadow="0">
      <root>
        <mxCell id="0" />
        <mxCell id="1" parent="0" />
        <mxCell id="IDW0yh0-8IgeudxBPlgl-15" style="edgeStyle=orthogonalEdgeStyle;rounded=0;orthogonalLoop=1;jettySize=auto;html=1;exitX=1;exitY=0.5;exitDx=0;exitDy=0;entryX=0;entryY=0.5;entryDx=0;entryDy=0;" edge="1" parent="1" source="IDW0yh0-8IgeudxBPlgl-1" target="IDW0yh0-8IgeudxBPlgl-18">
          <mxGeometry relative="1" as="geometry">
            <mxPoint x="720" y="265" as="targetPoint" />
          </mxGeometry>
        </mxCell>
        <mxCell id="IDW0yh0-8IgeudxBPlgl-16" value="Temperatura impulsion" style="edgeLabel;html=1;align=center;verticalAlign=middle;resizable=0;points=[];" vertex="1" connectable="0" parent="IDW0yh0-8IgeudxBPlgl-15">
          <mxGeometry x="0.2804" y="1" relative="1" as="geometry">
            <mxPoint x="-12" y="-24" as="offset" />
          </mxGeometry>
        </mxCell>
        <mxCell id="IDW0yh0-8IgeudxBPlgl-1" value="BATERIA CALOR" style="rounded=0;whiteSpace=wrap;html=1;" vertex="1" parent="1">
          <mxGeometry x="490" y="235" width="80" height="60" as="geometry" />
        </mxCell>
        <mxCell id="IDW0yh0-8IgeudxBPlgl-26" style="edgeStyle=orthogonalEdgeStyle;rounded=0;orthogonalLoop=1;jettySize=auto;html=1;exitX=1;exitY=0.5;exitDx=0;exitDy=0;entryX=0;entryY=0.5;entryDx=0;entryDy=0;" edge="1" parent="1" source="IDW0yh0-8IgeudxBPlgl-4" target="IDW0yh0-8IgeudxBPlgl-1">
          <mxGeometry relative="1" as="geometry" />
        </mxCell>
        <mxCell id="IDW0yh0-8IgeudxBPlgl-27" value="Temperatura salida bateria frio&lt;br&gt;(Simulada)" style="edgeLabel;html=1;align=center;verticalAlign=middle;resizable=0;points=[];" vertex="1" connectable="0" parent="IDW0yh0-8IgeudxBPlgl-26">
          <mxGeometry x="-0.6546" y="-1" relative="1" as="geometry">
            <mxPoint x="64" y="-26" as="offset" />
          </mxGeometry>
        </mxCell>
        <mxCell id="IDW0yh0-8IgeudxBPlgl-4" value="BATERIA FRIO" style="rounded=0;whiteSpace=wrap;html=1;" vertex="1" parent="1">
          <mxGeometry x="200" y="240" width="80" height="50" as="geometry" />
        </mxCell>
        <mxCell id="IDW0yh0-8IgeudxBPlgl-17" style="edgeStyle=orthogonalEdgeStyle;rounded=0;orthogonalLoop=1;jettySize=auto;html=1;exitX=1;exitY=0.5;exitDx=0;exitDy=0;entryX=0.5;entryY=1;entryDx=0;entryDy=0;" edge="1" parent="1" source="IDW0yh0-8IgeudxBPlgl-7" target="IDW0yh0-8IgeudxBPlgl-1">
          <mxGeometry relative="1" as="geometry" />
        </mxCell>
        <mxCell id="IDW0yh0-8IgeudxBPlgl-7" value="Regulador Valvula Calor" style="rounded=0;whiteSpace=wrap;html=1;" vertex="1" parent="1">
          <mxGeometry x="420" y="380" width="80" height="50" as="geometry" />
        </mxCell>
        <mxCell id="IDW0yh0-8IgeudxBPlgl-12" style="edgeStyle=orthogonalEdgeStyle;rounded=0;orthogonalLoop=1;jettySize=auto;html=1;exitX=0;exitY=0.5;exitDx=0;exitDy=0;entryX=0.5;entryY=0;entryDx=0;entryDy=0;" edge="1" parent="1" source="IDW0yh0-8IgeudxBPlgl-8" target="IDW0yh0-8IgeudxBPlgl-10">
          <mxGeometry relative="1" as="geometry" />
        </mxCell>
        <mxCell id="IDW0yh0-8IgeudxBPlgl-8" value="Aire de retorno" style="rounded=0;whiteSpace=wrap;html=1;" vertex="1" parent="1">
          <mxGeometry x="480" y="20" width="120" height="60" as="geometry" />
        </mxCell>
        <mxCell id="IDW0yh0-8IgeudxBPlgl-11" style="edgeStyle=orthogonalEdgeStyle;rounded=0;orthogonalLoop=1;jettySize=auto;html=1;exitX=1;exitY=0.5;exitDx=0;exitDy=0;entryX=0;entryY=0.5;entryDx=0;entryDy=0;" edge="1" parent="1" source="IDW0yh0-8IgeudxBPlgl-9" target="IDW0yh0-8IgeudxBPlgl-10">
          <mxGeometry relative="1" as="geometry" />
        </mxCell>
        <mxCell id="IDW0yh0-8IgeudxBPlgl-9" value="Aire exterior" style="rounded=0;whiteSpace=wrap;html=1;" vertex="1" parent="1">
          <mxGeometry x="-350" y="170" width="120" height="60" as="geometry" />
        </mxCell>
        <mxCell id="IDW0yh0-8IgeudxBPlgl-13" style="edgeStyle=orthogonalEdgeStyle;rounded=0;orthogonalLoop=1;jettySize=auto;html=1;exitX=1;exitY=0.5;exitDx=0;exitDy=0;" edge="1" parent="1" source="IDW0yh0-8IgeudxBPlgl-10">
          <mxGeometry relative="1" as="geometry">
            <mxPoint x="-20" y="200" as="targetPoint" />
          </mxGeometry>
        </mxCell>
        <mxCell id="IDW0yh0-8IgeudxBPlgl-14" value="Temperatura mezcla" style="edgeLabel;html=1;align=center;verticalAlign=middle;resizable=0;points=[];" vertex="1" connectable="0" parent="IDW0yh0-8IgeudxBPlgl-13">
          <mxGeometry x="0.1911" y="3" relative="1" as="geometry">
            <mxPoint x="-6" y="-17" as="offset" />
          </mxGeometry>
        </mxCell>
        <mxCell id="IDW0yh0-8IgeudxBPlgl-10" value="mezcla" style="ellipse;whiteSpace=wrap;html=1;aspect=fixed;" vertex="1" parent="1">
          <mxGeometry x="-190" y="175" width="50" height="50" as="geometry" />
        </mxCell>
        <mxCell id="IDW0yh0-8IgeudxBPlgl-21" style="edgeStyle=orthogonalEdgeStyle;rounded=0;orthogonalLoop=1;jettySize=auto;html=1;exitX=0.5;exitY=1;exitDx=0;exitDy=0;entryX=0.5;entryY=1;entryDx=0;entryDy=0;" edge="1" parent="1" source="IDW0yh0-8IgeudxBPlgl-18" target="IDW0yh0-8IgeudxBPlgl-20">
          <mxGeometry relative="1" as="geometry">
            <Array as="points">
              <mxPoint x="745" y="540" />
              <mxPoint x="325" y="540" />
            </Array>
          </mxGeometry>
        </mxCell>
        <mxCell id="IDW0yh0-8IgeudxBPlgl-18" value="" style="ellipse;whiteSpace=wrap;html=1;aspect=fixed;" vertex="1" parent="1">
          <mxGeometry x="730" y="250" width="30" height="30" as="geometry" />
        </mxCell>
        <mxCell id="IDW0yh0-8IgeudxBPlgl-25" style="edgeStyle=orthogonalEdgeStyle;rounded=0;orthogonalLoop=1;jettySize=auto;html=1;exitX=1;exitY=0.5;exitDx=0;exitDy=0;entryX=0;entryY=0.5;entryDx=0;entryDy=0;" edge="1" parent="1" source="IDW0yh0-8IgeudxBPlgl-20" target="IDW0yh0-8IgeudxBPlgl-7">
          <mxGeometry relative="1" as="geometry" />
        </mxCell>
        <mxCell id="IDW0yh0-8IgeudxBPlgl-20" value="+&amp;nbsp;&amp;nbsp;&lt;div&gt;-&lt;/div&gt;" style="ellipse;whiteSpace=wrap;html=1;aspect=fixed;" vertex="1" parent="1">
          <mxGeometry x="310" y="390" width="30" height="30" as="geometry" />
        </mxCell>
        <mxCell id="IDW0yh0-8IgeudxBPlgl-23" style="edgeStyle=orthogonalEdgeStyle;rounded=0;orthogonalLoop=1;jettySize=auto;html=1;exitX=1;exitY=0.5;exitDx=0;exitDy=0;entryX=0;entryY=0.5;entryDx=0;entryDy=0;" edge="1" parent="1" source="IDW0yh0-8IgeudxBPlgl-22" target="IDW0yh0-8IgeudxBPlgl-20">
          <mxGeometry relative="1" as="geometry" />
        </mxCell>
        <mxCell id="IDW0yh0-8IgeudxBPlgl-24" value="Consigna temperatura impulsion" style="edgeLabel;html=1;align=center;verticalAlign=middle;resizable=0;points=[];" vertex="1" connectable="0" parent="IDW0yh0-8IgeudxBPlgl-23">
          <mxGeometry x="-0.4142" relative="1" as="geometry">
            <mxPoint x="33" y="-15" as="offset" />
          </mxGeometry>
        </mxCell>
        <mxCell id="IDW0yh0-8IgeudxBPlgl-22" value="Regulador temperatura impulsion" style="rounded=0;whiteSpace=wrap;html=1;" vertex="1" parent="1">
          <mxGeometry x="-390" y="375" width="120" height="60" as="geometry" />
        </mxCell>
        <mxCell id="IDW0yh0-8IgeudxBPlgl-28" value="Consigna temperatura sala" style="rounded=0;whiteSpace=wrap;html=1;" vertex="1" parent="1">
          <mxGeometry x="-1040" y="175" width="120" height="60" as="geometry" />
        </mxCell>
        <mxCell id="IDW0yh0-8IgeudxBPlgl-29" value="Regulador temperatura impulsion" style="rounded=0;whiteSpace=wrap;html=1;" vertex="1" parent="1">
          <mxGeometry x="-400" y="570" width="120" height="60" as="geometry" />
        </mxCell>
        <mxCell id="IDW0yh0-8IgeudxBPlgl-30" value="Por cada sala" style="swimlane;whiteSpace=wrap;html=1;strokeColor=none;" vertex="1" parent="1">
          <mxGeometry x="-1080" y="140" width="200" height="200" as="geometry" />
        </mxCell>
        <mxCell id="IDW0yh0-8IgeudxBPlgl-31" value="Temperatura de sala" style="rounded=0;whiteSpace=wrap;html=1;" vertex="1" parent="IDW0yh0-8IgeudxBPlgl-30">
          <mxGeometry x="40" y="120" width="120" height="60" as="geometry" />
        </mxCell>
        <mxCell id="IDW0yh0-8IgeudxBPlgl-34" style="edgeStyle=orthogonalEdgeStyle;rounded=0;orthogonalLoop=1;jettySize=auto;html=1;exitX=0.5;exitY=1;exitDx=0;exitDy=0;entryX=1;entryY=0.8;entryDx=0;entryDy=0;" edge="1" parent="1" source="IDW0yh0-8IgeudxBPlgl-32" target="IDW0yh0-8IgeudxBPlgl-33">
          <mxGeometry relative="1" as="geometry" />
        </mxCell>
        <mxCell id="IDW0yh0-8IgeudxBPlgl-32" value="SUMINISTRO ELECTRICO" style="rounded=0;whiteSpace=wrap;html=1;" vertex="1" parent="1">
          <mxGeometry x="-1420" y="435" width="120" height="60" as="geometry" />
        </mxCell>
        <mxCell id="IDW0yh0-8IgeudxBPlgl-33" value="" style="html=1;shape=mxgraph.electrical.electro-mechanical.pushbutton;aspect=fixed;elSwitchState=on;rotation=-90;" vertex="1" parent="1">
          <mxGeometry x="-1404" y="594" width="75" height="20" as="geometry" />
        </mxCell>
        <mxCell id="IDW0yh0-8IgeudxBPlgl-35" value="" style="pointerEvents=1;verticalLabelPosition=bottom;shadow=0;dashed=0;align=center;html=1;verticalAlign=top;shape=mxgraph.electrical.electro-mechanical.relay_coil;" vertex="1" parent="1">
          <mxGeometry x="-1395" y="710" width="70" height="35" as="geometry" />
        </mxCell>
        <mxCell id="IDW0yh0-8IgeudxBPlgl-36" value="" style="image;html=1;image=img/lib/clip_art/general/Lock_128x128.png" vertex="1" parent="1">
          <mxGeometry x="-1500" y="680" width="80" height="80" as="geometry" />
        </mxCell>
        <mxCell id="IDW0yh0-8IgeudxBPlgl-37" style="edgeStyle=orthogonalEdgeStyle;rounded=0;orthogonalLoop=1;jettySize=auto;html=1;exitX=0;exitY=0.8;exitDx=0;exitDy=0;entryX=0.5;entryY=0;entryDx=0;entryDy=0;entryPerimeter=0;" edge="1" parent="1" source="IDW0yh0-8IgeudxBPlgl-33" target="IDW0yh0-8IgeudxBPlgl-35">
          <mxGeometry relative="1" as="geometry" />
        </mxCell>
        <mxCell id="IDW0yh0-8IgeudxBPlgl-38" value="PULSADOR EMERGENCIA" style="text;html=1;align=center;verticalAlign=middle;whiteSpace=wrap;rounded=0;" vertex="1" parent="1">
          <mxGeometry x="-1480" y="569.5" width="120" height="69" as="geometry" />
        </mxCell>
        <mxCell id="IDW0yh0-8IgeudxBPlgl-40" value="Al apretar el pulsador de emergencia se corta el suministro elÃ©ctrico del iman, quedando la puerta permanentemente desbloqueada" style="text;html=1;align=center;verticalAlign=middle;whiteSpace=wrap;rounded=0;" vertex="1" parent="1">
          <mxGeometry x="-1315.5" y="561" width="200" height="69" as="geometry" />
        </mxCell>
        <mxCell id="IDW0yh0-8IgeudxBPlgl-41" value="" style="shape=image;verticalLabelPosition=bottom;labelBackgroundColor=default;verticalAlign=top;aspect=fixed;imageAspect=0;image=data:image/png,iVBORw0KGgoAAAANSUhEUgAAAi8AAAFSCAYAAAA6gD/GAAAAAXNSR0IArs4c6QAAAARnQU1BAACxjwv8YQUAAAAJcEhZcwAADsMAAA7DAcdvqGQAAP+lSURBVHhe7P1nmF/XdeaJbqByQCUUCjlHAgQzKZGimMQkMSm0LFmy5dCSu+3b7fvYbffYVju13fM8cz/cmfkwM7fbsmW1LImKpEgxBzFJYo5iAAgiEaEQC6EAVKEQ7vt719lVf4AgW21LYsBe/zp1ztk5r/esvfbe4/bv3380FSpUqFChQoUKvUtofHUvVKhQoUKFChV6V1ABL4UKFSpUqFChdxUV8FKoUKFChQoVeldRAS+FChUqVKhQoXcVFfBSqFChQoUKFXpXUQEvhQoVKlSoUKF3FRXwUqhQoUKFChV6V1EBL4UKFSpUqFChdxUV8FKoUKFChQoVeldRAS+FChUqVKhQoXcVFfBSqFChQoUKFXpXUQEvhQoVKlSoUKF3FRXwUqhQoUKFChV6V1EBL4UKFSpUqFChdxUV8FKoUKFChQoVeldRAS+FChUqVKhQoXcVFfBSqFChQoUKFXpXUQEvhQoVKvQeo6NHj/o+fvx4X+PGjfP7kSNH/MzFMxeE+4MHD6YDBw4cY5avHE4Ot66uzncoh4199luo0C+axu3fvz9aY6FChQoVek9QBhQZfECYZYBx+PBhA5D6+vokHpDWrFmT9uzZI/s6ve9Ls2bNTnPnzsGXzMbZDc9NTY32Pzw8nBobG0fDxYywuOe4CxX6RVIBL4UKFSr0HqNa8AJl4AJhBng5dOhQ2rdvX9qxY4fByfDwiMxGDGCQwrS2tKS+yX2pY0JH6urudhiH5Yf7OAGaI0cOOzxAEOERbgEuhX5ZVMBLoUKFCr3HKE/xZEBR+wzQQMoCaOEOiJGVL8GSdOToEfu3lEZuG5uaUk9PT+rs7Ezt7e2psaFRbgAuY2HmOPK9UKFfNBXwUqhQoULvMcrghWkcngEVPO/du9egZWBgwKAFMuhI49PBkRG/NzY2pZGRg3qKaaKDw3oel1JrS2vqFoiZqKultUXu6u0XKU0GMFyFCv0yqICXQoUKFXoPEwBjaGjIU0Tbt2+3tCXrqGA3ItBy9EjSe6OngAA1GYgY/MisQW6R2Hg6qa019fZOTG1tLam7u7uKJeKBCoAp9MugAl4KFSpU6B1Olo6cABS8GWDAmCmg4YPDadeuXWnXwEDat39/NUUUfpgSOqQLv+PH16f6ugYDGQDM8PCQ/dUJtByS2f4DB9LkvsmppaVZIAal3KOptbUlTZw4MXX3dHs6CQlPLWXwE+GPPRsQ1UiDChX651ABL4UKFSr0LiRASAYBPCMZCaAAiBiXtm/bbkmLxvh0WCAB+wwgQDdgGP13WOPGjU/DQ8OpqanJ74CYxx9/PD3/wgtp544daffu3Wny5Mnp9DPOSOecc06aOnVKOihgRLwtLS1pwoQJqaury5IYwA/AiDiJZJzSE/FGejN4KVToX0KlBRUqVKjQO5wMOESAhXxBgAxP++i9oaHBoIC9WjZv3pw2bNyYBnbtSiOHDoW7gyMBYA4fMWQhTAOfI4R3RKBjfGpsarAy7tF0JD33/HNpx47tqaGxPrW1tabten7ssZ+kFSteTj0CKcQJEBncu9fxvb5+fdqwYYPAzk6FcdRLqZmaIuUZZHHl5yJ1KfQvoQJeChUqVOhdRhkIcAESABLosqwXgHjttddS/+Z+78WSJR1IQowiREhbMDt8RCBFd8LAf32DgIae8YMUBuCyUWBkYOdOuwXcPP/88+m+++5L/f39IVWRe0BTfV1dGty3L61bty69uurVtH7dekt9UAJG8jLeccQmeRBxcBUq9M+lMm1UqFChQu9wAlxksJIJMwAAyrhbt241eEHqgnQlHY0l0UhADEwq5Vzb2XPc0EVhXxeACYQxUprm5ua0fdu29PAjj1iawiol/La1tqZzzj03XX755bEbbxUHlIEPe8Fwrxeo6evrS91dXal9QrvjwA3h53zU5qdQof8ZKuClUKFChd7hBPCAAAU8W3Ii4ABw2blzp6dtIMBA2Au06GpobLQf3AMauGfAgDQEqQjvbDgXQGa8lXoPHRJQaWtNra1tAjJNaffuPY6vo2OC7Tds2Gg7S1QcWiVNGSfworAIExADaCINk3p704SOduvFRHxjEp+cnkKF/meogJdChQoV+qXT8cPusQwcpm6gIgAi7l6ZBjgBPLDsGUXcNWtWp4aGRgML/MRut9jvt7RE8EQgpM0AAjvABoq0flb4JIOUoPPi3XNlVl9fVwGLiNNAQ3dWHqGkW1dXb1CCe6Qu2PMOOGKKacKEDq9yYjqJuCEDG4EjJDHoy8Q+MXHUAOkeI56JLd8LFToxFfBSqFChQr9UYsg9ftiFUYckAmABQIHhI0FhJRCE3dCBA9YlGRhAETckKQYuure0ttrukUceSevXrU3jUcC1Pgxb+Nen5aeemk45Zan3abG/QwAHxSqgArCAshSEuDwd5GSiJVOlMNvrxzTQ4UOsYDrsKaKBnQPp8ccfSytWrvRGeACa6dOmpTPPPDOde+556ZBAFQE1NTcJ4LSnKVMme3qKFU6kh4vgHa7BGPEVvZhCJ6YCXgoVKlTol0oMuXnYDTAwdpeNuHaWRtTXN5iJw9hZzbN12zYzdkAEwAEQgVvekXLccfvt6b7770/d3V0GJLgFuACCmGK69NJL08UXX2w/7JwLOMANkhkr9TodhEk6QirCM8R5RgCqnFJWJRFvnczwz+GO//0r/13Aa8Tv+AU84ec3Pve5NGfOnLQdUKP0OA79pk2b6mMHOjo6DGQAbUw7ISGqLZNChY6nAmsLFSpU6G2hzJzfyKRj2XMckIji7Lq1ay1VGRYAyQTztyJuJbWAJvX1ecO4wcFBrzbKwIYrSzdYMg1IkKHBC4S7IMBKvnhHL0bpiz8Tdpx/xB2ARJhMJ7E6aeWrK6w8jIRocHBv2rRpo/eLeXXVqjSsvLQIoBh4VWnZ8PqGtHLlq1YKZlM8zNCbcbwGMIUKnZiK5KVQoUKFfqnEkMsFc34jg4ZpozC7a2CXVxCxVwtMHQlJpphWCX0T3CPd4B1Jx9o1a9ITTz4hMDBgPZSmphYryp5yyilp3rx5npYieoMDAQX0YkZBC0+6+0Fk/MA/zLKBrdlobmz1ElIT0sBS6aeeekqgZZP1cjjQcebMmemiiy6SfX21ZDuWV/PM0QOOV2CIc5SmT5/uXXtzngqAKfRmVMBLoUKFCv3SiWH3BIz56Li0e8/u1N+/JQ3uHbReS5gftTItUhYkGCjyNorZA0QODg9bmTZAQAAYgAC6KACIOoEGwAVABonHiPyjZ8KU1KHDsQuuwZDj4U9x8VPyAA+yrsxEGGaH40JRl/iQ8iDNIR4AFUQchAsIAYiR/pbmFuu+EBbBZLekFUXj1tZWT39NmzbtmHOTChU6ngp4KVSoUKG3iQAbMHeYONfuXXvSlq1b047t272KKOMbJDEweCikETGtwhlELFlmmgbgYH0RhVdXTfUAKLxsWqN8g8AKU0DEiV8UdjnbCJ0V3pkKqiVP3yiM2IE30ok7LsAM8COWZI+tNoLy7rqY44opJdJGGEx7IXVpamr2tBLumBpjhRPxHxphmfaIJUTz5s8PKVGhQiegAl4KFSpU6BdAMHkIpg2Z6VfAgTuMGYkF0gn0PVjevG3bdoMYKO+hAnjgMMRacoj6BxhxLHKb4wtCmTaerNcit/jBjeNXHIcPx7QT5oCdACSs9mG5tfzzIreAFtLA6iXryogwGz8ugAVuuXBbNx4zpZdwdTk+ux2XRlg+LZBjCZLyz1QRUR4Y2u90AIAaGlDmHZd6J05MpyxbareFCp2ICngpVKhQoV8AwaDN5HXBnGH8+T3bcXhi/5YtBi+sHkIqYXAh//gxuBCPdxhm+HEBWeTsDZIJWfFfTJ+HPLTjNlYJ5eXPABW71RXxKT1ygJHjqgBJ+4QJfkfJN/zE9NHQ8MFUXxdTU7GcO9IDIUlxfDaLC8Xeel2HDo8oEgG3eoDbwbR79y7bM13EKdWAMc5eQu9l8SlLHE6hQieiAl4KFSpU6BdAMGUIAJIJ6QLvGnfTzp0DaYuACxIXpk8ACQAY0IGlGX4OaQZhGcgYcQgQiMnHcuIAJEhGDBLqmDIS2Dg0LJsMngA4ciuvTCtFGMYQhGSAEBgBAAPAOOxpHs4r2rZ9e9o1MOC4O7u60oT2di+DZhpr6ACnUMudgMjISBz+SLrZp4U4a9NMUmUsc8rjsPepYRM99nuZNGmS3R4+EvvAAMh6errTwkWLla4ybVToxFTAS6FChQr9gghmDoAAtCB5AbQgZeE6cGDITB8ycKkAS+iliI8LkMD1PX3EO5zdQCCmcrIf3rkMUHAjij1YYmoKc6QjdstP4UOhy5L9HrE0BKCB9Gf37t3poYce8t4tOfzmpiZvhDdn9ux09jnnGlQRLgDF+jIRdbg3uAqpSZbYHBGgQoF4z57dTheghSMIsMuACr9IaXomdqcFCxbLZ6S1UKHjqYCXQoUKFfoFEIwYxg6j5hBDdp0FFLD8OaQRoUuC5ISpFsAIBNNH1wOgAU8PYGDoYjI7ByD4LYBP1g2xLovjtJMwIwziOczyZoBFhJ2nkOI9CbyMtw4OUzg/vP/+dOM3v5nmz5/v8K34K/Azgs6L/LFj7pVXXe10Eyd5JE+eGtMz4YXEJxR22SBv/77dtud8JIAL7jhiwMDmyGFLnxoaGyzBQcKzcDHTRkXyUujEFC2+UKFChQr9XAngwvQKEhaWPq9f/3rau3fQoAXQAKBA8oK0hVU2LF1uaWn1VvsAGJY/N4qZN4mpAw6YxslTSAAI/AMsACGHxPAJA2qU/zhVOuLnjh+AwSjIsUyjkuAAlkAbShPPjQ2NXqbMcms2ntu/b58BBWBjQvsEgZERb5gHEAG4MM2E/gqgKZ+hBHpB+jM8fCANDOxMGzdusGRn1qyZacrUKfZ7cHjI6cJ9c3OLrqa0b9/gMRvWFSr0ZlQkL4UKFSr0M1CWpBgw6J6X+XqX2aPsDBuAARACsx8aGk47dwyY0e8/cCCAAuBBIy7MmzCYyoHYIh/pDO4O7N+f9nENDgZoEGBpaWmWmy4z+Lb29kpSUu+lx4AHAEfomsRUUmb8tdMxEPaWdOgivdmcRDGbBLAiiUwdrV79WvrhAz9MW/q32k9LS0tqa2tPixYuTmeedXYa3xBnMBEFwKSOsPQS4R+2pGnPnl2Wokzs6UkTJkxQfg463dbLMWCrr/aDOZS2bt2WDgwdSHPnzBHAmZr6+qaQoCp9hQodSwW8FCpUqNDPQBkYwHBjqiNWA6GwelBMmX1UkIag18GSZxRSBwf3iaHH6iEIfwAGmDXTOBxSSJivvfaar82bN3vTOQAJlE9uJmxAC9IXplxmzZol5j45dfd0+6wg4id9sHokIAYlAAkC4R/AhGcR7jzNo2ckJ1BghKMOixOhWcYMYAI8ATLQ1QGYNTY2WZkXQDUkd3gMiRCgKFZU7d61Kw3u2+tlz51dnalNoAdwRZ4bBVRwg4QHfRckNkhZmE7jxOkZM2eMlvHMmbNSUdgt9GZUwEuhQoUK/QwUoIPVNDF1kyUcSDx4RwqzYcNGMePdZsrgAeEH2QXoCSnFGHjp6u4SyNmW7r///rRixQqHhRSCC4CBZ3RFrMMyvt5nFiH9sI6MAA4ggs3cTj311NQrQAPQQHoDkICIO5OidDqIG0mR3gw2cMMKJQDI8EEUiJH0xFJp8kUQpJspJiQm7M4LQAN01QlQkT78NjbWC7TsTv1b+h1+X98k67YQH5HghvgBWa0trc7Hjp07vNqK93nz56WJPRPTT3/609Qs0LRwwcLU09vrdBYqdCIq4KVQoUKFfgYCXDBVxB2GDjG9AsNHcsA0CRcM+8hhgRRAgNyOjAjkCAzIIpi4mDvTPzvl9hs33pheffVV72vC1vmtba0RB2BHV6xKOuAw88nLzU2xBT/SkH3796Xp06YbwMyeMzt1d8WW+uilMLAbpsgvaYlpopCQhB5MnkYib4cMLABXxG/pkkDKQeUN4IJbtvVnkzmDGJkflWG9/KMTM7Brp+NER2fqtCmhd1PFj0SH9DY3tbi8ADybNm+yrg/nHs2bN9eSKs5EIv5LLrkkJDbtgJ8AYoUKHU8FvBQqVKjQz0AwYE+3iMFyR9ICuBgYGBB42RMMXXaABRRl6+rqzaCRukBMtSDlAAgotPSDW29NT4phw8ABQ+jGMCVEGMNDw5Zg7BIoYvqJIwCmTJ6cegRyADOAJYAAIGHHzp0GNBN7J1pisezUZXavYEbFL5aARMQGJQAKv+sGKGFLfqa/kPoAWAAi2AFuLIlh6TXhKE0RTEia2AOGE6ybmxt9+CN6LXgE/DA1dPRILP1G6RgQR3mRn97e3jR9xnRLkFYKvO3dszdN6puUJvf1KR+9lsaQV3kmskKF3kAFvBQqVKjQz0BMl6DHgQ4IDJsVNACJ4WGBFtkBTNBRYVUOjH1cqhR09QQgsQaK7ii37t+/N/393/+9AQj6K+vXr0+vv/66pSswfvwDkIiH5csN9Y3p3PPOSwsWLPBSay7cAYxeW/VaGtw36GklAFZPd3f66Ec/7t1xeUevJZZFx+okgAyvTF1ZP4aU1iudAiUo1B49wlRSncELisgxTZaUDs5Rarb/7du2xflLAiVdnZ2eAgOgGOAZcMSyafRmKBeA2bat2wVaJqW5c+d62unVla9azwfAxvQXhB+mnJpbWtLEiZOUJiOlQoXeQAXWFipU6KQkGG1m5hB33is+7wtl29gttk5ggSmPg2nlypXp+edfSPsG9xvIAA7wS3gAHKZFQAJhFqtvHD4gQeGjSwJo4fRkdF5wj5tly5YZjDAdhHQCiU6Ao4NpUl+fJRsowwKQWJ0EEcbSZUu9N8umTZsczrp169M//MM/WOpj/RelA3MACSDGCrgH9ntaCgDEEmrsrSissEk3S7Ixs5RGd6i9vc1pXbXq1bRm7ZrUO6k3zRMQAWzknXkNeFQOhMPuufUCeytXrExbt25Np566PJ1++ukGXrfecmtau3at3xcsmC8/hw3YIGJDahNPhQqdmOq++MUv/lX1XKhQoUInDWXAAZPOZLChy8qtiCIqAIKiKsqlSBz27N5jiQWgBZ+4D8mG/rhXzJ/w43VMesAjW/Sz0gYgwA62SB4AEay2AdQAXFixBJBB6oLiK/u/AGrQXcEcv+ztQtgAoqlTpxJ52js4aGXYzf39Xp48e84cgZURgwuDCvlFAsR0E/o36NYwRcS0EeEQP2m0wm71DrFfy5Yt/c5/uwDTgvnzU8eECQ4rS2dCQjNOeamzv40bN+ralGbMmJmWnbLU6XjiiSctYULSAmgBOGW9GuJnqowpI/aYadbdiSlU6ARUpo0KFSp00pIlEmKaxwKZeM/ShJ07d1pCwhQOEgXcYY8EBDCBl1GQYv96ljlgJrvN5MdxxBnun3766fTjH//YEpbYOj923wXIAJaQvjCV1NjYbH2RTj3zPnXatDSpt9eAgakbAAughlVLgJxtW7elj3zkmnTFFVcKDO2xEu4BAR5ABfmCUNoFSJHOWDF1NMCN4g8JEWcWjSjvWyu9m2ZLWZD24IYfS7h5NtCpnllFhE4O6ZszZ673onn5pZd8ACX7t8yePduSov3797l8kGwRF1iRtLBBHnF096DzMlZ2hQrVUgEvhQoVOikJ8ACzhTJwgZGitHpg/1DatXuXQcvAzgEzeRi0QYkIEANYiCmjOjP74L61JPau4E8EXo4ejROk0VO5/fbb05e//GUz9OXLl1dTLKeml8TwmQoC1EwTWJk7d57tADgAm66uznTBBRfIfr/Tzu607CuDRGb7joH0hc9/weENyj+SDa9yUt4ALei2IFFC0kGevUfL4ZgyYiUU+jDWaxEQQZISS587DXKcD8AN5aGf9Vr0zOopJD4ApTPPONNTW88+80x68cUXLa1BZ6ceScvwQeeJKSVWTwFYKH/Kk3BQPEb60t3TQ0SOr1Ch46mAl0KFCp2UBMOHWWfpCF//MND9+w8INGz2smdPzcCoKzv7kV/O+LHExuEASjKTDaDiPVT8pt9x4AWndXXjYjpHYbBCZ926dZbCPPnkkwYsMH7iJ21IfJBETJkyxXovAB6kK0y/ILFh5c6MGTMMftgnBfcfvvqadNVVHzbYYIqLRFqSAuhCYqREAFxIo4GbLjaSG6907d49kHYKtDCVRFy9AhNM70T6KSdWEilfCo+l0oTHUmcAHmmZOWOW0r49Pf/c894tmPORpit9TC+R7jjHqCnSJiCFORv2IclhkzykTq2tLamru4CXQm9OBbwUKlTopCQYcQYvEHokW/q3pANDw5ZuoG+C4qi3/heThjKYgdmDRPAv63jWLbvLq3tkYTeZ4hE9kdgaP9sBPFBYRQfm3nvvTXfeeafTQHgAFk/7CKgAoJgiAvBMnz7dYTClA9DBDeGcccYZ6RMf/6SACEu1DzlS0g3wsrRFoIFwyTcXz7Ffy/60ddsWS2U6OzvSpEk9qbmlyTo9EOAEcEG4ZI1yGVTcQ0oXy5sn9U5yfp5/7gWnfUrf5NQ3uS81NTUbCB0+wkosyickXpF3ViUhcQkJEGZIXtpa2yrwMlZ2hQrVUgEvhQoVek8RjHGMxqZFUKL11IjNQvGVZcuAFnbFRcEU/QykEqzIgbFbF0OUp1SggCkV6ZHoMMn2vBEfQAHm7Pj56R03oV9ybDp5wjfp6hRY2fD66+mOO+5IDz38cOrfvNnb7SOxgHLaASukb86cOVbYBbhcc801Bi+7dw8KsLCj7xErxKKAi3umjiDABGkBCLGnTP9mpqcGffBib1+vlX1JEICJOFDuZRM7yhDJy9DwkI8yQDIzf958319Z8Up66smnLGnhYlqM6SGIuHN+uY+Blyg38pTNOPKAvJSl0oXeigp4KVSo0HuYxBgtPYlhDqYPo4RJwizZ0p4luzDjbMbuuJnBxgXDPWKJyzHApSK5qEyRsuC2Mo0HUeVHN/wTTy1Prpzb3quC5K9NzLtFFxKM/v7N6dlnnxbAGkgDA7s8LQSgQOeF6aQli5ekhYsWhWKvAMPOgQGFA1DjtOqDCjemxDIBgtivhvQhsUGvp16Aik3wmPbBLWANsEVZQeQf/ZR8FtGIwM+0qdN8QjSrrx5/4nHrsixZsligo9fgiIMpmW6i/NERqikGlyVhY0edUCZetSRwxJ4xSF7K8QCF3ooKeClUqNB7m44GIDAj1mgH80bJddv2WEGEHgaE1AVmGdMXMO2YZjFw0XsAjjcy01rwMkZjwyogIQBLhGlQE4HJh+7xZzOUYEkrOiAYsh0/EozWthbryCBBsURHdgAV9FmQHB3Yf8AKsLhhqijAQoCWDMq4eEfyw3TPlq1b7A4dE/RamhQeoIWkh2Ju+CN+iI3mhoYOWPeGKSuA1IoVr3hF1DS9c0wBkhzSg9Qqsshuw4dGw7MJFvoDuPDMdBTlQFzUEauNOCYBEJRLtlCh46mAl0KFCr2nyMxRFAyb9zEdD/RDWPqMxAGGz7QRuiaeIhJogUJfhSeATC3owOxEBHzxbYzMnMWQ9Zg3sXMaSJOnk0iX/x9zRyIRIErgpKnJrNv7oIwLAMRyZPRGSDM6OaSZ2Akb4IN5gAXMg0gHG9TVKS8HBD5eX/+6d+RlqgkgwpQOs0k5nWSEPANaeM/lBcBZtGixT51e8corab3CmTSpNy1cuMhSGZY+O+MOIsqLcoVIH1fQWHlVTwYyWfLCtJElLxMnypbAChV6IxXwUqhQofcUwXBhmhm8oKPhHWvFhLdu22Y9juwGwh3v3DETqzdLxQxAANPlPYOOExF+qyddwXCtX6LXCN9GlbsxhpzNIWyQrLBUGxCDzgr2gAj0TUiPArC0xWHKPdvsjxxEGfaI8rXfCrX1SGQOjRgMNDQ02j92mzdvspQE/RQkJyjl5jyj00LYSJnYN4bnffv3WzKFFIhjCZhSeu21VenFF18ySDrvvHO9nJmyHTowFMuenUSlUQAKCREgyukX4MkKuaPZp2z4yf0oeJF77/Mi8IIScAEvhd6MCngpVKjQe47MQKsplj179qaNGzaYGWdQAyCBwerR0hceWEYMAV6QVDCVAUPFDsb7VkSY/PiD3+K3+tO/atpGcdsGaU7Y2Dwo7lk6gXG2wz1Mnfx49ZDNwh07/yLNQWIR2EZgRNf48XEOEyADqQl6KoTdI7DhE6xbmhVeKCH7HCOVEwCGqSckUrt37zIg6unusXQG3RuORQDMsCwb8IN/9GoAHuSd4wgID30Y0gNoYYouzkmKKTjsM4Bx/vTHtJHDUFnjljjR5emZ2OuyK1ToRFTAS6FChd41BL+DYMQwwcwAYXIwUyi+9A+mwb2D3guFpbjs3WKpioAAEhSemX7BP9MsmAFigok6QDNTgADsM4MZAxTbxn/ekZbgZXSKKXiz/WLhdOK8Chf9D9KPfgpxAUxwY/c4U1pIm6d+ZBbhh8SFgPBP+plOIswMeAgjpBukJaWdO7an7brwizSDKR5AAWVDGEikCBBQQRhImQA6ABSf+jx9muN45eVXUn9/f7VR3hwvzx4aHo60V6Aug8J8OTyVp98VPnfSly9Aod3xXMWPOelijxtOxS4Ku4Xeigp4KVSo0LuGQgIyzgwYZgcjhfExxQJDbGlu9tTIeoEWpAUhfcFHMEEzUxCA7jDcoJ+NQSq6yr/SwYtIrw6Pt9rVSLizTR5dZZzt8s0BiY6dXoo8YQCoQrJBICjSsl8KFAqxh0P/RXE6LgXBO/lFn2X9ujWeOkLSElNEnfbjnYIrSYhX+cg/Oi/o2VBmpJHDEgEvzz73bHrh+ecFevp8aCTTTZQpoAs/lDfuXaKknR9SItUR8Vi5uMpTtnM+9cPMRNJHy/Ko8l6XOpRWQBYnUEfJFir0RirgpVChQu8agk/DqZGQBDMUCNHF1z3Lc1/fsCFt3rTJDBHzpsYmL9k1g9SVpS4wXktfxLy9zX3lHnvHoHe8EBdM1QxXb/GMKfbYxVRHnjohPfqraMytiSTohn32B40yfoVnaZDS5XOHBFjCf7gnPKQvpNtulW4cWEojwMByb5RrkZy0tjSlrs4Ob3AHGAKoOK+KE4BAWSGhAhxx4CLSqSmTp6Rp06b7CAK29Ac8zZ49K02WOf44iZp88oyyMIcnZv0b10cUmONxGQvAOPdVWnGHOXcDKDlHnwY7wA7TTqRp4sSYNppYwEuht6ACXgoVKvSuIZg8+MLAgykaEcqge1j6u2WLlwADQmCOSGOQWNSNjx1h8zRQAJSYqgjm6mBG3VifxKOi/4nGGGgGKHjixztSmAAyAJew80qjmvdM+Kn+HLpDsXXcyZc3ldM9gyrCYHfaWiJ/ABbyB5BAIoLECXN0VLq7Jug5QA1h+CK7ijSmc46k7du22x/TQRyYuH/fAeu1MHWEtIYDFEkT4I8EU96W1sgQ4AK4CT2WkIiRzgAtABIAS8Qd5RD6PplcLlUJZD+Yca4Sq4w426hMGxV6KyrgpVChQu8aQiLBBmwtrbFhGlICdnpFvwU+l7ft17jmVTtm8PqiDwZqK4OTDDgMZrgANNgpDvRWbAZztZ+wwI4wMLRZRYRhp7rbqf4FM4cp28Mx7pEY8cOTp8H0iNQhwEA1rSNCKsLUS8Qd4dTV11uxljiRnqCMzCZ2TOWwzwrLnwEnDQIuLK+2nowIP6SH1UlszLdhwwY/n3XWWV4l9NRTT6dXV65KnV2d6cwzzkgtAg+79+x2WigrdhzmOcpxTHLifFT3ACFIeCL95I9UU7b8LPnRRXEhVQpdF/aBiTwSZnNTs/Vz2C+mLJUu9FZUwEuhQoXeRRSMdPfu3d4ZllU0SANgijDPA0ND3lreX/9iuiE1CAlG7QXBhOGuvlcMGCu/Q5U7c2DYqN6zXYQBpNBPcTmIyj03u+WlCiqHn58DPMHIj5h5e4pFZoAVm+vHlIpXO+m5oSHAB55xy/Jk8g5IY/UQFzopTBGRdyVqFKAxrcTz8PBQ2rptq3fCnb9gfpo5Y2ZavWZ1eu65Z3GeFi1aYmkL+7UADBsbYxO8XL4mwtNFtpwf/eWpOMqG+JiWApjwPlqWIoMffpV7K+3qGQmRAaUu0t/V2WXwUpZKF3orKuClUKFCbytlpsdlRll94QfFFz2MjTurhrZv35H6N/db2hArhNilNZRHkUZA+R0GGfoYMEg47RhTJb6gYxmklVodbtbdEJOVuRl4xaxrmXLWXclh48bxkScbZ3MkMgCJcEsavdJJz5VLx+NVSIojKyNj2lAfq6mY5tmxY6f9MXUDaEFS4XCVjhyOs6bAkK5wcCJTQZTF5MmTrdvCqc8/ffFFnz00a9Ysb/VfXx877CIFMuAhbuc1dHC4I1UhXQAOJEPER/piGbhIEVNe5L1WD8ZloB+SMJStST/LsrGnvnHm8pKfToGXtrZ2522slAsVOpYKeClUqNDbSjA7GBhMEcZmRi8yI64YGgydE5/7t2xJIwfR/5Ab2XFaMncATHztByDADwzWwEB2DrJi6NW/YM7xOBonDJbw9Gc70gbh1uBHhFukIpkZE6792yt+A6SMUnir8qMHuT04PGRdFfyxcidLTFj1w9QQjJ8gI6xxad/grjjOYO9gam1t8UocTpZG2kIYxIekhDApB84UIr7t8rNj5840Y/qMNHPmTNu/+NKLadOmTZ5mQtJiSRXlBmiq4oQM2jBQxkbBmC6bOR+6dLckRmZ2Sqk4DOyqesEOQKM0xmGRsQcNp1OnaudglWjcj3CKdo/yNSH19HRXkRQq9EYq4KVQoUJvG8F0kbbkr3WuYORMLRw1aGF6CGVcpkjgZeMEGAwqKoaZpQAOQz9ABeGGfgVuFBZ3hafgbUc8CklXhGF3BO7wQ5KDGW4BD7hBIoM/zMKp/okiLQq3klbkNOAfykqzuANYWToksNDc1KTIxhmwDAu04Rc9HQAc4AXJBFM8e/fuSZs3vW6Gz+GLk/r6vPSZlTlISSKPR+RvxKt0AENMKXF2EWW5bOlSA50VK1amV155Wf4a05JTllgCw7JrLudJaabMo2wg0j8GxHIeIr7Qe8nPQbrLDbv84i5PC+VnByci3fil3qHxDZRZ0Lhx7LDbm9rb2n1A46inQoWOowJeChUq9LZSZo6ZEXKhc7Fzx05LDdDvGB4aTo1NjXIbq4jsTn4ACjA4M3wxRJg+YAMmapIjM05RmGAX/oJJEx9xI0nxa+IJO9vrzwxY9jBhzEbBCGbVUt+shJv9QJ42kbmZt9zBrLmw5pwhAJfzUem74B59FqQmgBxWDwFCOAxx0sQe79kCaAGsEQnABCBE+gEDgBaACEAPYsUQfggDaQs753qKaNo0AyEOpyTtsTw78ggYgjADhDg/ogxaSDzp5B5TStSDyks/l4PMkdIEIOWiVKOMsSON9iwzJEyEy0qqHMa4cfXeV6a1VeClq9PuChU6ERXwUqhQobeVzAB1ZRCDHsbWrdu9qyvTHDA8mDPTGgcFXGCOeUO2EZ/5gz/8h+4E4cAsrQQrhghjZPoih59XGPm9Gv3MmKuXo+bAYebpId0BIZY0VJKECDPCg8FnJo8/AygDjGD6Xkl0+JCD99STwjusfNixp030iJncktc9e3aNSprQZ5k2dWpqb2/DtdIc+SC5DlvhdnR0Wsl206ZYdTRr9qw0Z/Yc7/ny/AvPGwQBZObMmWPJDjowxEUZQuSFAPOqLMIn/c6T4xkDV05yJHe0fCHyhT1e0I/JZRSAJDzVA5LkEb9RXqHjNA6VIb07br1MmjQ5NTe3Ku9dDq9QoRNRAS+FChV62wjmxTQCjAvQAsPdsGGjQQvMtamZJdHDZuT1dXoX84XxMtUSehgBVnhGegIBYnjG3SjzNOWhLhhlGIfdmBuReHRmwFDYwdSrnWMJV2a1+i64cHrExHNYgBYr38KtR0nMG2mEzABDITEa5zLg3KING1/3uUIoDKOnwoZtgAKmwAwqdBFZ5CvJvjetXr06be7fnPomTUqnLF1qu2effTatWrXK0ovTTj/dm9WhLxPxBfgjnflIBVJIusZASEiWct6IjB/vlmRhTlpsFea5eG0vwj15jPqR+eGRhFIwNjinHIcODssNYIk6o+7q05QpU71Uu6NjgtxWgRYqdBwV8FKoUKFfKpkhwgzhaCKAydat29KO7dt9Zg5TDTC9fGaQGWPFPJlOiTN9kqeRCCEz0Qw2zODlJ0BG2AXFV7896R66LJiRnmDY2BGH49M1qu8iM6cD79hVDJlwkDAYWCjNOI4pE4EfmD+AoArX5gJFXrVkd0g/Ys8WVv9s27ZVICZOVeYcovYJ7VU5BFggENKQwR476aJ4i1Rm1uzZPtBw48YN1m0hLqaHZs2aqfjHq8wOynekw3lWuvgRNuljCoo70hSicpIBTUiQ9MJU3diOv1E2lkTJMXl1mNUVZUEek/V2skJvS1ODz1rau2cwzZ49J82YOcunfO/cub2KMI4qQPLS1dVtoJoBaaFCx1MBL4UKFfq5EUwtM7FagqHBUPMz7g4cOKBryJvMsfzZpxrryxxphRkijvUvh2kdETHdrNPir3oxPECCGbwc41aW/sMvDFqew5yrShuXlxZXZgCmcEukoQTMI6AFcGGGLLeVtd2NTuEQ17gIk6mXkGZEAjL4AJSRP4yP6l0lYP+Dg/vSlv7+hN4H0yRcSBwAE1kiAZgi383NLQYDuwYGrMRMXHHC8zRPGa1YsULlud/AYOq0qQZJSlJIQniAnF/liymfKg+kkYQBFKyjIifk1QBNP+rCaVAYTlOl8xN1AqiJJdNRxgKVDY2+u7B0J3zyvmvntvTDH96fpkydlpYsPiXNnTffkjU2zBtROChis2HehPYJPqbA4RUq9CZUwEuhQoV+rgTTycwtE+8wuQxi2K8EnZY9uznoLyQdMDmYpJmhQAnML4JgqkLgQEwUdwYBDhOAEdIDGG9mtkGACfwH2ME/4WHt9PEo/3qsmHOsJGKDtUhr6JPAzJEihJJuuCUY0mBgQrgCLgAEVvuM7nciwoy84KSpMbbTHzk0kpobm9KBfYPOP1NlTOlMntxnCQqbs5E40n30aAZ7dam1pc1AYf369Wnrlq0GLaedfprz9KMf/yitWb3aW/yfftrpDoPpIZelQAoALyQhlV6LfijjUheZPM2mPJPHvFSb/LtuRLilbGJKLqRLXJQH6aV8cEPZAXAICyByYOiAgRCKxI8/+kg668wzvAx6cPBA6uubknr7+gxeh5EMyX9zS3Nqb5sg8DXd/goVejMq4KVQoUI/N4KZZSYWDDiGFxg9EhWmOlBGZQVM6INgG0wqf+HHFEYwQE8d2YV+SDpgaLoyW8O/GahcwVi5R5j5XkP2Kr/2H5IGGDBE+kg3YRko6SIOzAgHEBCSE5nqnTByHIcOj6TDFdCAHAZpV/jkxfkSCGhsakojAhW7BnamPbviHKI+Me9JkyYl72artGA2VmZIOUhnqsptq+2XLl0qANCeVr22Kr3w/AteHr148WJvQEf5ARQgkhgALdIaOkBhluvIadWFBYAlpmnG3CPxIQ+AH8oeM3R5SKuDlVvCyeVnE5tTDiof/SjrzZs2pob6o2nnju1p/vyFKo8jqa29w1KYLdu2CNSp/OQPwNMmcDN12jSnpwqqUKE3UAEvhQoV+rlSZr4GCRUnYzv/7du3j556jDn6DWb+Ylww0MxQmao5hBRAv2wGjQ5UeohVO/wFyJAj3wkPMxPuZJj9cydtZqpi0tyRJtSxWZoopAmHFGco/OIeppztMDeDVnCkMRi4wuQ3zhEb5CCtGPOPhCN0RgYEWMg/8qKe7s40WcCFqSDiID8ABfRZUFBmegilWiRUTBEBIDi3CLDDO1NEnPI8d87cAD8clKg4SFMm4lUiQjKlH2nPAIO0QjGlFOXEP9JgMCMamyIK54RD+KP1q/BzHWWQhR1Ah3A4MLNBdYwUiOXgg7u3p69/7WtpnsDLGWecLcB1Surs6hJ42eZyY5UX4AVgNmXqdE97Rc0VKvRGGpMbFipUqNC/kGDYXJlJotcCw2blC1Me7NkCaIFJISVg7xGYJVINGN/IwRExMphjMF7CgkanfXTHKEwBIVzxHs/Znb3bf4QRU0fW6ZAlZuyngk4JjJNzf5iWMZAY9ZOlBzDyUGi1tKYCLtg5PDklXpRiST/PmanDgAFunNbMNBH7tMybPz/NnDnD00Ts08JUkqUMAgAoLzON1CJQ8+qrr6a1a9eKkU9J55x7jjeae/TRR9NDDz3kqaHzzj3PJ0gDbIiXcqwFL7z7YEcR0zret0W/OIspJENQ5OuoJSqYO93VFBEEuAQYkVYUeikaS2MqCQ4X0hyIOAEr3Bsbm2zH1GDeuI64Z8+alaYq3ZQ5xz1EWQKiVJZchQr9DFQkL4UKFXpLMjOumPnxZGZYPQMKMu+BIQFUtm7dkrZt3eYVQnydw9AIL6QtHPhXH+9yPwoaFEZ+ZpoiM2AzTDFDx4EzgAUMWO6Y0jBzDCubcSeMPA2Ee9IAQOEaEQgJpqmvuDoxX7nhPVYvRfz648nh4TCAC1IVIglwc+QoK6BCx4RwSSfhwMRZRbRz54A3i+tlBVF7e5og0HK0Ai24teRHcQMAAHZIVl7f8Hqa1DspLVq8yCctr3x1ZVq5YqVBy6mnniog0544dJL4iJv8Zb0T0sE7yTZocRxMiTEVVIEbWQPLKJN4tYHLIW9ORzgZDBEeYIeywA3hQgFeQupC2HavF5srbYTJEQWA1YcfuDcNCMhedNElacbM2WlS32TvLLxr9y6cudzJX7tA2tSp0xSGgKRjKVTojVTAS6FChd6UzARFMDMYEkyZi2frTugCePAOB0JpFSXU/i39niYCXPC1DYCAieIm778SjD+eDRJgmArLG9DBZB11ACeHL4r4x9KEv/gnl4RrswpQ6V8w5XCPO36eTtHdG8dBlXWm8aRT9sdbHEKpNMelMLkskTh8UCah34I9Oifo9AwO7pVZnQ8YZHqEpb/2rmABWyGNQM+FM35SOlAtGWfqaO7cuWlCxwQvhV716iqDApY9swcKcaAvBOX0cCObuX586KHzMOYmTxHlshxVSNY7ICjqFPOx1UUQd8IInSPcRBkDiGgD1BXlEO2C8g1gwzt+1q5Z6+mvF55/Np155pkGcBd+8CIfwIhEiuklIiYedtYFvKC/Q5py2gsVOp4KeClUqNAJKTNomDLMMzMtmJKGDl8wPLuT2T4x31dffc0byMFcUWRl2qRezBilUpg6X/owa09FIH0Q0wNgGLAoDpg94cE8icuMFgZWpSUuJ2+MZO3UiJHCnbEnTP6wQEpgHqh/+Cf9MXViIzuKe1BdfaPB1lh8uA0/AIIII6Y6AAD4bW5pcvpj2fd2S1A4WLCvLw5QZPoMe5YGM0V2RPmHOXMoIpKHTRs3WddlyZIlngpiP5QVr7yS9g4OpqkCLOyQmw9btA6J0mDAYYkRxUOOY7oq/nI9RSYzCMCcdFC+ENNDoyuP5AS9FiRCSJgoPsBKSG4AJFEeSEjIQ9ZVggwIiQdXTk+1gkvmTz7xZDr11GWpSenPbeO0M870lBHK2wZNckfYbW0TjgEvhQq9GRXwUqhQoRNSZngwqAxcuGB+YlfBdPQO00Wv5fXXX0+7d+2W2XhvsLZr10Dq7OiwhINdYHfs2GEA09jY7GmUWTNneZoAPQ95MpNs0EV4MEikE45P8ZvZwofF5DIbjr/qDeYpimkQmKzMMNI/pxNTGLwu8gM4cX74EY6BTxBxEwru7L4CLgRKOpwuxcdxBSjKIoFgamTjxo0GFuSNDeIoA8AN7pg2Ia/Eyzv5BBhs3brVp0WjA7J06TIx9oPppZdftkIuBycuXLgwdscViIn0UBdISkJawtRXJvITZRYgjrickYoi74dHJV8GP8prFE74h8gD+XR9CHhm3RjeATqkAelMtIOqHO03/OOXfLBLLqD12Wefsd8ZKhPyij+mjEgPh0SSDoAXlMELAM5pK1ToTaiAl0KFCr0pwWAgJAkwNZgURjBeNpjbObDTOhpMFXFmTlt7u8EHjJbD/2Dq999/v4GLpTHV1zqrbFg5c/77z0/z5i/w1vUwVuLBHsZF3MQFszPTBoTAJDGsGCbMOjNN/Nucl3wX1UpR8DvKbO2meq7Yp91Vb9lP+GPaKPR2QmoTG7btV57ZGZfN4QAoABd2yDXTJz3yaKavKxNpJr+UDZvyLVi4ILWK0QN+1qxZ4zjmzpuXJvX2Oo37BvcFgwdEKR1OrtJNGjKANOlmPSD9LLUgI/FPacnSIiQnAi6VNMogDo+ikMiMuJyRhDkME35iipA4cUdYjlsXZGBl4BjhsPSbvNFmyPumTRvTxg0bLHnhjKUulRP2kX58UQ8ptbZP8FlNSF4KeCn0VlTAS6FChd6SYFgwyAAVdZ4C2bNnb+rf3O9zeLKeCnYwNUtBYKx149IPfvCD9Mwzz5ipEwZh6c86Eij0LliwMH32s7/mKQSYJF/i3Pl6D90WrgAYoasS6TGnhnTjyS7lHjeWPJAEvcPwQwKBC5HCISyHp8vvMg7mjtuQMjg8pzXAgAKzOyQOxEH6AGTocgBiWDlEHpkGysCL4JHMEDdhY4d7dpRtFLiBiSNxYXfclSvZHXcozQO0TJpk8INEymBJ0YfEiefQaSF9gAnA3mg6iYf0yzLScMRSFt7JL2RAoscMNnL+8mnS6OWQnyj78MfUFHFZilRJegwsZBeAhSvC58ZUISC1tbXFkjbAC8rFbMzXIjPi2CPwhu5LAKGQJkHtEzrShI6OInkp9D+k0joKFSr0pgTzyl/ggBMUUZ944sm0csUK63agz2KGXblBeRNwwyoSzLO+x9hXfErdXeiC9Bn0sG0+O65ChIXUBj2YUWmJzGFiMHGDCzHLkMDgI0ABjBImCOMMYCIbubMiqewIx0xY/mCsELodeDAgICSDAoUDaOI5v1cMm4vwkCjsExN+9dWV3tafVT8zZkz3jrcsgyYu8gDDJv9IHiBABlNBLH9mSuncc891OTz++OMGd5NUHpdddqnLhTyxvDqAS6R9FDSoHMk/0zcAI9IUEpNIH/nJUh7yzqZ4pCFLSrxLrsIL0CFSWQEk8cO0Vi4zrzqSGToxxE+eUMamDQAwkZoQF9K0nEfcc+G/SWkDjDU1xZJ4wBjAhbzhh+kk6jjqJ8rfMIqXQoV+BiqSl0KFTnKCORkoVIwSgtEZEIgADDC4TZs3+/BEpkpYvswJwBmUGFiY8cCQYiVMbAA3Pj322GPp4Ycf9lc4X9t1dTElsXz58nT++y8wY+PLnDAMVOTHHA32qORgTtpgnKQPYGEdFD2bEdttMHbvbCsGDPE1nyUWhBN54yKv8U4eYdgYOPW6H2G3XNnhHCYPyML+oBg40pbBwT1mvkgHOIeHOJAyRZmwNJm9Y7JeSb1XHfX3b7HuCpIVOff0CSuJBgWEFi9a5HwDDjJFetG90Q/AZgP+SFdc0GjeySfu9W4wI9CV/WWlXLyQLswpU9yE9KbBEWJOfbnceFdYAA/K21NG+iFhw5y6JB6kKNSfwQdlCuBSOKSH1Nq/yhc/dQrT4erHXj6kPC/vdnuTu/b2jtQsEDVzJgdKjtVtoULHUwEvhQqd5JQZBIAChmRGAxAQgwNUbN60OQ3s2hWKtbLjyx8Gha/jecthgIv4Fl/gw8MHLHGAwfF1jlIvzAxFTjZha2ltFSjK0pEAKHg24BDjGiXHUcUHaBEZyMAgZZj9kt6gsTBCJ6YyC+d48N07xhq4BPMHfCEVqKvPxwREeACNHTt3WPekuanRICRPEVFeBkvjYsoLAMOusijkctjkjh07zdznz59vnRg2mLvj9ttT36Te9Id/+AfOx9DQAZLkMsKtiWQ7b0qr00v4An1yT3wAygAIVVkoc4ARQGaUI5KsULAlIKa7IPJEmlUariPASrbjnXKjXAL8hDlnHSGxstRL8VBGgBckKbz7p6T4eRRAAVrwHxnxNJRAISAFdwrJbolvFLwoXUjhmtQ2AC+FCr0VFfBSqNBJTmYmYjgwG54BLjCnLf1b0kYBl9FdY8VorOip+8GDseoGgulniQcSCHEmETovWXoTDNjMUQwLRqXXtH/ffsUVUw3Ea8AAk1MQ+UsfMlPU3UBBHvEPMyWMMAt9FOLIjNBTS+Hb/8co0kI4oecRYIy8EJZX7wiIkEfcIWlBIRdpSu/E3tTV2WnpESCMMgKctbW1Ko0RP0ANXZ7Va9a4TBYvXuLlz08++WT68pe/nB544AGDlTmzZ6W/+su/SosWLTIodB4JROR7FR5FwH207GUX+Y16grAn7aQJe8qddACkLDUS4Z7yxQ3lDRDiGX8swfZSdUCR0lwLJImDMDMw4h1JDva5jgib9JF6zPPxCI5VfnkmnnH4UdrIhyqpqqNwQ52RvlaVLcrcLA3HvFChN6MCXgoVKmQykxJDg/maaW/dloYFXGBYZqD6cY/LrEp3GFY1ZYS5TENhU0yyYUzPBQVVCHAAEwzAEF/pijiYnJiXX8UIIaQ7UGaMBjdyEHorwcQNuHjjK14P+WveqbN3pVtm3IkL/8Tj9GKqOJx+mREA6dCbAAUb7W32qiD0UHzqc1ub0zx8cMjABx0RVlSxezBggQg39/enrVu2+ByiU09d7t11b7rppnTzzTd7moiwZogx1ymN/+bf/hvvlrt3zx7Ff9RAyJIfAANl4DTC2AFWpC9AncEZmVWeAAVcOLWeisBgBgKRX/mTHc8AEMLOoDMDyXgOHRn8AWwwJ1yXuS5PJ8mM+KEMoEhnrkfqnClD0oJ7Eux06EecXMQT6Vfb0DNuyYslXyoDDmVkL5wCXgr9j6iAl0KFTnKCScA02UuEqR2WPiNVgNi+n2kD7GElMBu4DswKhpr1S2BIwZT4SmdagumGYGpmQTKHGUIN9bFCJr78kfZEGjKzgqn665/nMIn/ssdftqtx4FswYj1VZnLI3ygQALCYGZspA2oARDgAFIztJ7Nj57a0Z+8eS1v6+ianrq5Ohw3ogTk3C6gwBUR+0LPBL+WGAnNzS3NasuQU291/3/3p1lt/kJ5//vnU0dFhhsydMgO8/N7v/p51YCh3h09iRVlJNsoupBKki3tIqULi5Ok2/XBjiYguCLscFvnFL4WVQQkZjjvFEmXiu8oV80amv2TGNBZxMS2FedQPMRJCPPOEX4CR41V5Ov02V1nLDkmL041fmUEBXqr61I/w8ctqowJeCv0sVMBLoUInOaHXwh4cSA2s53AM0xDT0v+h4VjyKrZnxmaGFw5sD6MZm6rRO8xIjIovcIAQzIkpIswOHQKwjDFQyO+AFv1ggnIY4ck8M+JggkglgtFlUAITN+McTVFFfgWkwDYryY3c4daMupIYAM4IB/CxafMmMc+G1N3THXotLa0O1xvn6T6hvd1+Cau9rT0NDAykdevWOS8LFiww033uuefSl770pfTss88q2HFp2tSpqau7W+mP/Hp6TWn6/Oc/n5adusyrsZiuyUqumfmPAcMAJVmaAZAkDwrCK7RiOikZNMbhigEI+JNz23OnzPK0De7JQ1bghfBDGikvVotBTY1Nvgd4CbDn+uC5mmICHGHu6ajGhlG9G8KxxKYCo+SZOPWSxiFd0jtBYUa6SO8YeJlmf4UKvRkV8FKo0HuQMvMwsxDF1A8sMVZ1wLixX/XaqrRu7boAJmKemPHDP0waZphBBszNzEthEqqchvsqLK4gGBxpiC96nmFiYVYxv4rCT3Yf5piRXpQ+OciR3VrjSIFD6bVVq7xEmRVPKMUyDbNo8WJP28Bws3QBwJSlFEp0AA5LecjbEYOxPIWy/8D+tHlzv+Nhg7lJvRNTc3OTwmwWaImTj1HOZVpn+GAchtio+Da8/nraKfAye/bsdOqyZQI/O9NXv/rV9LWvfY0STDNnTnd4bKVPeVd8O4CT0vjv//2/t9/9B/Y57+SHOAEnABfqIwMWypi6ALTg13WivGUARhlmIJLfcRMAgLZQLZOmXBUOEiTqEjcZEGLOIY/Uv5WDDaIyYAmg4wzYNECjgRigsqHe5Uv5AHhy+gyMdDeAkp9cx/6vfzKRPeEFsbQehe5p0zjDKae/0D+XaC+0V8aBGAPGxoX8HH3w3UcFvBQq9B6jPCiZgdSQ+I/M68zk8zQH+hZ8scPE4SsMar5w7HCC+Y1+ccNuuFVABxodAPUHAwvDuJnk3kyqeoayH8K0XWWOvwysuBh8YYxrVq9ODzzwYOKUZpi89xaRX9Leoa/1iy+5JC0/7TSDEksYqrzDpOv1TBwRXiiTAmzQ7UFywrQN4KdXoKWzs8P6OYQPWCKcPOjDvJHS7N3DadlbDUzYvh93Dzzww/Sd73w3rVmzNvVNmpS6uzpTa1ur06hoQSz6F6CDshxRun//938/zZ8/z2mEACtIhoJpk/+q1IjbwCvSEnmL9GBXOXEesxSFOG2l+6jESoZ5ZRcWuYydN8VLvYfeDHEE2CCtJvKgR9zESqIoT4NSWQF8oEgf0E1UeYVwm8OocjX2jF1FAV5a0jQkLynSXOifT9Qt7SWDXt5PVKbUK+bvpvIu4KVQofcY5UHqmK900aGRI166279lS9q/b58VTc2wZM+ghUTFX+9wPV0MDOY3PPtyMDb0pnS2DKNMhJepdiB0mJlkrGEymDXuKysPnoAiBwy/D8kPDBGl18cefyydsmRJOiiAAtjAjn1S2AwNycy//d3f9UnMw0OcjRThAAwakQooHgBJY2MAHw5QBLigg5IvNlYj15xyjN4HAAdwBKBg+TMb9LGFf0tzq1cQ4Yelz7ffcVt67tlnrQczber0NKGtXf4EmuSfPFgCpfiRegEkwANIv/7gD/7Q4AXpjg9DVDz4Ib+UAFIN/DsnAp2Uz2hd8VNAAIljCbfHXgAS3GZpiyU6SoesXKdOn+68u63YgrAqQ91IB2WYwRHkdLhdBEN0XG5vAToxj/RGe3SmdCPtpvxMHCL8s5KLfV5Qag7gHHaF/ueJ8qTOXG8q/5BERp1l+0zZ7N1EMaoVKlToPUNIAhiYMiNkGgJJy4qVK3StTDsFYIaHD5qxIMWAYioBRl3DoDSgsTqIgQ1GYkYkxgQRPj/IjFRuwl0wMZtXZjYHTOTBMgdPPNVz9pfDhFmSbogDDufOnesv8oGBncpXTAu1tbd5K30CQVGWjeNgmiiPOqwqTn2g2U1LS5OlTexyy2oqr/yZMSP1Te7zqiFP1cjlxJ6JJMhxoJxLGb780stp1aur0uJFS9KFF17oQyj/5E/+JP3lX/5lelgAZu7cOemM008XsGlOB4YOBLiqGHjkLYbaWO0EU6+LU6JlR335FGebB6P3qixdENIe3AbziakA3HsvFtnnC0v8k17ckifuMK/QkwGohhviyLpCpM17wjQoPbKTpcvfkYnMAImT/OhHmplSorCcdpUb78Tl6SXF43wqUbkerNPyFoS7HJ+p9rnQP4uot9weaI9MBVLvkPuyyph33Lme3mVlXiQvhQq9xwgmw4ZpMBaUQbdu3eLzc9jBtb4uTkHGjo7PcOVlwxWzia/wABx+1w8lTpitBzt+WABiKnu/V8/HDIAyi5uYMl/fGFRmbxgo8ytOFB7pQ8fE5npHx+Sll15KDz34w7RLAAZdGNLENAN7pZy6fLk3OEP5OCt/EgZ5HT/uaNqzZ7enegAy+Ont7ZX7tpp0RNpJI/uUAJTQgaHc8NM7cVKaNWuWwc/dd9/ta8uWLZYUjIwMpQsuOD811DVYssXW+cQLYAgARTb4Co78m1moTP/oj/44zZw5w8uyiRsmE4An6gC/AUAaBFaCwZA+gGa4YwURgCFygD15z0vJcQsYjbrWlzcK0/rxR7lmkEq8GdCYXOYVaBEwAYxgRh7ISzjAidKoX1Y0xr9/Cpe0+CL/Ne7jr4onP4+6He89c5qbmtMMdti1v/Bb6H+eMnhBwki7BVyyhB8gE/WCG9WA2hsAljp4N1EBL4UKvccoM//+/q2WuKDbwTtMEMaSOzzu+KIOnhVMhJcsHcCM6ZjMP8xg4iH0LUSZ4TnUeLT7cMsDfzGNcIydLjPMioFCTo/C5Q5DRXkU/RPSA+NFurJXIGTowD7nhwEXBVeABvFzThLCZMeseAA3Q0P7U//mjT71mkEbPRWUb5niQaeE9DCFQpzkiTQhgdiw4XWXXc/EiWn61OkGAUwR3XnnnWn9+vWjjIFr//493nRu7px5aZ+ATr1AjBk/TMEZhkFE+ZBb8szRCn/0x3+UZgsQcSI1IAFJSGYqpJ2l5uQj9E70QBqVDks6ZJ8lMQQNuUwr8GKJWVWH+MWO9DBlRpqbBAwpv1x/1l3RY9QT6eU5dFtwH/VCnUe95bhcBoQtd576Uh6ou2OWS1fp8FSjHt1WoOqZN/wQZmtbm+tplnfYfWtpTaG3JiSHSBhXr15tvS76CcCds7hY/s/HgVfuqbINXuQnt6V3AxXwUqjQO5wYXGKACcZxvBkXzxBMZtu27R6wkCDAyMxoxRw8LTTa2/FfPY0ymGCA2AXTNdvD0GYGPpWncCfitXqEDGr0jqTF5rKXL99hdqOgyFMMPOtNd09X6Q7zJo+4I90waL/Lzu6OMsWSd/xV3irwBbOH8QJqYH7Ez3lCa9euFmDp9BcnDJIBHHuWPqu0PNXkpcoqA774OQZh9Zq1drts2TIvc37s0cfSP/7jP6YXXnjefhn0h+SHC12YI0cOpuXLT7XkR6l3GZN+r+qq0j5aDuRXRUR6//iP/zhNmTLZOjak20BAF3mm7I4IPPBOHOj1HByuli83N1mpNk8DRRtQPPyqcsMsAEGULzGzhJnwor2E9MfSGNlTdlma48RW/ylH/KAIDZF3/GRghnvi44JyvJijY0NwvEe85DvaY1427/OclAcAJeaASgDMlMmT5RalYRpRIYj6ofyg3P8oM3a1xo5VXtyR+HGcxbPPPFO5xy0glPLET+hWnXb66amzo8NSzUOeoo0pptwWc70hebQU9B1GBbwUKvQOJwaRzCDyoAVzyM/cGXD4ysrTHDA2JC1MffA1zOBzSP7HFHL5O/aew4oH/saeIfxl8IHQwi4qu8pDgJf8mi3llmf8MxhykReTnJB2wuWUZBgj0gHckm/snTy94+foUTHZI6EPQpgRXnzlMwADLjj1ec3qNQYofWKCHR1sOd/sMjDDlDt0WfDPVv34IbyNmzamwb1708RJfWnhwkWpf3O/FYUfevDBtFPMgKMB2F3Xy7CVTlYxcc7RaacvS/Pmz00vvviy7FhqHFIEMxYxZpdb5NZ05HAwkj/+4z/y4Y6uIzGdYBZkmHxFxr35m+oPxgL4I94MAvGTp40yAHVcusgrachKui5LU6SF8pK1nwgHMJLLGAf4zSuU8I8byhoz/OAu6jDHGcCEKysR4y/CAYBSDhGu61svPFP2dcqD9XfknjbA8QBIpCijDKoLHUtR9gEmDx/mPDGVr8yQsm7bvt1Tmnt27676kOor17HKE90X2gXjAyvs2FTROlXVganUE/VD/yF8zKizdxoV8FKo0LuAYAqZueSBP98BK2w9z0oYjU82a9BXGF/aerMyJocLMv2SxcQwndB1Cfdcx5BeYXCZwk/cHS+vlbXdVc+wxsqpKYfNAIgkwu/6McXAs8PSj/zlMDD3uwiJTC2j9LMyyTQH/vIgDnPkrKQtW/oNXtBFYYooS0qCeZP/GORJInEwqAP60AlgmTSKwYoy3X//D9Ndo1NEAg9K2xGmRORfybNiLm4vueSidM45Z4lp7Enf+Oa3FfeQ7CNt5I10ehouF4o8w5Bx8Ud//MdpqsALzD5PBUUJ6r/zfNhvhNXQEIrDEEACAkgAUu3DcTh4kXwAfvSey416tzP9vBTd5XCsxCXXVUxdyT9hyZz0ZwkMRLqiHpQ/gGMVV6RDYFT5sd6NwsJfnpKCIq6QvBAGUiSkcEy3ET5HMFBvEydOlGvSE3EWojijvef+QZ1RljyjN0X/7+/vT7sFWnJ7c92pfqgntwX7BfQ0eFUeZd/T3ZMmdHSkmTNmut+wiSRtjXAzaCHOdxoV8FKo0DucGERqGQzvEF9GKKEyYCGtyNIWJBCAF6YZzGTMpBAva8Crfv6rBrjMsI6hPCqYgYXb7M/G2R6SGzM70VHdjnFXhQ0Tg8gHzA9m6rzIHMYNI+UL3cxez/4pzki/Bt0qvMg7+RGDrPQq2GRu18CutH3rFjNDGN+ECe0Oz1MwIuIl/wrU73x9hqRqk+M//bTTvC8LU0Tf+vb3vLKIdDKdwVLmo3pmqkYP/lq96IMXpksvuSRNnTo51TXUpVdXvZq+8pV/UvCUQwz8LhW9ZvDCz9M7yp9ynv7DH/2RwMtkxwMgoyzyCivMKFKYDHo9TrYu3AHoCBfJBPXuclTech3gMCQWAVpi6hCzWFmUwQZl4naFO7kmzYTJnfTmejFQJN2YuR1mwJjzSXqrelJYY2HwrpD1R5ohwqBOKH+my1xGCj8DM/SW2CdnjoAhdsRfaIwopyyZzNK1XbsGvDP0qlWr0gGBQMAjB23SnpHaMWWMP4A67uvqaZcBoq3XdBhpTKOn62bOmCFQPk/hJ7dF6pF4iuSlUKFC/9MEU2CwYgBi4Ef5FGVStqVnIONiWoQBx0xLf3xReVWK/CKBAdTAtGBIEAyLP4iBjKuWiC8TzzCibAKTfCvwUksOV38s7YWpOX75ZUCEeHd4Shs/4glGW0kUoNEb6QgAB5BgugUx+fYd2z1o903q9d4rfGmyQy5lhVSqsbHZZmaW8otUA52AHdt3eKk0y5yR2HznO99J9953X9qze18M5q0tad/gPsV8JE1o51DGlE5bfmq64srL05lnnCEGUSfGsTM1tTR735ivfOWrCl/lXjEDT6EpvdwBHS4KgwAxfv3+8A//gw98PHJU4AVwqQjQUyLvAIbmFnRbQr+E1UaUH+YQ7pBeUQ6EWQsiKFOWwAOaKNMMRnJBZiDjtiJyuuQG8JTL2Oa2I+xgdITNhfsMUAAzecqHd08ryQF+2SPHQI0yV5j4DSkY/mL5Nu/jkSCRHpllBopi6WH8OqRCmXJZcufjhXHg8ScesyTQtSY7zJE4Ut7ZLeR33ceNC5BJ2xqnegy38jc0bGX1WTNnpWnTprsOvGJO/nP7eidRAS+FCr3DKTMfFEs5NJELpsw7CqfY4QaGxugE85SRyEOVfpV0Q79RCYtuo4yh5pmwau8QzzDQKlANZvoSj6ArX2Ph2FiDXR4wIeK13oaMYJDYRXiRt5w/vu5Ip981mPLjmbQ5Dc5DhE/+OSZgaPhA6uzs8o62bQIbKC/ihy9K/IRiKwP34dTY1JC2b9ue9uzZ46k0BmlW+vzkJz9Od9x5Z1q3dq1BX2vLBJkP23+DGG2LgNDCBXPTBR+4IJ1x+mkCHJPSQTGIYcWN9AfpzPoNr6cv/d2XlTryEkq21EcARpg+X71KO+UvhCc2n/7gD/4g9fVNknskIDEdkC/vm1IBlZAahWKtAQRSjFyWDo8y0Y3CodR0xz/+INwZPOFJRFocn/yOTlVVYfAvXEU6sCP9rg8DsKgv7DJjcwLkHukP4flrXgHmOgdEkgbqF0mSJVEKDzskBNQzSqOdnZ2pVwAUqYwlBk5bpKaQSkJlTRvgArQwTcQy6IMHh1wXbu+AVtWXFfRlRjunzvh4yGAGpfesz+R3jRc84472y7SdjK3PxfYAgBjcvdOogJdChX7JFAP+GDEweBARU2FQYZzIX8XBKMZrsBoQs96SdmjQMjODwcshYeGPQZ53M6yqR0eY8cKzOIgZVgxUSoOMYByOsEoSN3zgPgBEUFhnhiZ7DYSj4VSE2xx+BFsxWzE9dqyF+RlEyRw3GcgQT2a0UAyyR8yAkTZhz+AMHRwZFnjbaulTm0ADO+oC4HyAosINRcTYSTQP6Eil0ANYv36dVxvNnjNH7lvSk089lW75/vfT815F1FyFP5IODx+07gXSC6agzj//femiiz6Yurq75L/ZcXARLowDRrFjx0D6v/+f/5/yBMNlCXeLz/lx/nI56MpTMMCXP/wP/yFN7utzWHIi82D05Jlnl4N+Ziqyh/kTFpVB2eGW8nTBi4iLC8ruZDJaB9jFlFN2F+0OV9y5DDSURp5DcldJxhxsTV6q8AArpBcirRnksLINop2iVMwXfo6DC6Vc8s0qqrnz5qbunh4DTVlFnfPwHqacv9r6GquXqOtoB6HgzJ2y5IMF4MImidzDj70Y7PEcYce4QH3yBniJsOVe1XXoUKUUb7AZU5YosXPUBgeK/vSFnwq8dFuh/NrrrkvTZ86w/5zu49P/dlABL4UKvQ1E568dADwIjAsmDaOPr86U9uzZmzZv2izQMpD2De73lxT2MHsGNYVkdxDhBWORWRU2t9EBJgMLsxmZ21ADEscsZvfY8Kf3SJ8YpxwyuAWFX/8jyQpvzC5sg4HZlcEMg25MG8G4bYxHp3W42trf5wkp7wzOfHmzWRlu9w0OKozxBh0chLhh4+te+szOuoi7UTAk3L1yxxck7igb4ueZqaL+LZsN/pgiYkO7V15+OX3/llvSzTffLP9tPh16SICFuBG/d7YpDKV3+fLl6ZprPpLmL1hgZg2w9H4ZrS1mCihJmnErobt27U5///f/oLjFhFyyke8AIAFELE1AMqTyOnJkXPqP/5Gl0ijsxpRRtIMoe5e5/AewQyKlelW+iNcbEMqM+scN4UX7ISnEHfWVQUZWUB6tE+LRz2mrQAgRw8hympmSgkIyE9N7rleHFOHjljhNMiYsxyN3EOVP/Y8cDBA5onwyrUe6kZwB/uYISPJln9N9stIxdVNdUC2I4XiK1157zVOU1JGBifxxh7IfzPKFWdRzTDvbDeMMbSfHoX5Hn5Mj7xb9+KOPWe+ltbXNq5Z+9bOfSddef33Ut4jwMuU43w4q4KVQoV8y5UGl9pkrMxKACwMVu7Vu3LDRugMyrdyM+cXc3EKvmAcDAcDAvGF+hFsxGL3DSGQwOphhHgNSgB7idxgEWfmBFY+CE+KpGBjMz39y6OeKLAmoKLsJiikgEkbc/CxB0mfg4RH0L2KFQ0gmGCBjighlU05u3rBhg/wngZZe66KgKwF4Qepht0o65VYrweHLdPee3VbinTV7VhoRQLn3nnvSfffdl9auXesB2zoj+pEmlukikZnaNylddtml6exzzlY8TZVuSUg5rAegdzNzIhVN0Nfqc8+9kL71rW/KLJb/AmIMBJSemCaJZepUAYWix/S//MmfpKlTpjocS2NkR/5z/QA8/Ixj+TGDEaHTgDnM32WoeKhb1ymFBlGGAgu4cx1hX4ULcbM5kfLHs8wBUrl+3V7kMKaN8BvuSGMG14Sf0+twHEry0tvR8GRHGseLySIJhNlOmzbNZcmz03CSUS5717PKL5tBmFGv1Dd2LM1n1RsKuW6zKjPsuQyeK8r+a8MD/GQAlMEO7df14zoL/bGN6l8cgeEtATq6vHquo7Mzve+896Vz3/e+NE3AvzZ9UH5/u6iAl0KFfslUOwjUDgQM8HzZ87XD0l1E6rKxOffQhmVgi+mXPHQQRpa25PAYlOKLHB/hhhfigTmZ8MLP/mpAR+WOOOHPMDF+Y25D3Mx7/I3dATe4N+BREGZsuhgsYdJIlhh0cxmgTIwkiTfywECa/bGlPyup8MP8+8SJPQIGjRrAYxURkhqnVX7RL0EiQdoALegC4Gb2nNmeBvnJo4966fOrK1Y4fNJPuE1iBnGi9lHvLXL22WenD3/4Kku4nHaZk/YQyQczQC8GJWmmkFAqfebpp/TF+rClL+i/MEVipi27HAaXmQqJVVnx+Kd/+idp+vQZBjiY4wbACVFGxEWcmUHlMLgDIGKjtwoUiszQqnbh3Xrl18BGdwi3+TKYMAip9Itklhki5ZYZJLscu04VBvVq6Qz+VL+AxvATzDJADfFF3SNpouwgQAvpZXoI3RYkZrVpP1mJMoBcvjX1RJ1TtoBsPmS4eAfI4A6AjDvaSKYcRg4Twg9thvokTNyrtn2f4Do4kp544on05ONPGAyjAI+u1cUXXZSuvvpq15MqPk2eNv0dV1cFvBQq9DZQHmAYUPKghSIuwAVpSzD7VH3xwwgrP7gd7bEVU9SVGRBmtWHaRHZ2i0EGFqJghMEMwyXjVAyAIQkY5693mdrOpEfekHjgL+JVGNhFEJWbHA5XCv0PWeWveO87Ig8Nyh/pMJBojOWaKNQyRcSA3dnV4akV8sTFdBJKthx+yMAK48RvS3OLBvZhL31GMsGX/cyZM9PadevS1772T+knP3nUO+L29HR5QGcDLwbvEYGQzs4J6bxzzktXXXVlOuOMM9KmzRudv8wgWL7rVTIVUx8eHrHUAEbypX/4+/TEY495OqSrs8tukBZ551jyq/Rl/RDXgwohl+mf/dkXPZVlUCMCDKAHwjQRBLPHH+XENItBhcAWX9+UL/n2cvEqbN4BLxmMUV6ALsLHnPrJbWMUkCpttJ/QhYk4IZgb5UQ4ACqqFve5HjDjcE/syR9tKqRmKEsLOMme9FLXlMGUqVNUzt2pSQwS/+SB9Eb+Tk5y/9EFUSY8u250sYw/67ZQFwAHpjUzUae48w7PKm8o+4VcL3ITYDLMuagbzAAq2zXePPPM0z6w9ZDaKxLNxYsWpcsv/5DP3KJ++YCYMm1Gmjxlmv3VEuHl9L8dVMBLoUK/ZMoDD4MBX/Aok+7eLYYt0JIHA5TnYPToC8A2cBsDEmJ8GJS+fDPwyAMIA5RueZAZG1hkWvEITDD3xRsG4xg08Y7/YFSVhW4xQPEjzixVyYzNcTj4Kg5eHVY10LEsSW5CeTUAC14UjMNUJuw3lnYfSts1aG/btsWDOXotWR+CwRYzdrhliTJMeb8GczNIlQNHIuzcMTC6QgJgcffd93iH3N27Brx1Osq9u3fvsvsOhdvYUJ8WLlyQzj///en9739/6uzoTFu3bbXUJfISG/yxIoYyPzhySICpw8DkmWeeSV//+tcdz3QBJYAOK5CoM++CW9XtGADIA3/UIdNLf/Znf2YmgfQJf+E2JCZcuEWCkqetiMMhKLwMMrMuUQZx5A0AMrbzLqXMgzwqSOoO9wY0rApSWnjnyvGiT+OVQqIsTZGF6ynqPACP0+GCwjr8xnMwY8Km3lConj59utKM1CbAFPYw5XAf/k5GygADov5pTwAWQDhK6YA87GlLLm+VVTbDPf59GjhFmOtbF+bcAd2u06qskWzSBp577rn05JNPWm8L0Dy4bzBd8+EPp+uuu1Z9qMN6dnwgEFdXd2+aPXf+aDozES5xvF1UwEuhQv9COr4T58EYI8zp9PnOl36WWiBZ2Lpla9o7uDft3bPX5nmAiKmEeI4v9lE2YaZTe4gf8Y2CBXOp+J99cOMJJuavbDEfD3T62a8dEEb4sDsNfhA6KbzzZ3vHGYNhNrd3+9S9Yqr689f8IbYuxxwDEZIFXKP8yqBZp/DJMwAOqRPhdnd3eWqBvVoyIWHAH5vFkX4ABTo/bNK3W+WIbsqcOXPNFB999FEfoPjKKyucqoaq3AkDiRZfmD093enKK65I5553TuqZ2OMy5UvT0gO59wncioN34mlpaZW/dk8//fD+H6YNGzca7PDle1R+AZlkkeKAOUCUIQwG0yzJws3ISACDP/9Pf64v2smOl7KAiA/gMaz0sskgZQMDIV+UN6CCMoYJAVgAVeQxS98iDMpK75iFkdpWHC1AmjJjA4RQprUSk0hvEPEwTRThRX7wg7In/nJbddoUD3mAWfJMuli5Mn06wI59dtQH7DrC8bsc5nbxXiXymPNbm9ecd+4Q7Z4pG/Zuoh/gp5ZwG+U8VmbZ72HVCSDe/RLpm+oQN7QbyPHrnbO7Xn99fXr88ceraemQ5p166rL0gQ98IC0SkGfvJPZM4qMDCSaAuKunN81fsMTx5zTX3t8uKuClUKF/AeUBJHdi7n6Wsbq2zXCTN5JjIGEKgK8rRMMMWgwy+zn1GPuKITnco/KvsDCDwUB52oVYGZBG41NcMJYqOXjjv64ALJFO3fFZ2Y25ERFXDeHOkhY5sh//xR3CHGbF1zVBMDjD6AAlHOKHHYMpefGUhBghng1I5HfowJBXo7CaqH9znMfE1Ets6d9oUMD0S+TpqL8uOeKAeAES7Ci6WV+nAL4F8+en3kmT0ksvvpS+9a1v+4uScvVhfwIWRwUsiAvqEmg599xz0jXXXpMmTZpovZlcJi4PPQImkBaQJhjv5MmT06b+LenrX/tGevXVV80c2trG9r7AW2sLy6YDbFgipnKhrh02bhx4uI39eMalP/viFy1dMogTsKDsRg4d9DEHhJ1XNVF+x5ACwR5GFSEGE8kAyfZV/JDrpmJ8gDRSFBIY6ha3AJqx9LrcZU79eVpKv1pgQziUuyrVzA2JEG2Y/BMPF/nq6emxOe7tR+GebJTLPRPPuS1Q3jxz/+lPf+ppY95Dgjb20ZP9uH6q90w81wuQY4/7w2pbtD+2DqAPYM+9qaFRcbyQHnzwIfk6kgYGdno69rrrrjNwocY5VoO2QzyAGM79Mnjp7k1z5i1ynyAewiNfOf63iwp4KVToX0B5MKFT5yssGARiSSLLbzFHJMyhacxlo4gKWYyrC8ZQNz6+jHnOgwL+MIMwirj4kg6mEkQawo5nJAdhFwyJdFjUT6LwK6bFQIcbp99B5OfIC/ZZgoDZ6MCpsKDRgTW71wXzZNM4h69ngBa++eIPCQxTXrHnC3lgBdHuXbtdPkz3oMPCJmYB1NgR96AZOtMYfAWypBlgsWbN2jQ4uDfNmDEzLVy40GV59z13p7vuvMPTTqwYYhoKP+MUX5f8sZJo9uw56frrr0/LT19upsxUFvlCKrFv/6ClMkhbkOogSQEkkbcf/ejH6fu33pIG9+4zaIEh53KlTpGGLFu6LG0WoMI9Az/SHexczioP14aKDsYSpzvXe9oIYJQJEAPDoGwAXkyN5amgrLtCQJQ700XEn8FFlnipiO3Oz7zIznVF2cPMbCI7/ir30d7cOlxvtYwJNwAe6i3HE1N15IWVQwFOCANwDkMEzABEMScthAfDIx0nG1EGEGVAGXFlQEfZMBaglIskBKkV9U05YUeZQbXlFvU6VjfY0dZpV/hx3cueeiQe3BwQGH7qqSct1aHvDezakZYvW2aF3BkzZzgNI+oL9JGo78Pqe8Oj4KVnYl+at2CJ6zfb57iJ7+2iAl4KFfoXEJ04D1C1hFFWtoWJ7tDgBGNlqihTHtQJA7conJqriGA25ib6x/SACYbDTYMGYIG3cKf/NUmwlMPex+x4NoOSVQYXYRb2Mgm/DpcH/9kOsrvKvW62JIwclwdOD6DVtIPDDT8OXcF7d1UxXDaZY7oHJjipt9ebzTEwBlMkvxWzJGjdGYQpp3Xr1+mLcXfq1WC6YMECletQ+vGPf5zuuuuutGLFK5bYWFIhPwAf/HVMaE/zZs1KF1xwvr4wLzRIYprOaVVcnqrztEmI3x1fXRzkyGB/++13pmeeedb6MigFo7fBlBJ1Shx8LSMZufiiiy0ZAhCRfoeXB3mFH0q0lFN8CZPOP//zP099fX0GZISFv5A6hbjf+k4KB4ZDfNFWsCGsAAVMl5Ff14vIZU4+9Arww0OW5sFsqDPnXWmzF4cn0jNh51VVhBOMiTsOASqqHz0RL2YY44Zw0U1CapalLeSdMHJ7ymGebJTzXZt/7ijfoteyevVqv2cgQLlBuOcZ89yms7vaMGm/1CdK5bjzmKN2hCI8kkM2m1vJCjvC1DV79ux00UUfSEsWL1IYR7w/EuHoxeHkeAHguc1N6puaFi5eOhpvLdnv20QFvBQq9C8kOvToYKLBJcyCUcHc0GsZ2DXgAYiuHittwh9fszB4GBWMI4hBAoaTv6T0q8I2WBDlqSMoTMYGEQYhEjBmLztHzEU6FY4ecRGMCSAiplWFjUfCQMqS8zVK1WNmgtkNF3ZkDebOAMpgGowOAFLvlQtssMVUDacpw+xg6uxkC6DiKw/lVMqBqQv88AW4UYM802w9cn/qqacrfePTCz99waDlqaeespu29rZ02Ct1DlvJFobP1vtLly5JH7vhBoGkiWlwcJ/TifibgTmmPvSnvAA62sWAkRrs3b1XoOX29NCDD1GMZshIUXBMae3bf8BfygBR513FferSZQYiB4ZCj2BIdyRI+KfecrsgDKaNsPvTP/0zlwF6QOQZsEFRwzC4LAkSEwpAFGAgg1bCAyQAFgG32EUbCXucOW1Ui40wwAy3YWdzuXUb00uWeOX2A7jjntslIMxAiDJWHmVgCQv6SVz5S5+0U+88Z6YLHdOOTiKiDKgvygSQisSRC4Vc3ikf2h3lQ9lm9xBmuRy5Y849lylUp3aCPxTGmeZEob1/c396+OGHvaoO6S7bCDBdetkll6ruxqkN77UfpD3UF/2Y9keovKMjBiBianJCV09asHCJASp+oJyW2nT8sqmAl0KF/oV0/OAME4aB7907mNasXuNTj9lBFlc+/EyDhEW9GpC4GBBgQKyIgWHEV3EwHvES65LozYwLRstzXh4pA1hV5b6SJjgdXLlry4WZmtxEEm2biXSPE3gxGCEcA5JgcjlP1S2oitMSkopxelBVHEMoAQo8wPBgpITDAA1o4WuTLfanTJ5i91BDfTBEAAhggikfgAVlxNQQG3Pt0xckS5hZRfTqq6+le+6+P/3gB7e6fOP06DozAhWNBurxlpKceuqp6ZprrkmXf+iytG7Nau9XgoSH9CLhQkTOwA0oIf1IZJCAPPHkE+lL/+3vlY/hNGPGdDHnzrS5v99AgumhLQaiu1Rv1EIwnb5Jk9PUyVOt+EuaWTHEl2se4Clsl6OrY+yL+j/+x//Fxw9AgAHKC1E9U0G5fIgTZgIB5ggnmkVUCGCvqiH7z8AYR+QLymGZSblS/aewKkYYCTMgxZ70Ob36oy0ESAopDH5o34CWcQJWfMmjT0Sd4QYJGvERFxcMm7xlpneyEeWZ2wF7OPExw5lEAF/aH+VCOeGGZ8wyuW7kP9cjZUk4o21D7rkOqO/gFnuOtVj92up08003uW74KEIn7Nprr/Vp3eiX6VNJ7Vljiuo26ihLPONATxTU6bNIEnlubmlLc+Yt9JQg5jk/UE7b20EFvBQq9DNQHkgYoMc6bpjzngf3ffv2p507dqZde2L5s/0wyMjebnUZoOg9/AQRBowK98FMIlwuGI3NdZk5Vf4VYNgRQGXPc/YDEWf1UIGTSpIDo8O/7XXJI1MLDGAMatjnqSUHKicwLsfNJXe4yekKwi1AhnBZsTPsQZp9W4gGJc7Ork7H6bwQv7xYuVfPgDdABmW4deuW1L+l34cnzp071+LtR38Sq4jWrl5r0ACTJ45QeB3vFURsN8+y54svvjix9T9TVDB9BvY4XTu21wdcGiwJ0JDs1WvWpFtvvdVLoHu6JwrocGRATAPhly9YdvqFGTCAEzfxAW7Q2enu7LJOEfnKdY1EBeDpkqnKyMxfDIOyRedlypTJtoOJUPYAsdwurCckb2b+MrNkQ+YxjUgbiDBzeWPmaHBUPURZhxSPsHiHovwjPa5HwtI7QJL4PdWldoR5SJAiPtIC8AOAtk3o8Dt2lBGU044Z/vNzpCPS+26m/1E+sn3OM4XKx8u2rdvUnrd451pZ2q3LWWVEvVN+1mNyHw17lNRdKSLaKuMDlUi4XPRBgCRjAqCfFYtPP/2Up1BpdwD78847T33hIksiWc1E3DTJw2pbSDfZZJF0oOdFXydu3mnjhE27bJ/QmWbPXWAJJGak1fFXdf12UQEvhQr9DEQnhmHSuXmGATKY21xfS7vFoPmqYmfXffv09awBf3gkTiY2cdM4lP3DvPI7g0C+GMwMPmAqDFJ4lRt+DqMiv4dt2OvCPX7zoJIHufBa+dcrYVs6g3cRDIpBE7f5mfTB1GJgjS9+BkvSDsjhHWnSkaNjX45cdfJH/JQDioAMdLGKqMsSGU9NKB2OQ6PoCKJugRaYIHtOrH99Q9ou8AfQma8vRswfffSxdPvtd6QVK1fK46HUqDDiDCSlS2lE2sJOuhdf/MF0wQUXegrDS0aVDtJUXz9eYR9IHAZI+XCOEXmaMnWaJTvsB/PAgw8ZHCCBGTkIE4kyJU07tm/zCiDyylLtSZP6nB/smP669iNXq200ppu+f0s6Sv6PZtAgpk65UCcCBZgpAQZA1Cw6L5Mn9xmkeMUPdaj6yG2BgqL8SLOsfEFR11G/uRIxs76RzJhqwor8Ey9O7DYHQOz2G4Tf8B9KokyrERYAb3Q6Q+8wQMqWqS42E4zUnlxEOWWqLUMo6iXMuFOWSA03btysdv06LgwqAA7UBW5yXzX4U5/Aj5qPu6rrXWWsLimiHYe05Ijc1FWAE50uVu6tW7PWEh02WKQtIqW8+JKL1T4neyoT0AERH+HSr6E8XnB3PcucZySSABjeeyZOMnihXfCOO67asng7qICXQoV+BkKcy9QEHZsVFugt5IEdfQyYIIMAjAM7f0GNi8HKg5SZQ8xn569kwE82YyAKRc0YGPQXpN6JXwa7TKNARORBRD/CsJn82b9+xw8uNmeQqt4h3PinuwFLFR7p4WcQJXf5IECILzaykL/MKA+WQOOfMmJ3XMBFb2+vv9YAIM3NgL2QHkB5uqZTwAZmzsDLMmRSfPY553gl0YoVK9K3v/3t9Mgjjyi8Ic+5H0GvRVcsTR72DryXXnqpV05MmzbFIIU8UBCkDTE4DKRn4kR/ebJ/CucJTeydlG78xo3pxhu/mfbsHUzzBJSoW0BXSxMnRx8aXc4OM0B6wRTNkkWLzUR27RrwV+3nPvfrafasmemuu+5M//2r/5T6FDbghUEeQCKPbwAvlgCpnXzxi1+0Xg5TTNEOVI+KB8ItDCqmkOo8jUX5RfsTo5M9YWJPXG5X+iExgSI+B+R317MuS4Jk5Pq1GfIijGCOIUUhrFA6VlwARP2YEuvu6vaKMNwxnaAgTjqiXVAHXO4rKq9M9IeoH8aAEY8JSFvY3BB/lq5Qbu4zY9NphMEz4fGuSnK9HFI9ALLZ08l+kbzQpkTsLcRxGYNq0//wpX9Ie/XxRBvq7Z2YPvGJT/gUdPH2NLiPacwjHqvy1F6W/hIf6c15yPFjxpQRummkm9115y2g3Ue+cJep9vmXTQW8FCr0MxId39r8HkDGeWM1FDe52HoeMS+MCTuzBJiEBo4Q748NEIwViIg9UMkNAxNMxQMJjuSAX/zFPVPtYMkzkof87Hd+mMlZLSMcvfRzmCJ/xclNHoj9lS6qDZM0MoDhD0YJQ4uN4mKKKe9PAkDYJca/f3Cf9R6QYPCllgfzUOANhUUGTvRPCB/pDMchMNBOmzY9LV68yIDhnnvvTQ8+8ICncwgP9wc0oCL9aVQ4k8T0Fy1amM4795x0wQcuULoARCzTRt+CATiYPmmkztiNF4Vc9r/46Ysvph/84Afp6aefSd3dPalLF2CLgRkpGvW5tdoojLQDklD4ZVkzAIiN166//jpPT7HiiRJ94vHH07e+/Z3U0jYhDasNZGaD8uQbwIvMGxXuF//siwJRE8fAi+tPTtweAuAi8cAvTYg6yHVFUNGuqF+uqg6VZvyocCu3SIICHPu9pm1kpW/iRAcL8AmDo16sE9QQS2eRnLFDLnnKzMt5iuhPKnIfU/4pS8o6v3NBmNF+AMHoeaGXJUuXHUT7xw99AT+uW/nB3grRhKdn6iemJ0PfiHZIgdMuaDsH9g/G6jv1n4MCtijY0i4vuOCCNHfuHPWh7TQBxc2/2GeKMYY+DJEGwq1enEanR2bkjXZAXTNO9Qm8oPOS85zzQhhvJxXwUqjQz0DRTxmo6szAUHxDn4MvUJg7BHCB/SClMUOCQTBI6A6XiCBi0ABA5EFwTLkVAIITXI6BEXsL31Ug1bv+YEa1bmBAY/FFHHHF15yDxpL/eoEBytrpiHiDnBbZwQixU0xON0wWpsdAm5kZ5cAGV/iZKCAAaGGwxR9uDCA0aKIDAtMDIKC8iGSDFUAACPRacMfuuPfcfae/Whk4WQpMGhCNA2LaJ7R5S/2rrroqnXXWmZb4IBUiY7kMxwusBBCjfMl7nac7WIHxne98Lz39zDMumwliypQ9O9mSN+pxS3+/vmb3OO2UI8cIMIWlTHufGfQHPnjRhZYCkXfKqLW12buWfuPGb6aW1nZPHeEfBtCg/J8IvLCUFZ0Xvp4pl1z2SKZ4DkkMulLcmT5iGeyYxCXXNW4drv7GzKM9YMg7aYSiHqu6reKD8E/bQJemVmEUZeLeSb02i+mOQxWw0rPbcI7n5KHjyy3KLuqAcSHv2wIYDnAfjJ72xbvdqi7ps9RNtqNuos0dTYfov6IsrcGckga40AZeeO7ZtHLFK6PTOFP7Jqf3nXee+tA8Swnpj+Prxrn/EAfTq0TltlCln/AsPVPcGdRgl9NM2yV+3vsmT02z5sy3OW6cTvlzOKNt7ZdPBbwUKvQzEMwDHYCVK1f6ywomg2iVAZ+BHIU3gISXPDPgiLmjfAojYdDwlIAZEUwMpp5FzxlU0A01EOjOjz9eY5ATVYMOlO1jioDBIwYl3JIGDyyyDwkKpkGY58Er0+i70hni5EpSRHjyD4Mkf4AxBjLSHEuYDxqAoIDIINfR2ZEm9/U5XiQdgBfMccfpy2xFHifUjvN00JrVq9PMWbPSksVLxPzbvMPo9773vfT4Y48aHLFiiPKFCQBQOPQQRn/a6aenGz56vaekqAfACXVBfOQlD7BcVupVWtraO3zG0de//g2Xwbx588RkdtkfDBkFYaRoMB8ASWODAIcyMmvmTNcPwOziiz6YPvWpTxkE4YdlqZQVgzfKkoCur3/jxtTW0ZUOCpyYsZEe6pjBvha8jCANqhN4+VPnI6ZoKBraA6L7mGagveQ6AIDhRkFS21GnMoDx4A5G5PwrfMxzrYfbYLBcprA6hgiH8LGk3DhIEemZv9hpz1Xa8BsSO9pHMOaTjXI5ZiZOGSEtZF8gJIhMiQK0sxQrE24pS8oNpe38Hi4ofNU9/U8mro/KGIVwdLjq1Ra++51vp2eefjp94AMXeGURUpaLP3iR3dB+cx+lqlAUZrPEnEb6ZQSqmxzgFjvaIv0k+n6kKYMX3tnnJZ9tlPPDnfe3kwp4KVSohuiUZjy6eOaik+/YsdO6EXyZu1PLPFaToIQajJMBgq9UnmH2gAs6VwYnXFDtIAJhHHbHdkUzIP2F38pL9Q5lhg3YsH6F7GoHFDMtHuwfhqN0yC0McdROZJ5UDWZ5JYsHT7mLs1JgvDG9xWDGFvYAB/LL1x/z7EhTYKBIFGDClBHp8RlEegbwIEp/7bVVDm/58uVmjmxWd//993tfFb5aJ7S3Ob0wAOJjxQSrhubOmeOtzM848wzVwx7r1nilkIjpGetm5HpTHjlqAWCzaVN/+q//7UsCTCvT9BnTLT0hHUh0SBfAhLzAdLL/zo72NG3KZOcP6cOv/MqveI8Mn2a9/4DTZ2VhuQXswCCefPKp9E9f+3qa0NWtcog2o+y7rnFnIAIAULmiS4Ai73/6T3+eJk0SeDnCtFzUAXEqeNUAoCMYBOYc5EgYFKrNlDfySRm5PapeaG/UK3Fj7kBFlsbJHlBEnWegQruhjGjLWFBmU6dONUAjTi7ckhaT21A8I7HKz+91ou9QFhBlT1lGnbC6cJ8lHUgRaUeAFuoDe+oBN7xHv1SZ6k6xAV74gAnQQD2ENIuwD2pcwT19qa5ebhTWpo0b0kMPPpA2vL7eHwmc/nzZZZelU5ctdR8yVemkVsZWA8bYY6CufsIYAOGOuNxuKj+1eaQdArhx3ztpcpo5e57bFGFBuOWdPL5dVMBLoZOS6IR0vhjUmdYY28USczpnnhLhq6p/y9bRwTqmh+jkDA4EFgNZphhACCuDFkwrUMTP9jIc8xL+NXbEIMfgI7+VA+zst7rCLA82hB9XvMNw+PqWjZhTpHksohiwgmmZsNIjZUCcDHKIkMk7e9IQViyVZX+UIUtbuPN13tXd6Xt8uY2VZR7g89TRoAb4devWm/HDHNl/gnDYRAtF1w0amBlAnSKllykmqK2tNc2fN9/Kh+9733kGK3xNHqrAFEDR6VZcpBtiFRhgAtH9bbfdrjgeSS2tcWYSeSI9fFUSP3WLzoqBpsyR9rAR3lGBCXb+/eCFF3rJNTofSIAAqy5vBnXFSZ4pR1YxcWDjt7/zXUt5lDrbUx/ACZ7tXvkaJ7CLfhSM5H/9X/+Lp6QOjoR+gete9cGd6SLyaGmY/Kp2HZ5/1J2rNLeQNxLuSB9TapSrN8ZT/GZqAjNZ6kTz4Lmtvd26PyhY5/Y01qZOPiLflDt1wT2b5Tt9gAMUAdyAFsoqM/LsDn885zaqijPAp9Iy2GapMgAGYlk+9cGGkfS5lpamtF/g+ocC9+vWrhawF5BX2z5NwP+KKy5PnP/FKjiAdAY+Qaq76pkWQjw5TTktgNJoY2NpJa/53Svi1M7ow7TpPG2UCXfk+e2kAl4KnZRER81fSHRcBnAYCB2UOyJYBicGJjo8zAMgYFDBAFN15DxgEA4/OrQlIQCXpMGBnwaBGBR4q1hOTa/L73kaCL9j4IUv7fALZf954BgN19bHuSEd+mUidktf5Jf8c0f/Qg9OI3knWJha5FNAwmk6amkFUyu4iV1VOzxoskIKMEdZZkkQzy0CGigRrl6z2ntcoIzLnDyAgymWe++9Nz3//PMaqCnDQy5zAyGFQSKmTZuWLr/88nTF5R9KzTJnS3+nR3G6HqoB2LnVHzuLAlBgJjfd9D0fQMcA3tnVLfsApuSZ+gS0oNxLOpmaYr+WadOmuoxIB0uuL7v00jRnzmy53e0pIqauoowrAKjygUgTIOuxxx5L3/rWd1JzW3s6LDCLU4AHxZ/rwmUuGx8DoTD+9r8AXnoVJ+AFfZLx8pMZiDyibEl9yC0wKCgDikhMbf0eQxjLSXyBBwMmbPJMnZFC2jXgCdDW3j4hNQmEYU+eoi0odF0nI1E2lAFlTRlQflHuyf2A87SYJsrlkxl/bZnxjoTFdVvZA154pi6ou4bGJrcHpHGA9pbmVksxmWp95umnPI1ap2hR/F6wcEH60KWXePNEDjQ1YGFscrpqxh1FjxHpj7bK+BWU80H8gBcop9vPuhjbkLxA9Mf2CV0CLyF5yVTr5+2iAl4KnZREx6MjszsoX1EQjBXmhV4LYmDc0HljEKKjq2vrmS9XCIYEhXhWA4feGUAIl4Fp/HhdMKMa8IG7eAr+IgM/Q55myuHYPPwH04PCjh9/pMvAKIfND3/6y/5rghcRN3mINwMXmSGyxh+ghUGbcC2BUXr2aqBGLE2emEJBURUwxUDLIMfACMMDVLCSZ99+Vhu1pO3btqUXX3wxNQp4nHXmmRpwZ6UXXngh3Xbbbd7WH+kH00ZHDh9UnoJReNpJ5f2hD33IBygCYJBSHBDQQK+Ech8e4cyi6qtVAIJpGJ85pHeOCvja175mqQvSHUAWGwWiwEs5wHCQuHAIHV+5nLU0Y/oMK+Vu374tzZ03N332M59J51/wfrnbm/bs2av0ocTaoDRWIJW6pHypYzEK0tCmr+HHHn0sffPbAi+t7H8SdWYGhb+qyKkKMA9gCGDzN//5b6wQi+TFU1/Ke5bmuR7HRZwRX5i57kWWVBF+9f4Gwi3h6Oc2qATQJgxKFBh+AXtMpTmd8oIUgDgyo82X03KSEfULmKZtUwaUCW2W84jWrFnjfsKFPWMG/QU3UDaDrBdE+ate3Y9VxgqQP8XB9DIfTPWKK3Z7ZpqR5c/33nN32tK/Of2rT3w89fX2CmQfSGefc5Y/JgDg1oNBqqbwSWseg6JdjtWhxwt/SB1HuK3qFXdQ9ps/5MgfUtWOrp4ieSlU6J1CdO7cWSEGHDaZY2BA6sKXBx00D1AMEgz4KE7CEPBbyxRi4FBYDk6Dk4ALdtW4YHPPN+vuQSwcVu65BbAgHD/Loy/YngOJOHSzPeTBJIxEYwNXzlO+Q4QDOIIZR34IP6Qq+LOZ4kFHhXQO7h00A2dPFa/yaW830ItBGr9RZvghHY5bv32D+3xuC9Ms8+bPS5P7Jnva7bbb7khPPhkn2xIGjIHBurlRaVB86FksXbo0XXbpZWnJKUscJuCKsnU5qMxCsiPAwGAsc8LhS/WVV1ame+65x0q/ANAOhcVU0IH9iNQbBGAGLTnKy6EBSB0T2mKljxgAcV9y8UXeLwYgg6I1gILysS6C2gB1TbnE9FZVT7qwa0aapC/k73z3uwIv7XKnMhG484Z9oBWR6xz3FcMinP/81/+5Zql0SP9wkxW7qRvyjl+D51ydNAl+qoc3I/wFo6R4g5lFmo9YygIw9MnVahMGTsoD5Z3jI1+4h3g/GSnKK+qAsQGpHgA4SyWoR/oGbo7vC7n8DqsIRw6pf+ndOi60J9evLGTfLNBCxVr3Rf6ee/ZZL7tnuqi7qzN97td/LS1etFDtvMntBIkLbdxjCe2r6nfETfuwuSjXt81FPEebqkCK4reV/uU6Jw+kiWXzedzDvLN7YppdwEuhQu8MouPRMfmaYvv69evX+6ucju3OXXX27A7wwle2+ysdl85fMQ/cwUxk4U4dIAeHMbAQhjt61dPsr6bX4cbvGDuCMYYxyniyG0juiM9fW7L3r4ojvIfbHBZEuhjYcrr5wiPdiKthlgxMXCggUh6ZyaNAy2DJID0KHjSwxdRDbDbX2tZq/ZgXX3rJUgV295w9Z47DYK+WuwUsXnl5hZlzlm5xIRmpH3c4zZo5PX3o8svT+973vtTW1m470mbJkMrSU0V6N1isU571Y1t+gObNN9+SfvTIj52+WAkUgy57szA1hEh+27YdNkdKhIIxe7YgOVINpw9ddln68NVXW+kYsEYajyhjpAE/DOT1qvsMZikjyp70QITZJD+PPf5Y+t5NN6WW1glpRO3EblVvdqdqCL2hZGbGElbC+Ou//ivrmMRSacCLykbP+KFsMTNgUvwwu1znno7iuarTExFthvQTNxI1ptX4up8woSN1iSlyjyXm2FOfKFwfG1YOI7fFk4nIN+2dege0sIEiHzW0D9oXdcQzxDPXWB9UoYp8Hy8goLpC8Z16s3RVdWlQLjcULdOiSDefeOLJ9OrKFWpv49UnZqQbbrg+LZg3120Z6R7t2VUvn8TAwYkZ8OqfzWL8cUvROwBFd9nlNPKe+1eWKtOvDGKV5zw+YA+oxb6zu8c77BbwUqjQO4Do9AMDu8RwX9RXzj6ZBGPiPJs8EEAGDurQTJHATDFnR1ncwPizm5DCVIADhqJBBgCTwQXkIYVOz3sVQe0zfvzsASUYEwOKFfqqgQL/DC4Ox4NgDJq2d5zV15jsainH66W7cgPosORDX3QwfqQSO3fuMHhhULMehIAE4mkPkPp5Az7lCVEyoI8w0Zl4/oXn08svvZwWLlyYTjllqaUqL7/ycvrqV7+aHn/sMb8zlYQODAMn8SHFobwvuvD96ZOf/IQVeXfv3uvsk2coBkcG/Go3UksI2MK/Mz3yyI/S//F//J8a2EfSooWL0gGBlFx8KOGyYR4SH/aRqW+IQXf6tGlWxN22fZvT/ad/+idptoAWy70R1XPuEquPGpRe17fyC/Oifim3uFdTbOgL6A54gfk88cTj6aabv2/Jy7DShMSF/Ln+VUdZKXM0f3r4q7/6q9TdE6dKQ2wKR51A3ndD9QiYgcxgFDdpyPUP5bI6noifNAJSSQeb+vVO7LUuUjCpANasuqJeFKDaUug4YM9FvXPPcZ0MRP1k2qXx4RW1Y089qtypR5okbYGdmuN4DNpCSOQMmi1Fiw8OqL6xOdWpXo+qHOmrlCT1R0TUOwri69et9VJ+2mu76ueDF16QfvM3f8Nud+8akFuAh+oSEK9w0KNBV4a2Gf0ZxV9AcoxTTqvebSbK4AV31C9TsYTBhwRuM3ixO4XvtoB/6l6/DoGXOQW8FCr0iyE6Ep0L5si9dsClI+bBhAGGTrnqtdVp46ZNMUBXX1JZmY4O+waqjIhn7Iov6qwzYtBS+Y5OFe5GR8ScJsxOQAxOniqBMYpCguMnD1K8eACFIeqHO+7+U5jxVc4gZO+RJ6QXMshKmkf0zhc37iknlGU5o4flx8yrc+ozei0ADJ9yrbjyIGhApWcGvrzR3OrVq12eixYtSn2TJ6fNm7Z46TO6LUgyGCBZnQOQo06alA7CPuWUxT7pdvnpyz2YuuyVdoj0kwXXmR4Y9FtaWm2/Zu3aaj+Yx6wEjCQFhkGZwFAAH3vEbAYH91cMuE5ArNX6OgSGns2HPnR5uvqqqxyHxj/Xl0/5lnvKdHx9DOSmo1WdiSg/yiDXNRflgcLuXXffle65+149T1C8amcCPtQHR0QAILLUjl2Ymc6iXP7iL/7CZU0CAGbWYVD4UeXc9eS/SuKDWRW/QaviPlylk3YMM3N7Vh6OHD5qXSCYEnvJTBRwgWr7xXuPkGZU9VYRJi7BquxoE9FXqjFi1Dllyv+jlmjQztbrMjjQL0srIOsluQ+qPcietstFW2Snadyx4g1FXcwVmXWvvbWC6oMwuWhrzz33jNsy7ZDlz9dfd206+8zT/E67Jl6IuqbNODv6F21w7ILoH7S56PdjCvSZeMbOY1zVjkaJZ5lhl6WMhEH5sPx/wcKYyg2n0ZeP8f82UAEvhd4zRGcywxMF4wrFM+50WpgtUw3b0GvRFzlmdEKkDnRMruMlFplgFiciM1zGQMWdO3MeFBneaju4zd+CCAvGQxpwmwcZiDvhkWYuiLwxkNa6C9IgDQhSmtFhgYEND2sg1KBMHpk+YGCyxAEFVg2SDLZINBggvVU8gyDTCEoTkhYkAjBenpHOoNCM5Gna1KneHZdyfeRHP0p33nFX2ry5P9KvJJEqnlGyJcwFC+anK6+4PJ199lmuF5Rx8xw7Ei3MAFzkiTSjl8F0EHo0t3z/lvT4E0+4bFntBLgjH5QHOi1MdzHwUp/YkR/0Wg4fOWjJzwUXnJ+uuupqn+QMc6AscE8qeY72QPDKt+vNqdcVpFKunrALyQZlZPBy113p7nvuTe1tHcqLAN8hgQv9YCZIUQxeKE5FwDQAEo+//S9/m5qrc5QIC2BEGdS2JaKEebpdE72MDZoqNzAowGStO/JBfIA7pqWQcuGWMnY471Gih0TdQFFXAIxMUb8BYsJcV1WO7iNqCxs2bnRb5gRxpkBxRX9EAhn9bUynJUvCUCL3s8KAqPf4oGF7AdoeB7qiqD2k9hHHYmzWh9OTTz6eVq5Y4T53/vvflz75yU+mbrXr/ftjs0Tiwa3TW90z8Z4v3EHYu35lxgdH9peJ9kGa0B87nrI7/Ec+q9WY+k3o7PLZRvQRCLfHh/12UAEvhd4zRCdGPE/Hiz0sQhGOzcU4Z4SL6Q4GFgZ8cAqMG4bJdAArUPBLhz2ePBhUzzzYDQYK40SdmAHsGDuci6HipXYQqqVgSAxEDEIxEBFPHpwIE2bJ/dgwIiEwLEtjFI6nC8w09VWoL0CADNISGCSSFubxAS6AA6QtKA5SDgAUxyf36EEgeWFrfhg0X5GrX3stvfbaaoGQBWnZsmXeQO6HDzxgsfdPX/ipmSlfoAAJpkFYJTQ0tN9hXX/ddZ7H7+7uTDvEIFxPiotzdBgYufhaDSnFUYGMqWbm3/7Wt9I3v/kt55nzhWAy6BAwCFN/e/ewMmiPARZghGWm7A9DOfVv6U/vf/956Vd/9dPprLPOchsg3729cSAi5UNcVBP59lc14MWl6tqKe/xRofzzRVkzwFOGd919tyUv7e0BXthF1/UEgqt8UP/sn4G/TjGEv/mbv3GctFXKIk4qx1+QY6fNKN+ZWWTggqMIP6REbityQ3oAexw8OaGdlWFjUiTqBiLP70Wi5qKkId6i7KHch4IBV9MsuuOCqRYkj4AWztJiLyHAJdPJ7oGqQ/S/6Hv0h6wbFP0lgDfSGsD82DQrHyMA1/q0Z/cuN5teAWmkm5yp9eADP/QxFOecc0767Gc/k5YtPcWgf0hxNzWFjhdE3ZFGwsttIJuPPjOQQXKIGyKrTGTHeGGrAC35paIcRib8k5/clrh3dHanufMXVWUXfmrT8nZRAS+F3hPExk7ueO70Gsw16NMJ94pRsR09zJolr9E5Q1E1z/MyqGOGSNcD+5v1iGoUYWgY67c2oNfXjgmVm8oOkmUwIh5rXY6RmVLlIUt0oDyImBwXYcU7g5wHkzDUc/7iCibFVxSePKDK7e5du8TodzvPTFlwMaXECcYM4kgFAHIMVOiTwPyY5unv3yLQ8ppXHS3VQNvTM9FLoe+888704IMPWJKBEi1lyN4p6IHgl/flpy330ueFAjyUC/ooSHpID/oo1Bkgk3ySbqaIAATPaJD/7ne/l15/fYOne1DmBaBECaW0Y+cO6+mw+R1Tf8Q3uW+S92xhLxemiq688sr0/gveZ7AAiCUOvnRR5I3TohWa/jJwjHKNGKKI+Vd9qcqey+UNyBHQYFVSS0tbuvuue9I9lrxMUJ1QZxUIkXcACSAM0IxOFWBy8pTJ6a//6q8rME34MIT42g3gSh2ovcgOJujpP7kh7rj8FgxTAJF65s4qIsAjzJfw3J5JhsKgrYy2o/cgqUb0n4unY/M5lm+VQ1V2uUyQ6rE9Au3dHz2VW/ZWQTKGFDOUY+vlu1LC1hP+Cccxqp6oZ8A3QIc6oq0yFQmYrq8fn1a9+mp6+qmnPCXVqX7HFBHbAiCZ4VRoFHJ5zh9eVLLBqeJzHMRXmbsNkMiKauvVbjJV7rI9dn7i/bgwINpibjNZF4rVRvMKeClU6BdFMajQweh8bCTFJnMMCgAYd1RdSFxww6AAo4DywKMnM4oTkowBCHR3wnHH9R/dh4FM/z0ghPNRN1DlN77CuSrz42jUPzfd/ZXNwKXRFr+1AxSOyKe/umSMpAUwFgNoiJxznOQTcLFXoAWGC3MDtMDs8Is7l4nCh4kz4DKIce3cOeCVWDxzJhB7gzAtg07LQw8/JLt1qa01DmIEHKCcSzZR9mXV0eVXXJ5OE3ghTnQ9KC9LABQPYYLRSEGAiiYDjldfXZV+8IPb0gsv/NRpAbSELtCR6it5r1dnxEZzAlgKpKNjQpoyebLCjYGXnXE//OEPe9pk6/atPhsJkBZgLr7AAxAERdHyL9fNG+vITEQXdhm8oBzcnMHL3fel9gkdrhOWNru+dHFIHnn2V7uYGwBm2tRp6W/+9m9CQVp1B8Oi7Gl/AVwqnQxik7lXBomoK8owty/8INUC3KH8mc+PIg2ychlD2f2xbei9R1E6x+aRmsx5pw7o7/Sd/QK9AHIkLEhe4oNBbVFljdQSj546tf/QFWGpO2CGMHnP4RIeUkvc+Vn++QhoEuDZu2eXpxUffPBBT0UBqD/7mV9N89WfaI9IAvl4QMeFdmIQrfCpW9rBWNoDOOcLoj0w5Yg72k5tXqFad0hfSVvWn6ulHCbh4AZCikkeO7sEXhYU8FKo0C+IYiChw6GPAXCByUIZpJhZqtN5IFA3Z2Dimc6PbggjRh6s3ooYHqu/0Q4c4foJQ7s5XpybJS+j5scRImb71ZUHmhhsAFvhH3vscIO0STcTX+u4RXLC4AuIYLBheSf6IP4yb25MHRPaLdWwyNsMlbAQgccSZsKAAbJfy2urNbALcMybOzdNnjzFeXrggQe8EdzOHTsMPJiiwA0SBBgoJQtguPqqq9NVV13p8GNVFoM/OgIMelFuWcIAAOjr63MZ3XjjNwUE7lbaGwxaKK+QijUonn1p67ZtVoqkbgEuSHBmTJ9u/Zb+zZsMlH79134tzZkzx0yBfKqgnK9g5DCBGJwz8wkAGPXn8q4GaUilXT2EOwAL5QCjIG9DwwdUrm1iTveme+65L03geAC5hcG5Pem5ta3F7g8ciBVafJFPV5r/9m//1hIiGB1MlfT4EgiFkZI28sh0nVJnppvBdbSRo2na9GkGfd3dXTYzEHdeq+XVcs+V/ZyMRK7Zn4mypW8AWnfs2J7WrFnrNsKYkUG+HeuZMqMOqpJTGz3oPkVrYFsAyhIwjHv6I27pP7QdziPqUr9guvXRHz+SHnn4wbTilVc85fl7v/d76frrr/PqNtoB5HQpbkXr9PFOfVsPSs+uV6UH4EydH1+P9D36Mlete9pnbd3TtokHyRDtJFMOD/du19W786N2xFLpMm1UqNDPSLmD5E5Y+85z7ji8wyVYnsrXOKtfYGwMNP6CUufjjnue6dx0YsKUZw9OhMTXDm6wz2Q3onBVQ3rNZk6PfjAKBeAwGQByOjPQ4N2DUmXOlSmbE19cEVYGLDB5Bh3STczB9JXOI3HHD5vJMf2CHdMimG3dttXAhXl49FqamlCIjS3IFbDFwqGcO15fhKHYzMUOouvXv+7lxMtOWWLmiFj929/+dvrJoz9xmgFBxEG6SCeAiHwvOWVR+u3f/u1q6fMup1/GTjd1woAIUCT35If0IM159tln0z/8w5fT+nXrxdhnxBSW0gRRHnHG1E5/nR45GvUH4GGpM6uVhg8OpV/7tc+maz7yEUvdDo3EdMyQmE5zSxzgSBlniueoh6iLmlquHlzGcoNUhEzAUrxHC/a6YD6Ud3NTa/q//q//R2W2wXomtEUUdmE+uIOZETrREBfMZuasmenP//zPPeVFmcMYiAemgtu8gsrtRT+AKgzSQFvuyT/McBLSpkKm3Icgypl3m/HMOKC6ox0hbWHTudhXR2C0cjvWl+JjB8Iv5tib+av8kTTyDphwvekOqD1CO1HdccL6Vn08ffMbN6aXX/pp2rdvTzrj9NPTX/7lX6Y5s2dbt0beFe+YZBWK9EacmaJtBvGcL/2zO/zTnpCi0i7II2Y8H++HizzkjyHeHSdtkzaW8283bIwYOwVzqvTc+QudV+yd98rv20kFvBR6R1PudNGxxzoLz7njcvAfS59ZIkunDMDClEqIeumYDCoKzX78Ba3faJiMBfFPAwKdMwAD8TquqnPzVxnYDIqw/RDmhKkf5rmjQ9k9hF0WUWPtNFX5zM95wLR77JTmAEIRB+k7cgg/MVjHF1MMPEhbkFIQFgq1cQ4RyoWIshmgIi6Hr4s7wTCwb9y40dMY8xcs8EFwLBd94MEH0gMPPOgBn/CcHn2DEibxs9ncgvkL0mWXXZrOOedMM1h0SjKT9deop0bEzJV+Bl30WvhyfX39+nTzzTelZ595NrW2cYJ0bFJHfpG4ZMkR0yt8MZPkzu5OSy5chgrrfe8/L117zUe8Wy3xwkhQxkX0H3vykE9KKcqTMHjOgJXnKAosuCgf3PCPAucWdRDTRrF6inwBuu64405vhDept0/pHVQ4McgDQDyVJ7CFX+qUr2N0K2bMmJH+4i/+XPmKg/U8lWFgxJez/ApYkgb8BEXaYFJMwbGKijIka4XGiPrMEkWmeCg/2t0BAc21a9am9a+vd11Q4fsFei3tVLnSL7xHigPBWu1DZcs44jZc1cMhPVNfh1SH7MFjPTm1S+x7eroMRh95+OF0zz13W/dr2dIl6Ybrr00fvOgi91F2rmaMon2SNsKONhhxOt7qPd8z1bqFeObKY0WtX56ze9u5/eTxLZ5pyzk0yoR0QUifabf0Q9ph3+Spo6uNCDPHk8N5u6iAl0LvOModg07Jc+6QEOZ0Ir56UcJF2rJ7zx6BmGr1iTpbiF5DygIjoONm6QtmUAxg/PnfKDHQ4WbUnaPWv9pekv2Jwpj/MqkJJ6eb9Ga3kEzDrLoAEkxjxAqbED87bnnBf7Z3mmSXJTk4ODyCmPuomTR2HF7IV93hwyMVg5uoeyyTzfHlbDhFesf/gQNDVooFIMyfP9+6Kl76/Mgj6Y7bbvOW/mwpj3NWZBEKX63ocsybNzddeskl6ayzz/bUzdCBfUorLqi/WHpO+urGx5Je6o7pJRQg2U7/rjvvNFhCzO6vY+WJr0cGTUAL4IW6Ozh80MBmuqdJGqyjcLq+Zm+44Ya0aNEC+8lxkc99+wetaEyGKcMqx85D7XPY5fKhzuMZN2EP84ppJsInfX19k71NPNNnnNfU2tKWWvU1DkDT2K5B/5DKNI4mODJO9eU4AogEeDlYgZe/cJlTJhB5oP1F/dJWwzzaZJ3BCtNhhGFlXtoDGSw0StSdQTJ1qWcY8fYd271DLhsWIt0CBCMtaUQZF2lJVYSMH5aa6jmPA4AVT8Opjihz7kw1eTWfomAcmiDQ3dnVkV5+6aX06E9+kl786Qtpn/ri9dffkH7lk59IU6b0eQqJ6VGqljbqela74PeWJA/ZRZ42gtxeMdNFOjNQ8dgh4t3Pdi+XleMMXnAb7TLCJ2y3+8oOMMaqPj4OJ0+ZNgpe8liS4+L+dlEBL4XeceSOWXUQOrk7VY05TI0D0pAE0Lm8UuVwzEuzVT1Lgr05FKTWTRgod/I1wRQIAAegkMnh+y+kF3RKm+FXnVqOR+3Dw4mfPRTJrQcFzKswTJW7nAfnzYwxBp3M4PgSJLRasOVpFj1jxsAbX/8hbYFBMk2Gjg8Daext0m0Gx5cUX4msmvDScAZLRcNgzIGJhInkgyWaU6dOMxjA7Mc//nH61re+5bOCmlVehLlr14DT3dzCxnVHLJW5+JKLrBTL9BJ6LyhHd3S0O23Eb+YrPwAzKxQLwKAP89jjj6f/7//+v6ddu3elJYuWOL8c6EjcJJCTnMmP8wtAEwGoYPg7dmwTE29Kn/v1z6UPfvBCSy4Ip2dijyUagBqWXo8BF76ax3RYXCcVxeBbgYsaczM/UUhXYtMuEtnc2Jwmdk9Md911d/q7v/uSp7tYzs3GeHylwhwbGpr8Je54G/SlitTFoVFfrL6K3YmZVmOHXcCLC0CUgRvTfqQtgxnSvHDhomo1V+xNQ7poC3VKY6ExoqysI6Q6B2Rs2bI1rVm92krS9COWQdfpDvi2mcqa+qe+DFJVWer9bnuWyqhuaJb0JcIGlDJtRPkzTYSiOP3xrrvuTD+8736vpFu8cGH6whc+75PJ0a3ZvWeXxyQUemkn1H8eY2rbI0QfyGbuDzVkwIO9nj29WPknTO6MB3pwXmrJdnIf7T3GVNzkuLiOjwu3pDMkL4CX0HnJfrjn8N4uKuCl0DuS6CC5E9Jp6HAZtDC9QcfCDRTiYX3RqhPv2b07Dch+v5gaA1CnBnz0PZjaoKPBWDy1xGcTI1Vu/fR7/XLnzINWBjnYjVLlNj9D7sT+iwBr3WPiIKv0Qpa0MICEbTXwRDgwLfLO4AA4gTDztAkvuCU+Efn1mSsaaNnevr291XmjzHDmMtSdsELxNZjdtq1bDf7a2tvSjOkzBVC6rQvw/e9/Pz0ucIHeiOfRFU6WInBNEDg55ZQl6YorLk/Lly9XuOPiLKRDsdX5sIAUdYXfgweVD+UPiQFn62zcuEnh35oeevhhS4bY+RXlR4rgqJg8Yvzt27Z7KXeue05dZvkvqzSampvSeeecna668nIDGVYdkScYECCT/HqfGgVoqYSYkVfyCBRE0fvfWBmKKG9L5+S+MrIZ4CukYYcNhABi69asTTd976b01FPPGLRQZmwdzy7FLHHlFOqG+gDOlD9f2GytaukZoFhxEC4gk7z/9X/+a08zOE79mDaifkiH86Mf+hN9k/pSx4ROiinypDCofuIYURsvFOS+q3YOiN2xc6f1tADV9B3Kio8b2kdI+EJSe1DtlnKm6rnoh4Dd/BGDpMM9TZaEz/J6TiWnjnC3dUt/uuWW76dnn37aexr9q49/PP3aZz/rs7JCCgoICvBMWuhDhEP7ZjwgDhPh83ERjybc1VL2B9GWMqAKMJslzbTnagwT5TB4t53jCLPsbtQOt1x6J3zAHW2yb8r0NGfegqrdjYEWl0+VnreDCngp9I6j3LFzp6JzMj3EBmMw6tx5cBdfIykdGB5JzzzzjMX5mDHNgBtWcjBInSZGu3ixvvIdppi4zP3VjWd6gPo6Q1gWq5qyeZWOqs+PuoUYCEKiEcyGASXSJzvyUb3jl7CdbpiifuGeLyLdFQeDLlIRiMGIKMgjfrgIB3cAN5Z3DuwcsBIs0ylsItfU3KgBVfHJL+F4S369M43BwMOmcSi9ciwC57JMFwCY2NNjM/Q2fnj/D713CoMyUirSf+TwiIEHgIiN6a7+8NXprLPOdLmyEob0YUc8DIyUCiJnGD8Mv6u7R4P4jvTd731XTP9pAcxDSusED+LUEwU1JAbOQM9uuzB2wiVPLM2mKpCsnH/++9MN11/vfVyUKJelp2kUYyixsmcL5VpVE+lR2GzLHuwh6sv/q/qFsciJX0lrlC9lrrLWA3nr6um0LtX3vnezyud+hTU+tba2yy91grREQK21MU3q600bXt/gdBCj66uOuogvXsLFPYSUCWnV3/7N35qhuX3pR3m47OWeVVyAbusGqe4sxVLqc9+A/KzwCwVRHrsEul9d9ZolWowVAUJjCsinfatvcGEG4GbDOeqINkt/pN59ECcK06ovWhT9ic3ooEMHh9Q226wkft+993qPo72K86wzz0y//Zu/mU4//TT3TY7hUE932wTMkg4AE9IcwBRxuQ1Tr2qreg1goUijdmkvVYMR5WfyCNEG8niAXb6y3YnMuePfY0v1Tjr4w7zWLeCFKWLGqslTp/lgRvIA5bBdplV63g4q4KXQL5w8LNDg+dE5aHHuM9EJeIboCDzyZYQTxOgwNfYZYTqAjp7DoKMjLmVQgYHff/8D6Yknn0iTeieJubMEMaZUYIYMVITzG7/xGz48EGXW4xu9VwxoMPGAkBOUibQq/X4g7pwGskLnlR3b5tsbZrLInZovPQyzNAVH5As3La0tGhBi2oelyY2N9f6CJ2+kmSiRHkHkhQGFAZk5fKQhHLSHBAPFV6Y4kEzEihVWEnFS8VEzeFYCeU8LBvXBvd7Of/bsOWaI991zb/rqV//J0zRMBfFlD1gEnJj5ijci2eAcInbHBVQgASM+iHwxzUFclBGgiXJhH5luAZf77rsv/df/+t8soVi8ZImZtYrZoI18suR608ZN8gObiDqdP39emjlzRlqx4hUrG//+7/9+Ovvss9PArp0u5zzlRTzcKagYkANI1lafJVoinAGyAFWUEfVMeVK+hEF+MIvwCDh5Ku0nP3k0/W//2/9H+Tyi8p7kMhseip15qc/X17+e6hvr0vXXXyvw/KzLOk9ZVlF70EcCFEwL8LI/LVJZ/OEf/oHqEbAWzIw6RnrIfjUcpAjYhPmRJuLFr5J10hDtifZAueT+RD81IFTdAfaRimGGPfsDrdNYgT/qh4YQz5Wei8wAD7Q1S+wULuAPv7QfzoOijKkPL3VXaR8YYvPFDj/jf2rfxLR9a3+6+eabvW0A7et3vvCF9JnPftZ+OXIDoj4JB0OPc1XN4Z40+U31yt1tefRdT+HU5PZYkd3VvBMO4WFSax7hjMWLnfuH7i6Pqrx4Duc14eqGMRIn8ovkZeKkyWnBolPcP2rJ+cj+3gYq4KXQL5xg8IYEfGHonsnSCneAsWcuvoZ27IwpIp9XMzwcnVF26KvYnToSHdADkOy+f8stBjlTpkyxchxfRwADgM3ArgHv/cIur0vENGDOdGA81nZwLgbFmiS6M/MefXSsk1c3pYWLQUSMD8f64702bNLJQBB+CSyWDfPlFcycqRUBGYEF0sYggXvE0wzU5BEQxlSOt90XWEEsjf4OdgANJcBxUY4M+ByqWC/mB4hhbxSkNCxvnjlzZmoX4Hn++RfS92/+fnrqyaedPubk850wmArpmdidlp56istt/vwFBoWAIAZCpEWUL27JlstP+QBAsSspCsA3fvOb6bFHH/PKoLyKyFMousjH9u3b9NW613mHwSBtYDqIZc/U85VXXZk+9rGPpjaBPKaUAFZmPpSry5L8MiDHNFmtGeR6sFvyk83DDnMkPACLDHwMaHRRvrSZb3z9RoGv+9O0aTOslItSOAyTFU3oU6DfABBhaomzafhCVywe+InL+2k4DQ4+yk2P+9U+F6od/u7v/m4wSpiELgAfU2S0DeqVMI7Ny8lFOf+URazsiWXJAHLAHH2CcuHDhDbOuURH1bcobE8bUq5ybwavcChjWbgd5RU11Blm0QYA39F/fJioKgsJJe2EXXJZxfbjhx9Ijzz0gFflnYm05bd+K5151lnut6QnE/VK2og7twcIM9ek7tks5zM/11Lt+/F2tW3iRO7oz7Rn7sQa7qN9HkN6xw+mkb6QCrldCsT1TOpLCwt4KXQyEh+yvo/+c39xZ6Dx00mC+RxJ/Zv705Zt280cYAx0EAYAgw37UyejM8qMTgnB0DYInKBLAeCxmcKDGcBI+YqFaS9evHg0ztEOHP3ZRPe17kO8+j3b8QVsqt6zI8IL4CKrKkzSi31mSpjjDsmRQZcGRpQ7MeNLHYkAeTlSfakxeDLlQx4YBJF0MDDiHgbPFBFSERQQsWcQtrSlGuBhyLjdsmVb2rljp8zqnf/urq60YcPr6Y477kg/+dFP0u5du+WOASgkO2SOuDsFcpadujRddNEH0/LTT7M0iPjJR55SopzwG0qmR9KEjgkGUwCS235wm/eDQULR3dOjLAVQsJKkwmEKcGBgp8sGO9LFWUOkAeVXpqVu+OgNXsmEPwAeX9jky+WpMiLNFHPcQ4fJUhdTvsuBnikjCL8wvdzWsCcPTKvBnNgVmCkddBj4qqaOenv7rBTsfVbkl7pgmg0JGKC6Fd2diT0+oLJdZUBaIcoKiRRxWRqmNDZ5autoOiiGsGz58vT5z3/e7sk34I59azJoyYS/k5XIu9uI7i4RFQXPLEWnjBgjaEurVr2WhkfYOE5u1Djwk6d5xhi4LOXA7cc2vKoNyA6pGNNE9XX6ENCz3Qm8cyecDtXNE088lh555OG05tUVqu9uA/qPfOQjqbOjw6sdAe45faQt+jDtKxh+bZ1C2Z1Jdx4DPhxLtf4MQpz/uOyvsqt1l5+zu5hCHhtDjye7txf9w49+Pwt4ebupgJdCv3CCudMZ6GzuHLogRJL56529WmC0SEgYDGC4MCs6EgwMsJHDobPlMAiTBsygD2N85umnLTqGybAklwP65ooJoiAJaOCry19jYionIsKNDqH//os3AyUeq3hz/PznOfzpRx4h3exHDmBg2POO+BrFQRgb0hEPEpWIepz8IqaGUTONsWPHDivVMmiwSgfgoiIwMX2CsiZhO5UKOwMXFFk3bdps5jpnzjyBgPk+xfb+++9Lt99+m3WHUC40mFKAMPeonyNWxr388g+l89//fq+k2CGQQbqpJ9KEuJ284NdLn3WfOLHXU18PPPhg+qev/pPSI0DS3eU8QgzklAPxIgGKchgx2Jk/f67SPd5SJaQun/nMr6YzzjhTbmL6CsoAq7Y8eQ9zV4rDGAMvtQQjCWld6OGEdIWBmfRRFyjeMjXw0EMPpi9/+R/NEHsnTXIclE1Lc0vauydWrjDtxjEHCtD6QtNnTHM77hBQbhPoI6/UMaAGQAnjoO3W0XaVftxO6OhMV374I16phXvaKdIW6i4DrdE2Jb/4e6cxjl8GkXfXtZ49faZ7TL8d9kcKB4SiVEoZ0p/dNvUz0/XHRpQfZR6Hf8b+L7QVngPIVB8y+rM+itoc/QY3ABP6483f+256/vnn5f5Q+shVV6SPf+yjafbs2fGBpXGLuiOd6KIRJnVVW3/RRiM/tXfsIYAPPz/LLptD2S3ksAm3agu14dS6y8/o8dBH/az0MT7i1ruJi3KcJj3md8qwFrxMBLwsXjqW3uPS+HZRAS+FfilkxiPKzCN3MBgUTI3BiMEgiI4RnQN/uM3TMnQoOg6/6i/cyQ2ddaJACoMV4n2mMJg24auKAQ4GGxIGUdXhnQrS4jCDImWy00NOp+PMDkS58+Z8+V1OSUf4UQfXb1TRT2licANAse09ZcAAwWobD75idIAHtrvPS59xj04Lyp0wNgbUnAYPLHLPoAz4gzkS/+b+zT6PqKe7x8trSQuKspz6/PzzzxnksKcK5Q5T54sfNz093ekDH/hAuuLKy9PMGdM9KAOcYLTESxrJFuWHEqkVVVuaPeA//9wLPovo0UcfFQCZWYXJBoKhe4SOEWJ24qQ8YA5IxWbMnKEBFelaSldeeUX66Ec/5l1jAZ4GdLJwsVZl6q9iv/tm+5CgRLuKcq8KqCLs2fcGc+wBOLSlCHucQEunV/zceOONysMPUqeAxNSp071aBWZI3gHV6OZQL6Q9pt9mKA/tnrKYpDY3fZr8COjl9tUkcGhmJiZKukkVdn2qy74pU9PZ577Pp1yz3BqwSvsgfaQp8jFG2fxkIxguoATpFHfKjyX7mzdvcblvV51EParfHY6xoUGAOEtqrbcFyKbt6h0wSZ1Gm8kg54jBB3WAHhnuWvXMqqJ1a9ekW2+9Ja145WX1wd70hc9/IV2t/sERHGw2h6STDxAr/qr+Mmgxuc4AGdUYw5PM8gVlt7VmUG1d15ofM9bUEO+17vIz6SFd2POxw0Z9mFGucmR3dql/DqNKKePWm4EXrjdLxy+bCngp9Aun2gZP56FTwMhYGYR0Af2H3MnoUGYwSAX0o0PZTH4sfakGCIdHp9OA5J8HppjawT36BvmrA7focvAeUzpyL6bEF09IHOxM5nGTd/47HOxIQ0gpajpr9ZjF0QFaxoAW6SQezMgb7mCEgBCC5SuOdDkOkSUpGhRh3JQHgynSFk8RKW8MOLh3GRAuaWLFlH6ka/fArrRt6zaBn7Y0ddq01N3VnV55ZYUZ8tNPP+0w2e8FiQvMgPBgBq2tzensc85Ol1xycVq2bJnSNeLN7hjEm5vRRaHeQvwNM4BJUDfEA+C888670k9+8pgZxOS+PjmtJAzKH9dWpYmlz5QBoniWcluvQ4M+m2Cdfvqy9OEPX51OOWWpmQJp48sShs90DukkfwyiKA6Tjsx8qI4owzEpTNQRV9QfF1IejGEmuEXi4hOqDwylBx98ON1yy61uh0zbEN7+oYMqm0YDuK1b+4NRKa2cDYWuEUBvWIwO3ZhLLrk0XXrpJemxxx5L9917X+oQ+HE81Cl1rXgbmd5T+bC6i70/5s5fkBYsWuI6jvSN5TO3h3zHrNb8ZCLVrEEL/RSgvW5d7EmElNZ7ubiujxsvKCeb88EQZ3VRHxjZHgu5oR9R14AdJIrsA8WHBVOAW/UBcPfdd6Vnn3lGce1JF15wgZVy5y+Y78NN2Z6AuqMtxocHHw5qe9wdvJ79ROoiXoixBjvihaIty4X/oq1m80zZDKp9hmrbxonckXfaIPFFWeX+Eva1/hxWPDi9JwIvOV05/VAO9+2gAl4K/dyIxp0BRG7o0UH8aABAD2G/j9WrXwtJRNWxuDN4YO8vFvkxsDieCKvqL7njQe7ElWX0p3BEuKSFK3c6mB+D12jHq8Lknc5KOAyYvAOKEDHj1PtEoBwrxzBL7PPKoQgm/CFdIK+xT0IomcLoIN4j7hhcsvia6Yjt27ZaeRXJBbowIW3h69FeHY/TRLwCBuy5sqmSWjU1MAUz36CFaQ/0WjjgMPYeaRATIP8sKR6TAsyZOyd95CNXp3POOcdlMzISUiCkOQxgnhZy3gMYsmSanXYJ71vf+na69Qe3OZ9MZ+V6rxsX+ekXA9jNKdZKM4cXEueiRQs16Dfpi3mbN5379Kc/nZYvXyYGwsZrfB0D8MI/5W4JCT6r+gkGRbvI9a7y1iNlSRrJA++57WFOWLkN0N7Y94cpnZdffiV96e++lDZu2uwTp5mKyJ7Yn6Z/yxZPZaGkCagCtMyZNTPt38dBfsPpfe87L91w/XXW1QFosdsuS/U5a8hAXGmlzGGySP8WLliQPv6xj6fzz7+ABOo6dtqS9Ne255OJct7H6pB2kKeLQj9s3dq1ng62O5WfS4p/8kP5Y07bRdIVIBWQEACHVVuEBxilf9EWHDZtljh1B4zUq74ef/yx9P2bb0qvrVqZZs2cmf7fv//v07Uf+Yilwowb1L3TIP9j7VDVqXAICzsuiLzQj/ijbdsT5kh/9HO+5QZ/PHNBOQyb8W5TnIW9w7VdgAyea+OtvTuvlR3uiTfb5bKGHF4Vfm08lCmrjRYJvLzTqICXQj9XcidR46fTMDjw3tTY7I7Odv5IW7jvFVNFcmDAog5VCybwk8PBBDt3fjo8A39FueP5Dpiw64r0eMy7KH/5cAVjJET51V8eiPha854hDBAGLuhXMDAiKdEgJwYOU0JyROfGnjth+JRZEXZMMWDWra90UoJEIcADyz71RaN8I67GXb8ACIySre9ZCeRDDpVPioN7PgeFgRmwgD/CeHnFK57HBgicsuQUL0e+/777xEi/7mmORgGVpqY40RggRVo9l9/VmS679JJ07XXXGiihZEv4DY2xpJcBmrrjq5QVS5HPejP+Z597Lv33r/z3tHbtOk8RAWiQ6jC9RX7RaQE8ER5fswcPDsnddOuzbNoskKUyuk5Mn2XXgDPs46DFqBMzJj27LXAdZVClVI+tSyjXf+1gCziL+oov4qjvOHmXNDCFdeON30pf//o3PNWD3g1laJCm386BgbRB4Joydp0dHvFJ1RyzsHbNah8ECWhBUkW8tGWAI9NyTwu8tHtZbUrNYpLsacNy+EsuviRdf931aZrio77Z4fUEsPykJeqNi/pyO3QfOWLgt3rNmrTq1dcsbaF/0WYCpER7wR39lDqmPpCwGpSIkNpgBpik/vFr/Tn5JQ7ACOcPcdwD+7bcddcd6fvfv1l1tC99+ld+Jf27/9fvpcmTJrk9x9Rp6GBBue1lym0wE+nCDebRBsfc5/dsdzxl8+PDpH9BGbDwM1jTz3S8c8LQjzGuNs4cfk4jVBtXbdiU3cTeyWnh4lMq23cOFfBS6OdKNHw6Re3z4N59/pJFNJ/1WugUDD50LMgdprpgXtk8dzp/odClDFJ4HOv4vus9LOwqP4y6gfxIWLoxGLnzVnHhDiAFoCINeRDlq5nBIpRrOYIglkP6a89P8d95lX+kFYSFpIX8sfEaYWXlVQZP4mMawatWBvf61Gd0L1D6ZLorpDsB6CLRIoUP+ECfh5U6XO3yk5fWPvP0M+muO+/yWTsMxGNTVOQL0NXoXVpPO/30dMVVV6Q5c2bZnPl60kd8DOZIN0gf8fFcV8dW+01pS/8WS1pY+kyKeidONKAjeaQLpswgv3vXLpc/4AqdEHbIBTwhKXrf+85NV199tSUwADz8jx9PXPzpJ3eONwNLAZcg0lY9inCGD9KLOVIw8kB9cpEe3rFj6opTn6nXBx98MN1yyy3Ky1YrGeMfEInbgYHd3rnZ0hbCVCRTp02xTsr+/XsFBOvShRd+wMrMM6dPt1ukRYAlzm1i590XfvpTgxdOKgYgLl26zJv6LV9+uusR6Q5pIwNqdoWOI/d9lRN1yEdO/5atadv27d4t29O8chMfFbTtBgN5AA7tWBXmMCw5VRhjLSfCpQ3T3mLqM6ZEqIsJ7W3ppRdf9M7STzz+WDrzzDPSv/7Xv5WuvfYj6YDipT17CpN+onCY+iR8yO21umezTLyPmvEcT2PP+hegq3KnKz7S0NXJY8tYHLXh5Tt2MYZFmdCO7Z7g9COPvPPjvdZfbXh2QVpqxt0cNmH09MZqo3caFfBS6OdGNHg6kIGJ7ny5rl692mJftuyPuefoODCV2s6U7bhk4Y6UJSW5c0F+x00NOZwas1p7wpCJfhVVD+6oxINf3rnklgEN13xRIyngiw1CssD0CKuWkMzQsaEAQaFXgVkw/JAehAg7IsQOd+wJAoADyKEUCHNE0gJQatAgCSOOQeOQ05qnSiB2D2U7cr7mOaCvRwDixZdeTvfcfW/60SOPpF0DuwxkUFw+VElrSEtrS3NafuqydOllH9J9uRk5UzrsyMtg7q9SMWEGaa+GOjisOFqV3+60c8dA+sFtt6UHfviA0i7QovwTLsvYAVpsssayYcqL+qaaJrRPsIIjAIbyZ2feT33qV5Tm2d43g69owJxF7QIvSLIMZKv6GK90mKJqbDZKeszVG+6jvuOivMYn766sHyuIqKuXX1qRvv6Nb6TXXlvlaQMYH22UemZwBnRxGjQAjDbA5n9Is5DScMDjGaefZmY2f8E8lyt1S70QhtuW0nDzzd9PK1au8MnYs2bNTtdcd11aftpylyFMk2kJ3CLVQsozmolCJuqPdk8doPe1atUqtdG9Zsowdeyob9ou5Ui3dl3rI4AL/7zTpgwQ8SNHjCux4zPtOqZ90eVqU/umfr9/0/fSI488pA+svekTn/h4+uxnP5NmCJwyhQpooo3TnqivDF5yevPld1200tyG81VLx78fT84jbUv9IVMO334r/5QHbZe/XC7kvdZtjCGx8skfA7LK8XPPz/jwNH14HTWHHI6AHjov8xcuqUzfOVTAS6GfGyF+Z5CGGfIFyyDEKpMhdX5EuPRuJBMwMDoL4l8zI3E8/6rOR8dTz/E7nS93Ni53NpnVEg1Ytg5jlPSYw8Qug5VMSALc4bMf3MstDO/OO+8Uw3vZX1uAAcAGAxmHPp577rnpvPPO8wCIGJm0wvAZ2MgHYQJSyAphAwQ8CMhd3rIcYMJhh52dXXIffrxJnAYKH+Qnt5jxBYa+zODgXoEWMVjdAQBMf/BFeOttt6cHH3zI+1xwgCIreCh7pDoo5jY01KWe7i7v18IOsO1tHfqi3eK8ogg8chjAhVJfMAS+YpF2TJ8xXWk5mh5//In05S9/JW3YuCHNmzvPSrqALgMtXUgfLG1RXTNQIkGa2NPt06xjp9Gj6WMf+1j6tV//rOua9kB+maqizAB8LjPAC+VGHbvsxgZiqLbebFq9ZnPcAtIgABRTWZMn93m1FMDuK1/5J69CYz8ZQBvtDwCxbfu2tEVf+Ozj4ramMObMnp1mzpip+n/RAOxTn/4VS1tYFcUxBfglnUjkiIcUHB45nL7z7e9Y9+jKK69KH//Ev0rTVIaDSktjI8veBdi8rw9K0kjDSHuA30IVCBGwAADzsUO9UWZuj0lAXG2USqddxKnx8UGCP8AMYwsABdDC5nKAFqQyIeVC+iZQpLqgrpAY0lbZjfv7N9+cXv7p8+lUAft/9+9+L13xoQ+RnLRFHwhMoaLbxQcFmxJyCnpIMombtMTYAtEOSQtEP+fC7Jh2K7fZLPuD8nu2J5Fy9QZ3tWR3IuzJS/YPYYcZ9/wRSbodPmNgFXam7K/Wf609zxN7+3yq9DuNCngp9HMjOi0MCobGUkaYPp1CfcYDd4hexag0qPirXO5h8O44+os+o07rn430xj+6XNzl2O5zZ4Owc4dzMGPmuMmdNa4Ik390bDq1maYGN9zy/qMf/8inKvOFjnSAgY+pGvzEl/nRdM1HrklnnHlGxYyDIeE/vsRjMIY5k0cGUMoBBo8900nsgYK0hfQw+PJ1RxykPfyIeSsMBlz0SWDIgI0pU6cYXKFU+J3vfDc9/8KLcn80lHs1yDqdIp47O9rT2Wedma6+6sp0ytIlCmdX2jd4wKCLgRkwwSAPw3ZRkv+G2AvjtdfWpFtvuSU9+uhjiq/bU1PkHT+UESCV+iVtDJQQ6UKptaUZPZ59lvB86tOfsqLqzoEd9guwpc6RRHAUAvlEd4G4/fX3ZqT0jdYrhcaldxgJjwAiiHrs6Oy0Ocu2b7311vT0088KkMx3nURamfobdhulXsgXeeIcIYALhFIuZ9V89KM3pLnz5oipbo9NzOQO/9T1yMFgGoS7Z9fetOH1jd4E8YILP6ByZEdY1aPck1LOQUICRNtHSgCjHd25sZD7xYsvvmjwR/vIRNuglEZUb1HHlHed2zd1iDl9L8aT+OCBQce4Itfyk4EwwBqJ5apXV3kzS9rHyPBQ+vCVH0q/+ulPp2UCMEMH9quud6idxsnpRxU+0prGhibHwZTUOKY5CVthjo0rAi96hwzAqwvyXRf9OZvjd9S/8yu/8RfuKzuHWIWb/UHOH2HoGYXmbO7w8F/dLWlSupE0UhYuG/UN+wwvx8QBjYWhFxnzXMBLoXcdBRMOJp+ZVIgYo7FnO+58OXEqMV/jmcnHV0ruGNEhec0remrFmbkDmuSMwYCG6UGk6nCkx52wpsWGtxA5E9Yx4Ygwz18i9m8mGfHxDvPHDYyUfUu+993vpeeee84rDRhw+AIEOMB82CcBcfYHP/jBdP755xtUwJDJP1/iIV2Kzs9gC/jYWW3yBhACEOGeZ77gyQbuIo96U1qYSiI89rBASgMwYe8Tpq1eWbki3XzTTWnlq68KiAgYVvkmfwAggBJ72ywRE/3IRz6clp6CqJeDLeMEbpgqbvFjJiDgRP4BUM3Nrd5i/fbbb0+PP/aE08PKInYzpW5JL5IS9p8BtIXU7IjzNGVKpI/0zpo9M/3KJz+Zlihu2gZ7Z5DOpgq4UD2khfCdZ56VSsyOrTsG76qOBEr06Ge3Q3nIgCX8BfAhvStWrLAUhDKiDXm5t/JIeqmjPGXHO+U8sbs7TZ853YM80iKWw37iEx+zhIs4KWfymBUjGfydbtKmeHmur29Os2fN8VJo3kkjbQFXkc9IJ354j2ds390UNTBGOUeWgCif1LfJDsN1TJ3G9CxuONIDaSDTyugQUccZlOIF5kzItFckihDMGACsgqz6qICh+q91vewC83EaZ8J9V2eH6nGfpS0PPvCA4lznPvKF3/lCOvuM09wf+bigTRGO060EkD4oJBbR/nIuc1vFbdRx5ZY7F2nT9QY7kdus7hno2Mz/wn0tjYahNFRFeAxFXz5WOk0S9TSWDnvUM/f4C/saog/Zr+OL8uedfahmqG3PnbegcvnOoQJeCr0p0XHoHDBwBnsGZUTlIHqNDmZ+LB9eu2aNv5r4qnSrF412JFFtJ45OhSF/Ye7ODDOSeT4oD+IGqGDgwjKLPaPzy69+MUDC5MIMO/vVjz8za3VGaDQcBczg6XRVYWIWx90fTDd+4xtpw4YNZr6clQTgGNwXG2Vx0vG5557nqQ+YHQwQe8qIaSFPISktML0BfcVhjl4LzJ1Bhni5agcdwiCzuNm2dWtibxQUFNFrIX5AwTdu/Ea69777vKEf7mC2wxqsm5v0Vaj4qB+mkz7+8Y+lyz50mfLFCbsDo2mjnixx0YDOOOhD/1Q2KPEycN10083pO9/5jgbypkqZNVZY4Y60bt26JW0XuAHAMJUGIJo1c4anZ6h70vTRj340XXv9tS5rQAL+CIcqwY8r/Tg6WmMUVRcG1tsRM8PQEhoBGMqLNkcZuw3oYkVTV2e3vqrb0pf+7u+8hBuwB2gBRDvvIwe9qoSpt6GhaqpPeQPc9fVNShs2vq7yHJ8++cl/lS6/4kNp/9A+txnqiboJxoHuROgzIZ1C6gTDW37qaWnWnPlKF/pDoSBNuZK2XL/vVTpeeJTrErBL2VH2/rhReYTEKTaNo68DglHKpe0MMZ6IVGKj9UrQI4cUjuobyBDjj+pNbYI6AcBwQCfTOXVqoxM6OtIQU0NyBwChfQJaOONsm+L6ttrF8y88531afvM3Ppc+86u/ap2xffv2WopDPZE+jxXUmdIAHV9/J3zXFSBrjBiLcnMf9cOtMoOOD2uUatxF+DVus38bx7jl8tI9u4kx8Y0gMpetPfvKhHlM25Jv3OOM8sZ88eJTUlf3xMrtO4cKeCn0PyQaM4MQFEywyR1n7dq1aeXKlWYmdJQgOhE3XMR7vmUTd+x4sDmdJh7paPiv/OidcHPYpCMYQzXVIcpuGXgy2aSKH/0SmIilPDbGvPKjcN2h9fPx7wq/b1Jv2ijgwqodtgRHyoD5rNlz0ulnnOHTjXkfGAj9BwZKiAGV8JAqbRGjRwGQwZON5gAQkNOhizgpT8AO73zZMzhv2rgx7RXTZ0ddgAtmP/rRj8SQv+VjExjI0WXxluga8NGTQeKCbsY5556Trr7q6jR16lTrDlA+KOQG4w1GytQHirjYUYYwfZb3AlpeeWWl39mAjTl+GBBz/qwU27Fju5Ubs44PEirS19jUYJ0RyuTXfv3X0ilLlhjkAG4RvfMlDdjgy5Z6PSG5+KIyx+pdJpFsxwdY8CZ+AC+9uy2KU5InQBM7CLPPyoYNm7zcnDaKVIz6AMAgDWSjPMoT5snuw4sXLTRQJv3sc4Nuy6yZ01WvO9PIkdgwkXRF/JkJ0B5jyo1N7tgiHuXe8XXKX5V03HONMYr3LtWClwxcoAziKAcIZwAWXmlX6LQgIUPZm698lZYZpVcNVWWGf5RjA7xQliFxofwhdkUmrFZ9RFBPKIHTlBrlXp5Ta1uL/T333LPp7rvutBRmUl+vQMun08UfvFhx7zMAjWnTqCvXHQxbaTXVtEc/6T2buK1yVenNeYVq652PCPwc0xZqwnkrqu0PpspfxK2HKsjauLHL/hxn5Se/c1HmBBBpyumKj0EvQVf+sUNRGQX0pcuWqw/HGPZOogJeCr0p0QnoGDAfBmwaNF8Y27bvsAQglouiC9Cge0xNhD//H+1Eo8Sr3OCKjuKOpM4CIMEtImC+bP3MzwPeGDM4kQQmg4FsBo3GqxtfUqNuRtMzlgaMiJN8OB65R3+DAZjBjXyTvsamZndk3CG+jrgqRVE98gW4o9LzYaqnU8CFVT58fUIZKNV+lRMfdwZzAAdAh1Uu+HnyySfTPffcnZ586ikPgKQHv4CxuvoAY5y9wsm2l112aVq6dKnTxdJs6gsi/BABx5QZOhiI2NmEjt1K77rrnvTEE084/XyFAgB9CKHckm/ys29wv545MfeAJUhIKphGw93s2bO8X8tZZ5/lr9eop2DyIZUbdl4oY8I8Ib0JeEF/Bz0FiDIPAOFXPdcbtKxdszbdfPPN6XHlgbbBwYrx5Rx+ACK0UUTfmLMUnSMJAHzskjpz1ox03XXXpTPPOFP+mebb56SMhwGqjgCkMFXyQPxsXofEbVJvnwEmoNRJGhfTb2638sd1MlAGL7XApZYoj1yjPLEcfb3a3Y6dsWUCbZoyZkM/67eo/VDOSDgpQ8AqbdptV/0MCY4PyNRzbk+5bdGjkZ7Bgul3LBS4zbtLP6X+3J5+9VOfStddf62X7+/ZFZsnkiriz9PXtN9jqCb9JvxQt7pbSiFyfevndle9Z2JMyu1xFBCJXC663qydYJ5BT22bsr9qnBs1l5taqQ/mx5BecW+X/DkcxtuxcrMPGRwmfD1S1nzcxJh4NC1cuDj1TZ6Kq3cUFfBS6E2Jhs4AQyOGcfI1+/wLL+gL/pCY2ZAHdaQuZu6NDaO6LPFHByMU/kUnc+dxZ8FOHVuMwWbqKIrKFB0yBgM6Kp0e+8yEHRJuKvcRh41sb6puJtxFEsbMCUI/9BhIe2aMMDA2UUNXhYGMi+kO8jl8EMAyRjnNMDekDehRAFoyUyNAwiLscE8CjlUUBrDAXHHD7rgwRvSG0DtB4oLyIFKOAACUFeAnlH5POeWU9NHrbzBoIWFIGDhpmnABHkyBkX7SB5CgbBD9ordzx+13pLvvuccrqAAt6IaQLkAB5UBeUGi1gmKV9pkzp1tCxBQW5fSZz37W5xGhYAwjIu2AFbIZCsyhn0K6owwi/2+gNwEvSLUAMAye5Imwkb509ygPyiv7tfzg1h+4ffROnJTYoI94aY9ZGRcdCPI7QUBn1qyZaWJvT2LnXzYCZL+Zq66+wtNiA6oHyhgQbgDWgMSGjeuYpmIqccSnZre2tKXp02eqHFrNvGgbMFd/rR5Xz+TF7bV6fy8S4OVEwIU8B9AQyFAZItVktdWzzzyrD4K91r2inGkbngIUeKGODVrkP9pt6Ni5XFWOHEJK64Cpw6wJm7pnepE6pP4aBOoPDu1Pjzz8iA/ZpO2ff/77VNdXpWVLT9E4NuyzqQiPuqF+ccNzlrgQbgYiUG2bhGL8GTPnnfzW+smEmwxCINyNhsf9LdqG3fkv3LsdEV6NHekwVebxmJ9Etc9VXE6r+izuPIYRiIOOMDLICq+xueaMGbPS/AWLbP5OogJeCr0p5QGEBsy0xbp16zRINHqOmq97fzW5U0SHcEcQ0Q0AHvmZTpK18W0nKwYuBgwGNzM3mTFomXJn0uVBTVf2E9Zy4PDCjTuifoTNn635yQ1m+MU1HZN0MV0QXDP8MgD6Xg2UbEQHgwZk5PDZFRXJEGVCuAyY23ds97w96Qa0IJmIFQnjU1tri8KK9FJOZoryRxyAC1brMG3EeTroqgAQ0Wm568470yuvvGIAxFciAy6AhSki0ssU0YUXXpg+/elPmdkCfgiPE6CVTEtIorxiF1HsACXYv/TyivT1r9/obeyZ8kDSAzOhflD03b5te+guKS2klVOu2wXI5s2f52IF1Jx33rnp3/zb30lTpk61sqWZvi50CZCGINVAUkMY2JEP8k/aTkS1zM9V6pqi6JCCCcQIICA5ASi0T5iQXnj+hfRf/+t/S8/rzj4qABym9jgZmmXQO7fvsL4RTImyQ5l4/vyFAiBDafXqVV42/lu/9Rtp1uxZacOG19UuYzqCyIcOEE9z2i8G1yzQSLkx9UVbWrxkSZrY0+uyimuc2gn9oMlJrt3Th7I/mQl2zTgB6Nus/sG4sXXLFoM8gDTlxJjC0nvK0kCHr3396JsjBwO01gtEGnjrOQ4hZcdn9UPFAYClLwJoWc6M7teO7VvTrbfclO66624vf/7d3/29dNEHL1Ra6tI2jt5QWwRIIV2l0hizKvQ8OtYhfaQujyFVp8cWkWtY6c91ncl1zp/udovzyknY5RDwfqzfWrJ/XZSF3/nZf+Uve7VR5Vbm2Z/NedbPYy6XzMJL9VDdcQ7h32H4ReWhB8qAsmCqedq0GWnO3Pl2+06iAl5OIqJRw9hgpPkO8eUDufGr5eaOs18DBDoBL7/yspkuAw3EVyd+uTDP9zwAEA6DD6EAGI7pXLlTagDB3CJbUYhhoyMGYVdJYGRnECO3dEDCxm1QhI2v/PUTnZHBEFc5XiQrAh8CFygPstyS98pRxXwENFBSFQNmaoZ4YP4AGb4QORgQN3yVw8jRA5kwocNTRCiI8iUH81OE7vROf1U2xAVDB7Cg6AmjZ4oIxs7qJoDLY4896jJEMkCSGVyJu04XoOX0009L11xzjVfCwKCZquLLNHRK+Io9ZCBGIlG2RRIE00fCw/b1DzzwkEBQi5c0U0b4hzGw9w4b3O3atdNpJN9MnU2Z3GfQxIA/ffr09LGPfzydc87ZLpP9AkkAlQCCitLpVJkpLPIAU8/17nLO9aVbHkRpZ0flj7S7LeC/euaUbPIDE2xtaU39W/q9C+qDygNhB/DaU8WB9Gurp4KQ0BA8YI0pIjYj46ufPV5uuOE6pf8sMUQ22WOnZ4ArzIqyo54Aq4qbelZaAF9MEbFvDaulQFreyE/5o368PF0giZ+ScQxFnuWlanvvBXI/Oz6jIsxyvUF0T8DJmrXr0uZqo0fqmnbKmII7jxUuGvnVA+VtkKJw6C8cwwFoHxbo5ENBncntlYImGvZzAdjQVwC5Tzz+uID/7WoHm9Oll1yaPve5z3lrgXw2VcQJiJY/xcU7fYfT0XO7y+MIyTqm3mqeeSIv/iMhNtSYpMt+uIfpMXR8O8jxnIiyW8LnOYdbGYZfzHnnnwyyn1H3ojy25hRlcxPPhFXF4bsC4gIQUj+YMY7Nmj3X0pd3GhXwcpIQDZEOijQhGHJ0WL46mes041OjZUDeJ6YMc0baArO14qXsCANmFSAlBpGg6lktyfOvox0jbOkcWTwbjDw6DP5g8KPdXTees+gWyQwKewGMAEshipa3yi13fND5yE+ky3O2+oV5DJR5iiq8VOctabAk3x649FOyzIDxQ7oAObiVkcuNsqBcGIxDr6XTkgXKEkbn8snlWJUz/rn4UsQ/zwABNpRD2ZkN8TiRGAkKuiSh5MoRAWPTP2ecfnr68IevSsuWLXVayQuSiYMw92ppNeZeLSXQgv4HcXDK9PcEWh568EHljp1vO8RZohAok9CRCSCGxIaVROy0yzJxDi9kOgUlxxtuuMHLw8kj04WET3mZazjk/F+kMqXsHYvKQ3/xxp9elH0R/6KMh8RY2H/DQFHACYkHQJGv9qmTp7rMfnDbD3zIJKCvo6PLfqlrLpbY7hoYsATm4PCQy2LR4sUCHb2yG1BZHU4fveFj6cILL7Aka2RkyMCUJdxRR7G6jSMEnHLlbf/QcJo2Y0aaNnWqpQMydJIj7ZnIoXMpwuIYy/ckRV+I/kF7g3inzCHKE2XvLdu2ebXezp0Ddgt4oO0AjNFZodxof1nCARgEkFoCJsIPBNgAoBCHVzJWxU3ddeiDYUJbu8+buu0Ht6af/OjHaerUyem3f+s3VN8fdVx8XES/VnoZTxyfxqDM1JWf+CCL8YgLCvcnrs/s5njK5VFLtWVUG36+53zK4JjWk81r46r1D9U+vyXVhq2H/Mb4wTgFaPThsvqxszX5RlHfaVcy6JeLFy9JnV099vdOogJeThKiQzDIcGcggWBEDNaIYmF8iM0392+2Uh27j9KAacg0chp3LQio2FNQfqfTVwMSX7TZj/uZ/hF3KNuhgwEDDrPazupBwx4IzgGHOfGKvPpAAw4DH+lzmOqAMVAEQ8SMuONLLuZ3eSYs8sIXNi9o06MUSFoj3AA+R8Q8Gexg7grMAygHHe6vGB7AgyunHTPyyXNWbgbgZMVZwAGMlykidFvQx2ADte9973teMop0BEkMm2QhIdgre2/0tny55+vZFI+TmWHkisLhAnI4/G/P3r0CYk1OP+FyQjI75N5/3/3pS3//pbRpU7+niMj3sOp33FHlUW5h2kx5sZKIPNM2ABFnnnFG2rptq6U11157jVcR8QXLMmPyhd4LK3dYtXRCUllTPwBUFzj1QP2p/MfMqv/KTFt7mw9DJE/ozTCdBhObPXNW+vGPf5K+8o9fSa+uWuWdUdmAbs/uPQqfE7sP2G1MH6i81ZYBLBecf37avWeXgOGKdPZZZ6fPf/7zaabCYpdimB5uaRtNLU2WwpESGBjKuOwqPHnK1DRZoKVN9Us/oZzk3Gk6Gcl9R5fHAN0z8Uy/y+0eZXAkYWwpgLI5IAbdIMrQK/bUn1rYIJHxRO2PMuVDiH5J10QKQh+mPhmXaGvoMLW0orQd/ZI00HBYxUf7efCH97sPsW/Lh6+62idAL116itsvYbDijSng3Cd/VvBC2GM5PZZinHkjZb8RZrRxAAJtnPfa8EfjqdzJ4E3jy26hY54VNm+jYbwZ1Yath/yW/Tn/MuKj02mUcS4vokMJfpHACwsW3mlUwMtJQm6YVeNn0KHxuiPqPjw84g7P4XvocTAgWRnRYIfODfOJTquuGF9abvu8+eZ/dCjAiTuDQQtoPt7tQsyL8Og3hJc7UKTNT5VZhEtHs5RBP9LsLxiNdP5Vecnh8VoFZzv8GYAorRmAxddX+OPLHr/WuRF4IV7ClQMxNQEaDcYQSp+7NSizPTw6LUwhED7ghDKio9fmhfhy2gAbKLgyBcPeI3wNIm1haTJLsSkjQBDEIMvutDBh9k654orL0wUXXOB9XlgGmnUFKOM8FccurgwqDDTM+SMN4hTem2+62ac/43ay/JOtrLsBwwa0wMxJD9IWplgsDdIdQMDBiewXw0qmQX297ts3qLw2VyAtt4kTEzajdVjVh4tVZY+58+Di4V+sKEHKE4PlUUuz+vu3pnvvvtuKxTBB0sby64Nqp4BelHN37RrwlzVl2MkU0YwZBjg7dmyzns5Hrv1wuvTiS5S3Tq+OI90wTVZa5ITRFkJZNFZhsecNJ2U3NDdXeZBT+op+0Rci/ScT5bacPxB4jzqMPogeCu2Iab1XXllhHSr6G5JSLtqqVwnqXid/hEFZ0v94dr/Wx0QGL9QnfdX9SnU9Uk35AIKamkJxna0M7r/vHp/nNWf2rPSbv/Vb6eMf+5g/NlghJw+WoDLlFAA0gFAek3IdOv7clmWepS18xMTTGwk/b0a5TCCXEW51ry0vqNaNCbt4MmV7kx6zLebHh+UQcjgnotqwq7BCsjQWHh8DBIE7RlvyyFQtoN9TzwKdchlhvIOogJeTiMzA1TBzp6Ezc/jZps2brVRH64WZw+ho9DxHH6maiG7uCrwqCAZ1k290UjX+CjRADAyZ0QZxj47H5UFN7wYoRERHknuePUhgxOAm89wFiTP0U0LiAuVOCOEvX1AtMCG/TEk4bqWNr2nig4lFuSisKmzed+7YaWkLAIMt/bMImws3DldhUa6EzSAJgwfY8BXKAAxoYQB9+eWXPUWEsix2AJ8MEBn8vaqoblz6wIUfSFdcfrmVZDFHWuDVSxVl8EVRkkXCYIMuQMedd9yZHn74EesG9AhokT42ZctfUkyvMLjnlTRIoKZNm5I6OicIEOzy/ifXX39dev/57/OgxVdwfWOsKCOsXFbklTydiPiqpUxgMpABovzF89jAqz+/01aQ/FHGAKof/vDBdMcdd7jskSIpVpcD9cGybaaCAngNW1o1deqUNLGnx4CTOr7wAxekyy69xPlC0ZfyRVGUqVHio1GRfk+XKszW1naBpwmpr2/y6IZ9KIf6K18U7WKsrk9WyvnPbT/3r63bt6W1Gjv2ahxh75Wsu8JUEO0LfSqarHWx5B/pB3VCn2d8QZ+Fs89oA4RN3RA2Fwq7vDOdyjL3AX1Y3XXnHemhBx+Qv/p01VVXpo8JZM+ZPSftHdxjYE77o15jzIhw8jgxOjZV7ZF3p0uU2yX0VuDlzdpA9p/tXV5kXFHlsst2tW5M2MWTnvk71l0m3qMFH2s3Gs6J6ERh649yCNDCeBp1SX2gu4cEtLOrS+PBxGr8ZhrfTt5RVMDLSURuqB5U2Ap9r5UcN23utxJdfJlH48YdgztMw42fTqNGjD8umII7pX0QcDwzcIVSXDD0+EKPzqKXCKv2vXq2qe6ViQahQzGwiemSXhgvA5AVKtXRwjudSg8i4stXHqCIGwaNP+Z0GUQJnXcutr0nzaP+GNQUMBKMDa+vt7SBr3YUQ9kXJcI6dhACqEBIWGDmvLO/BPZM1cCQmTKCGd92220GGEhuGLzxQ/4AH5QV0oPf+93f8SoJwgJokEGkEuijkDYGGcAE9iz57Ozq9hfSHXfelf7xH//RYGPa1GkuJ8qM+gC8MZ3EXjL7FSfhwECQIi1estjxsMMsoOV3fucLFrWTTrcBMY8hhRNHGbjUo8yUjqjbIFdDFInLNpdPGOJD/2XOO1bYwzSoY/LIoYkoLf/d3/1deu7Z5+KLT/lC6mJmdvjo6F44lBXlQdkuO3WpwxxQGbM53b/+7d+yXtAeATG+2ClbJDZIV/iqJm1MJyBFov6xW7zkFC+1BkgfOeqUOk63r6rNw8yQEJFuzEczewxVjfE9TOTd/Untl3Lkg2fd+vXUagXaVUbictQx5U35Ap5ZyeYpOvUxlvnT7glr1K3CRvJCu8pAlRKmDtlXCD/PPftM+uY3vpFWrng5nXXmGemP/sMfpg9+8EJvCElbp/hp64cOHrJyNR8QpLGlpcn15nbkdqt6pd3hQebULYSb3G5tUpkfT4TxZoT/bB/tJMh5rQl/NJ7sBrt40nMAi0zZ7fF07Dh44rSajgs7v1GHdXUBGCk/QCSSyYmTen3UBfXJRxC9Fyl0AS+Ffm5Eoz6WURxPNGi3Vj/ijEau+jYj2Lhxg5javmDqVeN3mEbZKLIiam20oi6EO4DJGAVTcvB6IGw6LowzM3mINDJw5KTk/5h7kJI7d0D96LQMaAxk2R7K8eQwYXw8GqRgIP8AFLsnvMx0NJgxgMGsSSOAjE5JfHRYwuCZuMgvA16/wBwApvv/z95/h+t1HWee6ELOOWeAAAjmnBPAnKOYo5Jly5Il+/Z0X/8x/bR7+umeHs/c8Ti1JQfZligx55xzEHMGSIIASeScc7rv761d39nn4ICyxm6BFL76zj5777VXrFVVq1atNDAOT0RRQHEhA6EURdzkxeUSEB4FAZN5f/VYUFBIlw3g7rjjdu/dgvUEIcykVPLARTmwmpw8bVq56qorwYCVJiYnssqH0lIXTKIlvwhncEMvlfjmzZ1ffnbjz93go4zEhFSURwXUPxp/zlbCikFelZx7sIOlLPTuE0cRTJgwoXxDjf5+avRjBVOcDI7lBDzalK4yB+6FWzXwPBonFeCWleT6ELhO9YJf6qWhvMRnN2CUn/1zbrr5ZluNUBKHDR3ufG/EOqTyMjTEcQlx8nMRXrqU0aNHlrFScJavVLlEl+edd0656IIL/J3hJJQir4TCYqQ4NoETpQkOmIcBrTA8xB43WF6AsGiRe5VPv6xjlGHiBRdJfy7oTkDYrzZQZy1lBMBFlAzapz6QA7E/0Yoy8+OP/R3csTw+5rKBq5AZ0KnnDCne2LMHqyc8G3SFX+QF9A1E+iETUKK7yZ1J2Pffd6/o4yHVxdZy6aWXlm98/QavviMPxE3doOhgSVBwz6UJvuV4h7CGotgTr/m3kgGuRwpQAd/TT9Zm7bMhZVIDKITAFqcqvN0cfwvYPR5axZk4b3wXtPjlr8XdfJTx4lw9tk6pBfASUalM+KrSik4msjKURia1Dxk61HPysLjYuireQekEkGVsFfFlg6by8hUFCBkGRYOug018lZpMowrgl7kUi9RYMUEU4QPBe38F+UGQIPAh7GROlBiYH4HP5d4A0SogYWCGZDqEB+mGubViFKC6tWJ4xdHwo7+IIz40wvkez45bP/vTz0NR+oQVgnw5fcITLwK2UgxgPuaREA8WBA954F8ukX8HsTKxTgodfhGuKCxMSqUBt4JhvJD/1ooiz6SPUKRhpTfPEBE4YMv9p59+2luToywSB0JHWfClIpR+ffqWo48+yhu9MaeDetwigeJVXfoew1th8u5EPasRYIffXmpsP/v8s/LIw48qjWecRxSXwKNwoXQoG3u2MBkXixr4p0wjRgyRQGLF0Cbn9bTTTvWeMUz8BQcJjoP8klnHFtAQnII6LsK5+obCIAdoh5wwBAPtuE6gA33jvBnK+9RTT5cHH3y4LF60xHu4ULdelSadEEVqzdo1Ughj+TN4GTFqRBk1bGjZvGF92aq6Ou7448pZZ51hqwv1gHXE1ialhbXGArqoQesQaZMvLGnMI2LIKfmjCVGf1Bm0Al6gbQkFK28hG8QrUlDmz5tfPpgxI9yD6Yxbwlm5Vu+dakZpiCEjxav6YMjVnQj9mOMCL291Wky+jmHM4MrtXt6+TnU/66MZ5fGHH/QxJAcdfHC5+uqry/HHHef0olMSciVpH2sE6bXQb1pZq84K/qtv+M/wpIob3zIuv/NsHwG416Ht+05h9GC52Q5kWPKXabaND6i7wTOk0erSz+VqA/QnXIeGwIFBd9RHrC7Ex3w8ZAMyKC1iXxVoKi9fUUjihUCzl8jVqWMsd+OZ7zR6NAJsPoaZl0ltFlL6bu26R3cL/fTfYCYpQBAGpOy7HpKwSdPP+hDfoqGr5wPBQBxWjByYv7j7SW45xMSzL/2CGKu485vi5m6QOwLBcSuNZNDuYjx5IpDcEKah2ER6jVgjb7poKNlKn/knDEOgtHCuD40aaVEWIFYjUb4YBiNNmJ7GMvcZgfGxZrC5HBtkPf/8c176zMRFsIgVgPzQ+yQTRx11RLnyiivKxIl7lQ1SfEjDw0edWUW0yfligiEKFA0Am6GNHz/BitC9991fHrj/AaW/0fM0qC/yggCibAwFLpPiQr5QzNingR4Vw1jLli+W/1LOPPNM7zBLQ06cFvh8MJ6qugDnuATqDI06EBi3FdTduzGXRHkGR5Tdljg1TLwjHPtL0Zo+fUb50Y9/bHocMGCQaZTU+FEu8JpnSjGXBYsSk4ipE+Y9TNxrfLnka5eUAw48wD1ulnt7R2EUH+WFrOWF4N4u5YVhJiYDo+iBK+IGd00ISHxQr+B5yxbJFU9wjm/zFsy3EsFwM3NUWOHGZm8RZrstLNABHarVa9Y6Hjn4uzsBigt+Z3iCvhU8DM2hpGN5WakOFauIhg4ZUj6f81l58IH7y4vPPl26iHauu/bacvnlV5R+/ft5uBVFhDzVadDvXHomH6TLxTP+kHumc70n4M67XSr3epz1Z7047jq0+t4G8tuu/KQ7eSRu8pYJZEptwzbkrsD5rvLeoryk/BToQwyJRfnBuf2Dcyn2WMfgA/aagi88FC15kfF/FaCpvHxFASKrMwDMC6Do57c1EiIsfV64YIGX1NIzQlDQ2CGg6M3S+4HQ64zCo991pVWl+uL/yURmHf54rvlxVPoXvhUHngDf4hkeIQ2UEPfI8ac46IFhOeJyTw7mll/Kl/HkuDiNIn6Ii4l6NndKQDqsvpkht8RGbCns8AsDs4cJDTfxs208PRAAvFAeGlsAJQLFA+EcZnHwyrLbDWZ6rwZau9bb+TOv5eOPP3a6THrDT8+ePdyYs/R58qTJ5dRTTy1nnX2m4tnuU6eZ24HiwgoalueSLsKeNLEUsSR5wKDB5dVXXi233X57eeftd62MDBs23PlHkOMfoY5VjR4pc1TWSAFgA72JEyeULl27mAb22XeKGoFLy+GHH2H/udcJgjPqKsA44p9AnxqQbkDSS93NdCA8g38Ep88IUp1RpsTvrbfcUn564889L2HUyFGmJepn3VpWNa33ndO6k545lmCvCRM8oZikpk49sZx37jlSQvp7hQv1h+JJuRkWVOXastRZPUtbYBRNpy7dyl4TJ3o4Lxs+6igV3ya0NKIM40ET1Bv1B51gqf1k1ixbbpnQiV/wyA7MtqZQ14TX3RYZeFLvuEMnWHjxx3AsVjSOFwFQYGIyeCmTpMgvW7qk/PLll8sLzz+rzta8Mn7smHLNVVeWiy++2Plg/lgqnq47SFBhQ46E1QW6y7QpD174vqu6zk5K0jPg+Nq8twK9Njim9ox8qrvHrXpoAxknnSj81NNspKdbPXy6m88oH4AbQt+g9NNdAF/Zaiw36oTv1AUT1Ieo48MQN/ikLulYNNL9ikBTefkKA8QGEcPM3BEgNBzMvVgwf4H3aoHpc7gEQofBQziFQoDiwLgnJB/vweQtDAJLKqh+fM80UTR8t+fw34r4efTHjCGcyEMLQ1Yxw2SVW6Zpu2fjPQRdMCPKTmxWh+Cx0BSgINR7XhGKcDE0lgJ3rRS6tevWWnFjXxN69Vg4UohRRi7H3Ull0jPADqwoLSgqWGdQIIjvvffeK48++mh54403HI5vNNaY2LEGkC/2HznxpBPKKaecUsaMHmMBznH/gIelJPCpk830Qjux0ddG73+CUoMl5c677lb8b8l3BwscysdESMKSDlYe8obVhuEvFKLhw4ZZuWLYpV//vt646/jjj7Mig6UJPCLQPD+JjIDyrBZB4r0Ord2MaT+Fc/UsHDBXyjsMC+ds8sYQzosvvegdcufNnad89bfyEhPFN3lXXla9sYcLeesmZWOwFMqRI0c4j+vWrSn77ruPynBBmTR5onrRlFNKqdKzpVFPNILQfheFJS+EY37L0KHDS++qZ0n+qSPns53y7ckANqzk645VZf36DWX5yhVl9uzZnhTL/BVkBxYZD4XoGeXFRCNc0pGgo0OlbBU9w4HGsa5AdYfSRTxF4wmve6m0wmIRYx7TjOkflOeee6a89+47VkAuveTictFFF5RxY8Z4I0ImqEMzXkQgyHpMyPeUBwBuKRPaA/Jn/8oHfuryy8+VewPavLeSdwkEax2qXSAsV9JhvudzA2rxpV9Lt3jEsy6VXe+Vr+riUxWPbmCHZe3IpyFDR3gxQvJEKnb1/HwVoKm8fEUBxoTQuJLo6Il/MnNWWaaeEnNcEA6QIgIDIof5aXBpXGFq5jpAuMxLaCgQUAOBfE/B4+D8j7T42SJD2uGebgaiiQ+E8L0V8J0bcVVBCM87ebb1o3S0kpLCx9/0DNDAp6C0UiNhGXEGHgDCobgwdINgRelYtnSZFRKGDuitM4G23vMKfFLsYOhs2FEOmPRKQ4ylhbCc63Pfffd6d9zVa1ZbKACsxIq5IsXnGx1z9DHl7HPOLhPGj1evVg214sWEzlASDbxxKNxTR8yb4XnQ4EHe1O7++x4oDz/yiBoODp6Lw+cYYuGYAobGmNOSc0LADVanocOGWuAvXrTQvSrSZkkpihB1j7JDWfnWEPTKg2kEDFJgO1UVU4P23IC6Ow0UZcDq0atXby8Rv/mmm8uHH37oMpCPwG0cfsiRBJzmjNWFeRIoZ+PGjlX+ultxQ4G54orLfSwBvfdNmza4Xj1x2eP2NKZY6ZigG3Oe1ITZqjN4MHN82KNCym1FO01oH8x/ulN37CvEDrlLRF/eJVd0YhoDz0ywFd8wDNNDd+NW9WlZIzqA19jwz4TER/NTdHS2KI606nTr3rVwBADWv4ceeKB89PGH6nDNK3tNGF++9/u/Vw477FDLMPZZwqIGb7sjoXhI21HrOSnP9UselFfoOy8D7vit6D3doX/Ck/dW/ito9c736jHhi/zXn+v8kcD3lOFAyrY6tI2/rpgBLd/rYYmvJT1LT/2xgzH8gPzq2Jm5LVEnpGs86Lltel92aCovXymAKKO6oDMzpJyYE0HjTC+JlUT0QCFKiBHCpIHmGaZn+SJDGmYWxeFdLhUHCo2HlRAuemc+jIlZz54kWykr/AiDG4nbD5fA5lo/tQb8OyL+O464ExbBQaME0KBhTcCvO3cV4xGevOPuSWUoFTT4ynMIAHrgMdnQK6IUhgmClAUFiEaQHj37hrCnCThBATEOiFURJAMTnjCs9kEZZOkzjf74cRM8r4WjE9iv5Re/+IUnlbLBGxlAKUjFwpNLRw4vN1x/fZk6daqHcJjH0aVrZytTxE8dUX4fuKj8kxXyyzyW555/rvz1X/11WbhwUTnggANtyiev7AiMNYGGhKMbmBsTeFE9K80DDzzAChm912OPPbZ853d/R/keV+apUWBlD2FTwcQiRKOAooXgT6FfB/BadwI/ATjGczilu570qZeUPIa7brvttvJ3f/t31Z4RAx2KVUSYstepZ8/xBRs3rHOvmuE5DkucPHlyWbRwgXc0vvDCC8qVV16pMsXurUGDSsP6Zkfjmw3m1DRVwxWdS3+lM5hDMvvHknSENAK8XscAPEG9NiEAPKEIoqgzt+XzOZ97iAjawCLIJFrmZnEkBXS6SUoFygQKJ2E51gEajCZeuJYbFhToFisLuIbzoTfmYg0axNlUq8rPf/YzDxGxquxq1fX3vvddW+M4SBGLKGFQ+nOYD8sL6UOr1GXWJ+kkP/MtaZk8yFM8q/7JXqoh8IQVF+QlAqcONX9AW974ove231r4pgJ9Jj3y23bYqO63bZzIFXDrfOE/vvh/3DNs3Kk75BG7djPMzMrGmBeGxbWl0wYvuEPbJv0vOzSVly8JQDhmruo5CYn9KLLHYcKq3Kk0hhfooXNiKz0l/OA3eyEIE+Kktx896xZFhPjN8LpD6wiJSANfQcA0Ms6HfjYL65f5hPkQJoCVDrmhZIRGb2f7BfAX5WGOCkoPwmaHG1DyktYPwHEjTLbBnPpVjXx+wz+NVqaNFQPFJXp1MaeHMDTwCD0OHOzarYvnSGAdIS0rNQrPxTMATkMA4l4tBxVuOcQQxt+kRpeTjB966IHy4YwPrYDEcl8mP4OniIvhJIaHWMkTG6+ttQAFf1G26OmoNIET/cgTwn+uFKXbb7+jvPDCiw7LSdUcHEcYliOz7wL1zRJ3eqzgmTzQELgxWLO6DJPyc8mlsTsuVib3XDH5K78pKKkv0ubyHKPKzK8aMx4C5AKd6In0Y7VIfCcu16XCUjURTydbVVRKD6HdeuuttrqMHjXG6cWclDg3y2VYwxEIypviYKLm2HFjHAeb6B2w/37ed4aDKFmJsn7detczG5NxFhJ5QNmCRjp3wZKzXYK5Xxk+LM4iwsKjLBs/pI3ysieC5QQVJMg7btAftN9S10XKwtKyYMFCd36oq5ivxAqjrVZYwLF5B2uL4qJzsw2FRHFAX9AKcidoAWWS7zG3xaDkUZY52Zklzy+++EK59967zRuTJk4ov/973y1HHnWk+G5ZKOSKB76ytQQaq9UhaXBBl/ijorMsdmsH6mWtA+6Jm4y3Dr8q3oT697ZxNEDOWY5WfmrurZ4F9Xyn4kb9WS7ql9/zXq9bNmccMXKkVxaiCKb82bEDGRxtzVcZmsrLlwTaYxoToAS0ibX6Hm7bPHmNbd6xKkDUfEcQsDoFIZONKkJEgRy2PabCDeEejVc7jMOrbuQBP05H8aPYBCO05Mt3/OgXloVoFBFqzhONndxp+AHizHhDGUIAKD411IRBQBIvDSfhcUOw0tgyd4OxefJA76+rBGPOAVkjhWHD+vVOp0/vPp4/wr4RmWbikMbW5a/yg9uiRQvdqGKZgfFRtt59953y2KOPlbfeetu9RhQk0mVOC6VGqWDuzKlSWljJM2ToEPsjbvJJvPRswtKB0OBIhk2em8LY8/wF88sjjz5annnmGeOAya0MIcX4vvCptBi2otGnMaFOqWc28OIoASa4MjH4jDPOsKWnT78+ViS3b480UeLAOwKMfFP+KHclcPXMUFwMd0U9ul71aMuY6iZ7fYDrQnmgLNzBFcNQM2fOLLfecluZ/sEM0yIKGCuBCEWvnoaJ+VjUIfXUv1+/Mm7cWFtWUPIoC2c5HXP0US4PCg75QHGhzhlq2LAx5rq4DsQb3boxb6mfFUxwxjJcFdDlpZwoWeR/TwPKnvWb9U19ceei3mgIoUNkCCdAY2mEb7HOGsfCJUPKOT/F1OE49KB/0AS4RTFX5I4XPxx8iYWNodGci4aFcdDAweXDD2f4IEWUl/Hjx5Zvf/Ob5eSTp3mYkGEieBb6gsbJP0klEH+Cy6Hv7nzVIP1E3Qe9Zvnbg/o3x9nGX36v+2kP6u6/th89N970UHtrlAEAHyE/WsLznTqjLnGjk4obQ+PIlgEDBpo/qW+HMY+HDPqqQ1N5+ZJAWyZJomUCIo04gMCmZ/re++97K24aAbwxzo8QgrDN+CJyCw3FZUsIPWgEgd5RPDIt/MH8yRBAnRiSvPHvMMFZfgacX98lJPVg4ciPuFFE5C3D8pIKD4ByRaNEOA+jyD/hAkgrnyJdcIACQPl69urpZwQkgpNl0lhL2EGWc4hgVJQWllZyOjMmZ/LmMigNwmKFYTIz4RGc8+fN8zEJ+Ju4117urcyaNas89PBD5bnnni3Lly4r/fsPiPwrDsyxa1avsvA+7tjjypVXXVkmTZpoiwgmcnqYWIgoB/UW6XdUvW1047CX0qDM991/f7n11ts8uXqfffdxHlcsX6FQHT28Rx3Pn4tZPeaEALiTFsoNkykPP/zw8r3f/24ZN36cz33ZovJ7lZPwCi7AGVfiMeuPsqSCSUODlSK+Rf3RdJB3asFmf30jDHGhULKajXJg5vcQ0d/9fRk2dKSVQoaC8EujhT/OzgIfbO2PoJ0wYXwZLeUQd/IwbdrUcvnll3nzMSyJ1CcH+RGH6Uo4p7wd1KBCQbgzrDFhwl6ql0GmI9Mdd30nTCpj+N3TwLhQucE1kHjMO3XJTsrvS5agONJL36Q6pp5ReOMgPpSc7V69Rhjw786D0En97xBtCb2ls+oYOkGxoQPBEBCr/0xlygfHN3Tr0rXcdfdd5eabbxYNbimXXnpJufjCC70jMvOeoBdkE/nN1ZBhIQx+S3kAULb6lQAd++5qD7mT8uNfQgP1uOrPQL63dU/4orAGOdVLsSv/bcMmrwIun/7a+qGDm/VMuZEPbD4JfyBz8J9yHpmAbKnH+1WFpvLyJQKIzAxXERbv27aGAGISHSf7YnHhfBdMqzSg3stDPSMaYCrSPX7dk3FpXK0Y6GehVTEAkESd75l2pu9hgspd/wjg+BykCtMIHKn6jbSyLKQJWPOnZZEH3PhOEIRKThZFWCH8YLg4Oh+rhhp7BJvcUgkxAzoPikx/9NLY1AoBCK44fZjeBlYTrxhSWghD/JMed/LDnQMX6XmSBrtMjh8/3ooMJ+M+8eTjnmhKmj279/ScE54R1AjyfabsXc4868xy/PHH2/LCUmWEOhYZGmoUtCz/ZglsJpViHejeo2eZMX2GT8R98623veqJdKlXlM6wkBTHx8WqDvJKvCNHjbRixN49HET4ta99rUxVw49ig8mfcjMExS69WJTAR5YZZLkxcC2BP6FRcef8BCu6fKrqBaqx2V6AMuHhAf14Jo/MoXnzzTfKjTfe6CXiI0eOUh1HA+l6FV0uW77MQ3fkRdRTBkgBHDd2jPHEXi6U+7LLLi1HHsny7bW2IpFn6os4PBwpXEIbXJi7O3XtpgZxUBk0aLAnodPwQhvezVVAWQPvQYdZ3j0JwAH4M79UtJ44hXYXVOeZocBQlzvAM/y+g2EgOkPIlU3EZGXfdSL8Qw9hpaNeNgX9yB25wMaBUffbPHEbWsa6uEx0yWGhzz73jFeNff2G671yrKfodLGUb8sm1authYqPOKhTDnI0PQJypyYBvke9BlC2oO+Wmm75GlD3vyuo+/Gz//hXuSuNXcWzU9gEgvPvi54F9TBZFqDuDs79rqvh6lfkfCm9pLRwQClnQWEJrbwKX/qnKFEOwV09/q8yNJWXLwkkkdYZEaGBMxM3mTjKcliID3d60JAwplssL4Shd849iTyVllydY7eK8ev+MA3TKPmvln4SerxneAlCPAraEg7e7L/yy88Nor75mZ++E29ujEck4Y/8oGDgOYa/rCxImWFeRwphwvAM8J2DE1HYsL54eMhDBwjYmP/i/DruaFSJAyAehms2Kjw9FSwtuL319tvl+eeeK2+/87Z7kPQ6Efq0+eAcIT58+DAP0XC2CrvFIrhp0CMN8khvlWXS0XggNJjtTz0tX7ai3HPvveXFF16ycsCyYeZooDx16BD5W6HGnn1fqGeUVAQ7Qyr9+/d1zxfhdOqpzKs5zYoPYRmG8QTLqgFIi0lClpv829pCPYFH4R8FIYZZ7EXfAz8tc15iJRSNHg0d+Jo9e1a57bbbvdoKxZm0ya+aPjd8WLWwsqxetcoRMu9o1MiRVvKY6MwcJDbKO/a4Y23R2iAlEuWTs2hQVqgr8LVdODcOpcyS/vARo8uAQUO8KsnKtXCDOoZ/FDDn31su+ynKYTP5ngXJZ0n38BAWDeZyMdmbIWe+YWnhDnVskT/oHEUQXjXNCH/coSmUb/gBuoImMGwRN3TCdyx+pi3hHQUb68uLz79Q7r/vvrJB9HDG2WeUS792iRUYrJZWjuQffoXHGFqECOEXnk19ijeBusx7PpuO+VXyLd3/pbAr/xlX/Xvi9FdBPcyv+wyQTkL9G+75bj96hge6dOleBgwcqItT74c4j/jLeUrgBmUQHgfXAa3T/CpCU3n5kkD2ipI4ESo0AjQOECjfcEOQIGzwRy+bBgOzL6Z6AKKG8REixMll4YOQ0bedGAM3pJDffZMogLSD2PnuRkF/kQ+GIaIBNCPLC8EIQ75oEB0e5uG7vtI4R54pQ+y+6sRIuwqHwMINpcXDYfrRUEZ5aJARiqGEMNzEfAiUOcpHg9gbS4vcEby4kRZ5wD+QeOPuFRWzZ3tuCrvjgjusL3fddVd54YXnPam0ezcOY4wGkztLoBlqOvHEk8rXJIDHcZLtmlW2AoEeCwaEOMqLfigvHBJHHgYOHCQ/Hcv9DzxQfvazG22S5zBChAvlo+cEHtasXeXGhSFB8MA3FJVxY8Y6nSVLFnl45frrr5cC0dPDMVgw8EddYO53RFz6F3WESTl6zHJw75keLt/BB16NL/kzPejiB7he5YeGjzphR1783H333eWmm262O0oEe8t4sqaqe9PGsACxZ4uoRUqkFK+hQ8tee00oSz0ZdEM55ZSTPUTEPjTMx8HyRv5tZZFSi7IGUplszPwf6LlXD06QHln69h8oWohdW8ku5aMQ2ask15RbX5x3ysjcmD0OoCvhxoqF6Az64YwtrLcoMdQnCi6KIvjj/KcOohNh0hYTaImdpfkenYewpPAODcT8tbC2ACJhA+kNGzLEB37efuut5blnni1TJu9drr32mnLBheeJt9Zaqe2itOAtZBpznqLjEvWO1ZAdYLE4cso7YNqsg9+VaJUugB8u+IELyHvQxs5Qjzf9AvjP+BKSz34V1MM0nnVLvgLa9VNBPR+tv8ld70nXxr/qdq+9JtkKyWRqZDM4dRzyG5Z1eB2ZqCj83jq9ryo0lZfdABBknUCTKaArBA7CnN4Re4mwHNaEpx9ECf0juAHi8a9qeLhMrO3UKGmI3g3+zD9lgWaznpcGVE6pCLmhw5/CIVhIy0qRLo+Ri3EAGl0rJ4IYtmlpXHH3N8VBg4obDRXl4RlhhqWBCX8+j0jhXBz9Qyjil71RUFqYRIilBSsAVhbSR3mAeYkLJYJC0LjROKPUoBhwTAJ43GfvKYWDx7DevPLKL706BusWvRcsALkHC/mk7BMnTSyXXva1cuSRRzo84cARuGH5MwoBefWOvFi8lIde3Xt4efVrr79R/u4f/qF89PHMMnbcOO+vs3nTlrJ9q/wpEsq9ir1kli81Tj3/RI0DcwVGjxnteSxDhw3xqcknnHiil5YC1LXru6rMwDeCjUYIRRM60xcaBfuIOsHRE7ntEoKafFMOhukIQ4NFXmj3qR8Ul3ffea/87d/+nRTqV8p+++1vd2/4p7AoIWtXrykrli5z3RAWZW/EiOFeCbVIPf3hI0ZI8bq2HHPMMVa4maPUqbPqWHnAOoiCyhAow1PgnGcmHbKCCkUHpU9ZVbYrQt6DYKf2BtrTDd4AV1zJd1AVJ2RjLQtrywofxMoQJH7Mt0Ik9ReKfvTSqXjone9sUgdBU7dWgpQeNANPoOzTIdksmvekXfEa1k9ohOHbp596qrz+6qtSlmaWs884s/zwhz+Usj+mzJn7eZXXlHdhOaYxznffXQol78puH9qVWQJcCZ/3jDd9N9Aot8ZzBfhrgB4tWyu3TK8eD998kU99x089jvoz+QDw80X+AL5TB9QNdz5jUaYziwWX73QChwwZWkaMHFG6q+PWOoY9A5rKy24AGDgFSAoehAem9qVLlnkcGOsADRM/vlFJ+IOSEUBh/gsmiKtidAktuxOiXrOSfsl4KAJmoobLzkD4YLiKaWtcK1kWAg1lwQ1lMCfvZkT9kVfSIHj2/BoMrB/+iBIFhfIx7EFQhkEoGtv64x8GJh6EMMMjhEMRYUwXyxPPlJ2eIDjFrzcqU1wwON+9nHzxElsIsIKMHjXKvXqW8rI77quvvlIpXzGfg4yRN8rDnAyGZ44/8Tg1oAzbkC8pGIo365B8884zbjTarH6a+/kc7yr7igQ5De9A9Y5CuZPCp3KRP5Y9M7TCPiZCqhsGVunQ4JMOjcm5555rawVzXhgmyyEazz8CoRXkBNW8J1AN5NHKjRp+4g2lLuqIy/Wnbygx4CDc2b+jZ1m8ZInn57zwwksO36+fFLyq10xc6zass7WF5eT0lnt2j0MqOWwxevGdPDeIlVD9+/ez4kI9mp5Fl+SXHj2NGMonVhyENHNqBgtnWHdQaJQh5Y0St5RtT4FWygv1WT2Cw+QrcOqhNtHFtu0dPPyIQk7doGQm4A+eJFwqvykL0s3Dpao3+DzkE5O/pViKboPnSuEwT5RcVvLBW7M/+aQ8+eQT5eMPPypjpXRfc/VV5Zyzz1Hs203f0Ao0l+mQJnIs8w+QN9KkDAB0+C8GyuXyBBDSZdVVjwe39qDuvis/kW8B/KEfctJ+dbUN0TY+ruS3tt8S8sm80QD8IytD1iL3WEWELGPeY4cKp3saNJWX3yBApBA/DTL3JFAaROa1YG3B3E6jCbhxFDlD7OGXRoZVN4w3y4/+gu5hjLhHL5sPdvUdsPdd0Hi7AqIKT7rk2wqUBIqFnCKy0qJHymFLg/wg7MzSVX5dXgQp5aiEJXES1r0KeoFYduwWShxhFEoCMpQWFBYaOxrLHKaInl9sbR04jV6KlSfyg2KlPBIfG24RniGovffex/dZsz4pd6sxfuON1z381KVb7oOiRhQhrXyx6uVkKQxnn3V2Gaxn5uhwAWkpirokndjwjLKzyRyNxf333V+eUQ+UpcJD1JCDLJ7pQYFLFCpv6a/yWSlTXFgXYunzGpePOTVMZkVYbdsePWbyz9AL8bm8PDWqr6UewU3WKzgC3MvVnXj45mEmAfUKzlAyiINyMVyD1ey22+8od9xxh797tZWUBxQn8L1y1Qrhj5OfV9vyQs985LDhnpDLO6ummMzMRnPGoRRSFLaWekNhCiuc8ys8xiGL3dRTn1D6sYW5lEpRk8qvOlV5qdeqOHsU1JUX908qSFwC6QVr7eIly8vMmZ94UjT02lWKbw7ZEsZyhHfVGSFRSh2X3qA9aI5k4DvwDs/aYiLFFqsjlkb4kbktTP598onHy7vvviteW+Ozp669+hofPMr5XSgP8OJWrJmuw+BT0uIZeqQMPFO5uEMbkSe9tIEsZ1tImsq4nI6eI6HwY6jSqEPiEKg/Ox7dUykir0DGn0C6bSHjqceXgFuGb5s29WslXmnBbyh4vJNpNpobO2as6oeNRtWJUh1EHe550FRefoMAsSL0aay4IyQYGnr7rbf1MRpu3LAypJBh5Qi99ejlhqmXC0EURK+rVoMId8LZqXKHVeGTFmarhcG9FWcH8Dm8R2OWvXGEmBsQfUmFhOAIJ/LuXpPcbBWAEfXOHTf82Aytd+Z10NgRhmES3DxHRnc3oh1iT5fspaO00KDi3+Wr4swyNfInJseJTbdQBvE3adKkMmrUaB/699jjj5ebb7qpLF+2JCbbEoeUuqwX8H7UUUe6wT300MO89wRWsM7dKoUFQaEEKEukFcM+vXv19qS5l158qfzoRz8uc5U2QgbrA2f4hDLVweVhK3yUVIZNqBuWE8fprn09kZKhlm9969vluOOOLXPnznHZ6dkyqZU80GgAKprTp7yuBAMxRn0g/HmjDgA2DwPACXnHD89cPG/atMV5GaO8vP766+XP/p//p8ycNbuMGTPGVpC1q6P3Do5WrkRxiZ2DEbJs5kdjNVB5nTFjujfr+9Y3v1WOO/444w/LGniywFUdskqI3KDIceaK5zmJttjCHKtNj+5qPF02VY7uKE/QR7hlWfccsPKiYkdNtgCyANzxDWsVyso7775T1q7boIuDN1H+YpfqFn4NHKYVJawfO0oemEicKPDQXILpTrxr5YWhPYUdPGigD/y8//77bHGZMmWKj3L43e/8juc3YVH0cK78sooMa2l7AD1BzK2sJlUe26tr6LU9wN3lqyDD4t6IR0GDQwLq/slDfskwvvRryLN6XALLN35ybwv4yzB1SDd4Lt/rQI6oD8s6/fhOnaCwYAlGseQ7vOF2oml5acJvApJQ6XnTULFFOic+Mz6tunDvH2WFHjY9euZeeGmwAMUBRoFgWwge8vatAt5rxCx3MwAsUYXJ3k+46ydGaAu4Zw/dP4cJawa9AZQpOXtiKm72654Z5uUWRudHeK9+UTIoCFgwmF+BaRr/lIc4UCAsRDdvcEONO3ig8YZhnXYlbOoCBHczsdxoTMEr/gg3btw45+2dd94pDzzwoHuHjM/36d1T6XBeCz28KB97I1z6ta+VAw480OP3zENhTxb2TJGnRtrER17BB40DeZz58czy4IMPeYiI+RsjRozw/B3Cgyjyx7Agm+etXLlKLiEEOWuEYSbqpkfP7l7FdPbZZ/vbihXLPS+H/NkyJCEF3sErCkzg2Fmyf/35jjs4Ae+UD5wGfvlGGULJAwhPGKwdKAzz5y8o9913n4fTaHQGDB4sGtxSNm/c5PhoKNm63Yc7qp45VG/UqJFWLDlsklphUjHlYIdg6oP8MBEXPIHDUL45n0a/7ZStlIFSfoYP58C4vqZzC+eqvp3H6jnK2VL3ewpQ4p25VLQonEAL0Nann33mTRaZ4+LVJZID1Dv4h8+gWWQJllsjFTAuQ5nt0DGUcSsz8g+NMowIICOoQ5Yvw8t8f/WXL5WHHnrISg7nZ1126WVlv/32K4uXLPJ3W2qUPyus4hPzj5IlZw1QPuAnFBfyCTgPyvevDVUcqQTthDO+V4+tnivI9IH6864AP22VF1NmRZ+Uw37axGU8CFxGffLXyg+nQu9QcOI1nevCIjtCvMFZYcG3WKrjvCeH8f89D5rKy28YUFDYX4EGNqwpMSQDA0PkNCK40wBu3ISZVZUkIaD/8hNKC42mGyFqDvrmVzFM8ADv3MKdH56twLSCcG+P+vEdKxFiEh+Cj7hhPLash/EQYqFwKP9qnOmREc4pOjuIPwRjp8pELSXF8cWEzNwGnMaMsXrKzTAE811YgUCj7vkjlaUhARwQJ0DalBFrFZYWhDiTZEd6WW4f7z9y7733lrffftsNaeAJYc5mXMq7cD9QPcjzzjuvnHTSSWXggP5urGMeDdYJBLAKrmC2DAmoKxpiJpMuXLCo3HPPveW5556zAtq7dx/nL5QMBFQHW1tQVskbeIohor5e6YQbQ2YnnXRiueCiC+1uCwU0gcKibzFPIJRWeq8W9lW5SYt0eMYv6QWNuALsj/xTVholTy6kjkRDPBI3QpEVT48/9riPJ2C1FTt0spKB5a8UnuXNDAmg0KH8kecB/fuViXtNsIK2etVKH6Z3xVVXeKIxQJ2QJ/LCnBVPxqYBVZz0KsFRz179lH6fxqovgOFHTi/GJJ5lJZ4sF/cmBECTq1avskzBimulTzjaLPyBc3CFLAFj4DvrHj/QYg7puJ6kNALQGcBKMUVg/LOxHHNb6BB88MEH5b577ykfzXi/7C9l5Tu/+51yoBR+LKjsPxR1FTIN2oHGXHcwUb3u9Iw7nTWAPHEZ8FY9tgcNf22A+Miv06v88MyVUH+u+2kFeqUMdVf8tvWXcbcXZ/qvf6v7twwT3/lr5QflRczlMiD34KXBQ4basuvvVVjO8QK/4HpPhaby8q8AiDOFKw0whIRlIZ/zO3fc2RDqtddft5BGUCDMk8Hxk8vZUFJSCIlcoyfBpXfczBr+JpB7Mis/pxtfwn/1SNzOj/zin4uw9GgxARMe/9zJE40cPW8mifKJuRm6meHwY4uLmIzxb6xDDFFYuSIx/1N0akjpRbM8knxQ7mzESIM4vIW40vLhhVJcYFj2M2GJcCotpEe6iUfKSOOHkKUcmMrZTI6hCoZfsJqgqDz22GPlpz/9qf2hbAA0qN6DotMOPa8v06ZOlfD93YaVwHgxHklPjb8acMoJnigPChqHDLIh1J133Fl+duPP3Tgw14VTklOpyom5K1cs98aC5Jly0Hvde9Ikr5KaMWNGOezww8r3v/e9csAB+5e58+aqkYgeMoCyRwPCmDZKieu+qiMu8liH9CPM6wpaoDwoQ7EirKutTdAn7riRbw70/N//23/38QdYnSgzYWz5k5LHEBdDP2vXrbG1hWXknJI9YsSw8u4779ha8oc//KE3y1u2Yqkta/S8OQ3b+XRjGXMQ1PQAAPD6SURBVLzBEBF13113FKQRI0YrX6obZ5l/kGEI9IqM9igAX3mHDsyLduto5YF64Z26A58fzfzYxzLglmHgMywv0GrGxREW1In9VPIJoB6gC1QLaBa5Q/1CRnS01q9ba0V15IjhHga66647veRfAkJ0+93ye+Id5M4qKa9BbyHPqD0l5W/8+GPfFxwzr/V5L7xTViSW+c10HMC3hHyuf0/IeKsXx90W2saV8bR1T8jnvFui6q/hRzdSgp+Iq718GSp/LXFLoZfcIBwXdUL5kfUd9Ew9si8SK4qs6GP1avA7aewinT0ImsrLvxKSYFPIQHTZaOBGb4fGleEKKzYSFGFpQeFoIXiEO240HBV/6Ds9K0y8JCTx5UYAwa50RMikZ4KvGMeNHoPjySCOJ4jcLlXjACRr892WHb2SV+LDomKBpngwXxI/QLm4aPwoC42rQWGNA+WVME5Tf8Rl64qecymux44VJ3EQkAmzWCYoD0ufaQjZ9Mw5VFyUKRmcNGBk3D0EI0WE5Z8IdLapp1cIsDcO5mzOJEIBw9pDGPJOqdm/Yq+9xpVLLr7Iy3bJSwxvMAxWTWL1/wDy4HfFQ8PAEBFb+r+vHiiKTM9evYQ7FI2wHjG0Ql0uW77cS0c9dq00+/bpU0YMH668r/VJrxdccIGtPVgaSJ98UU7eSRBl0CZ84SuGtqh/Z8nlMWIrwD3oSA/6xD3M54FrHombeqV+GI7ieIU77rxLvej7XEbOBwKXW7dGfYPj5StXKG+rrLyy0dyQwYPLUF00UihC06aeVC668CKvjqK8nbqovpSm8S16jTpESMd+P6QDXZAWc1s6d0JBzXJQiHgi53siUG/gzPVX0TwADlGOoT/cOVaB1URMSIfvcKOemfzv4VAhEn6DZlASiCfoR0qK6hj/zDuCJ1h5h+KCQoQ7yj7DgVjr3IlRFj7+6EN1Bh4tH330ka0tX//618spp0z1vK20tsDr5CHmtVGHUYtJh52QP3r2mz3Es8uo5/AX7/zipfJbQT5XX1sBX9rza9Bj5segb7yRTmv38EceMjz3VnEBlb+Eel3lva2fRhy+VfypP3BHGN/FH4PUkcJ63KdvH8sRYmudPi7tYWDPgqby8m8AdSK3AiFAQNNbxZyL8kJDC7HGVs6VMIHIFRTCh0hjmKJF8eFO4wXAZHyDGXKctcF4JK+oaCx2pbw4bfSiTBdnew0FCCAulAjKYGFkC1CY7N0A60ejhUXBiouTrpSbKg9YcUiLRhA3VosgBJmwSToISAQcVo+N1aRdGlRm0TNERFo5TIL/OtOSb95RDjhFGwWKuSUwOvlDsDJfg/Na2EAulTLyl+WYOHGiT3yeNvVET9glLuoGy0wKb+NHPV33IhWe/PWU33nz55cH1et88aWXyY0PFqSslAEUEJYGH0WE8qcyOGjwIFuTJJpcdxzeeMaZp8utn1cWGXXUi+clKeWqzi24qnqi4QnLSnwDD1x8zn9Rt3xUPTAvQfmhIaI+XSbRHpOKsZY99vhjHu7iwEcmyeKXuQscbMiwIIco0jhiKQIPbOg3aNAA5X+bG7sDDjjAJz9jMWL4gZOfnaaz4gw5HNUHXUP35GuYlDfmtnBuUdQtfsM/N1x2BURhXMTrbyVAL9QXPAINcY96DMUT2po565OydElYuPBD3eIHekNZ93Bjhxgqcnzwr/jQw7ryR5zunOg7E9Itj/TDL8hFjniui9yXSkl68YUXymuvvuJ4mMjOEOvIkcO92gz+yQn3aR0gD64o/9WUEtF+K6i+B7/xLofqOWiD1xYlAqg/fxG0DfMviaPuHvzCXxW2/twOgH+AcFke/Lbr34TMd/i0i5RJFMfOlhPch48eFXKUOBUX9ICMaeDJHJDPey40lZd/BUBcyVyptNBAMkzAoX7Ma8lvCAZ6RR1FnDb/KRw9a9zplbJSgCGDFCAWAoqLBpg4glRD8SFdGkF/VzyZB/uItq0CuTVqV36qJwOfFIYrmCRWGXh8XG5WXKxQSZmQOwINf7iTT+ehCk/6uScEAhQ3lAn3wOS2adMGC08gG3UPIcgPByj2ltKC4oBwALBIofAAKcCJjzCM67NTKMND++yzj3GA8nHvvfeURx55xENz7BUDvlgeSs+QvDJMg9Jw7nnnehLv4oULHD9WHsrMvA3qQYl7SAirBI0AlhVOMkYpevyJx61ssNMrjQnDZazOIRwmdpRU7rZKqUHv1btn2Wv8BKWyQ/laYivPN9Rj5fwRzvxB0cFq01FlZU5JD/WqAZQUwPkBwLHKWVdeAPeodbdQ46qeaUyYtwPeWO3B5lZeHTJkaHnjjbfKP/7jP5bpM2aU4cOGeyI0uwuDX57J15LFS0Wr6o2rfNQN+WU7/9mfzvIKk0suuaSaVFyk5Cw3DpifQj1QFpQu6jPpk1VM7EkxbOhwKWwDnE/G7Mkx9AxU8rxdaNAtfvTyBV6/8gCtmp9UX/BJyo5uXbuXBYsWlQ8/+tByJfiB4dpY3s/wLsCwHBWDlQZMUUdYBT1PqZJRtsDoDp+a57lQPFVvKLADBwwwPz/68MNS1u8X7XT0OV7XXnN1Oeqoo73KDGtLd/EZ+UWOkVbs9xLnIbmOFH8qLqTFe1ugrP5WPXMBxAvUvwP1511Be/7/JXHU3evp+q6Lt12Frec37/ht6z8wo0vfkaPwM/XSr3//Mn7ceNWDlErxObwO/2T7EPUTncydIdLc06CpvPwrAcLL3g/DHwxjsPlZNBzsrRAnteKnhxqHPGMCgUMjDYFGz5R5JTGeTTjiowH0pFI+VrWUwy45tID/6DnRY495GknKZrcqnD/oixkqG0X8yt2NjH4woJlQ7mHFkR95tYByLzric5pyo+zkA6aiPLHRWJirEa4wHmVnt1zKikLAHhQoC729pX/LZFziIzkUJeXSZSI8eCSP4BVrC2myJBNrC5YtDlC877571RhPd8+QSbr0AFEisKZg/j7k0EPLBeefXw477DCnj3LZq0ePhoAgjwgRTvBOAeGde5X2G2++WW679fYy69PZtlCQXxpp6gygXlFoUETohXIxqZbzj/r27e35IjQGV199VZl28jQrU5x8TePO0A2bzlEb3p1U7q61rB4QAjagE+XPCowcqdesR96BRn0JaIS8e7Dyhj9WK7DK6cGHHi233naH6WrcuLHOMzgmv+RjzudzPPkTWgAvbOs/eNAA4wdL2VFHH+l9Z1hRskDKX0zADWshww4oTVtNF1Fn7NLKQYyDhLcRw0cax2mBibJgSQy6+kLlxd8qpOjlC7z+1gD44wL31NGbb77t/VQYkkue5QqeZU7LRtM7tOm6oBGs5AR4xzoWHQp1IoRv5sCgnMKryI3NCg9vYU1kR+fHH3+0vP/ee6V/377lggvPL1defnnpJWWFFXDwCB2E9aJ18kA40iUv5CEtlilnLDe4Zx3WgLqsu7rcujesNXrP8ICf/VoPFRDO4d7ipUpV/1qlX723jb/uTlz+wj2f24D9CaijhHTbFaj2TP9EyAR/Jqv3lCx0nen7Vvhd3zNv8Ctyp56GMFTdgVY91j0GmsrLvwHAuPRA3xOzw8AQXN4hPIiQhhCyjcPLxBz8RKAwuJcuChACNKgII37ZIHlim2qJeOALKixYnOcqLQSFnLCUZINmdqtql/AIhBQoDE2gRNiyIzeUE8CMZ78oE/TqwgKTcZmJyX/V8JN29CCijPWhGvyRjvcoUeOHH5QCVrfQUySfLqP84T+UL8pPfM6OrRkoLjAuDTx7jpAuS5+xtKC8YAHhrBTnRWHDdN2xTJ48qZwvpeVQKS9MAGa1DACeOzvvWK8iIRpcerLMKejZo1eZNXu2rS3sdwKeBg4apHRiky/Sp1GJPVti7g2KAjBI/rhYnTFoYH9v0sa8Fja9Y28bGhkUF/ZmsIBW+q53ClzRBvVNXdLogI+YGxX1Cn5tkan88T2vhHzvJWWZhgwc3XXnnVLA5ihvQ93ArF+/1ulSHjbVQxGk1wze+vfr7+E4FL+1UqjGjB5Vzj3/3HLEkYcr3uI9OwjLi5XUao6M6UK44s4uwEzIHjFilFdldWB3UGVbBdCzyi6ainwGbUknaRfCnYBcgMLsyvNvAZhnKr6CxlDYWfrMlgrUJXTD8A9+GNIzjYgmPFQkuicMFw0h+IW3+Q5v8kwcVi7Ao77HkFLX0k09e5ZZw1cfvP9+WSTl9JCDDiyXXHJxOeKII+VbCo94WMmb36k15Bf55IIeMu9uZPUc1RYNMD/ywb0Bdq/A3uUHAuNV34I+InyC46q916Gtv4Sd/Os1Uya1xteau4G0fPMHf1OOIpAg8wpQZvxlng1V+Hxv3KVsEGWusosjTmJeHDjl2AX8wpvRbrQHTeWlqbzUAIJJAoQhuSdRovlGA7fJjZktA2LiZRIs7NjqeQ40fmoYmNwI4RE+BRFxOE694w4QNyZ2vsH8uHPxngD508jRyKefbKAzTvw0FB2HjfA80sDhxw2l/mAQelv0yCyEEDQC/MAobpQE5A0hCJCm49BFeYgIJYndULG20BiCH/yTPj+GKbDGYHlgZ1VWlmABYPjI5dAv08TsHGnEPBf2VUExYIgIvDIRlwm5ffv0LXPmfG6l4rlnn7PFA3Mq6XbsGENVhMPqweGJjM2jELH8Wgm48adxBieUH0FOXZIHryIaOEjh15V//qd/Ls8//4KHUbyZmvMGTrZ7qAtlZdnSpV5FRT2DA+bPjBw5wo1yx04dypFHHlEuuOC8MlLCCWsMZaXxAG+ki4WJhsO1JZyRBlfUadSflRVfwqjcqWN60KYph9HFs3CGskA4lCgaLoTiu+++V370ox+VGTM+9PlAmKS96kT+sIZxsi9DRsx7sOLWvWuZKDyzsy3Db9u3by3XXnOVdxoGt9lbp66VsusKsDDWPaxSm122yZMnew4Twx0ul/218BdvPAdR6vYFENiI/8Tx2wCUwnWtC/pD8aAOoEtolqX1zJdDecmSg3+e2XMnhmoiHuiETgb0AR3iiLK4RfydCi4bJWIp49m7FksOwDfwJW5vvf5aefbpJ8xz3bp2s6Xw+uuu1beOUtCDzqFd8J9ppVxCHrlOlTnTKTRungxZR+fM35Vm1iPfiSvKjkLG6jZ4NNLAP3LE0SrOvBKIKaHFNaCtXwD+2xU4b4J6uJ3821n/5Df40a4Gh4O3VRbzud5T7uMffHAHD7gxVD506HDJw/6WnZQ3o+eu2BrhM287Qy0DrbCx50BTeakBRGem0Z0GFoHN8APPNFwQCQ0/igvWADb0Yp8PLAv48ZLWKjy9GVss5Jd3wkKHQdykFeZe3BAQLf7i3X71buGmBhpapbEgf248+Ka4gkGQC6G84A/idzqKvyXOEAhmBvwJHJ7GtoqTOw0rSk2Gc/zEWL1b8VB4zkqBwWjgEZAoMvT03ajKH0oA+4UwjMN+IOwUjH/icR4EPOc7wst5kB9WUDCujxWECbbsKklj+uwzz5R77r7HS3tjci9DE+ut7GzbHub1qVNPKtddd53CjCsLFix0On379rE/6pA5LpSJ03ARHGvXrbOwxlrC2T1/+n/8nzats6oGCxFKDYKWjfmwmLCz7IL58z1EQkFRTBiC6ac0sBKR7mWXXVYOO/xQ4URpCpcIe8pG/qw4CIdAYDQEFXW+rcIxAIZcpwI3GnKIRov5DTG3gGMNwJ/rWkEpD3lGefnJT/7RuOKd5dBYiNaoThiuo+c9R43UCpWF+d3gf8jQwWWvCRNsIVuqXv4RUr6uuebqMmHCGIVb63KiiDA3CPxQDivoUlygdXLOnK7Jk6cov5299DzrljxTxiYE0FhRYeAH3DE/yfUqBRTFeO78eeXjmTNFs+uEY4ZPt5eNmzeZHrBY0nHx2UPwouJDoeXcIRpHLH5YZLbtiGX9pAFdIMuod2jHfKhfzx493AF44MEHyjtvvl42b1hbDj744PKNb3zD1kq+ofijwCcQX95Tac2ypDtbHzCshEzA2pgdFg+Vyw/pY/mkPA0Lr5UjrHOKS7RFgx9iQiFwq+LmmQ91GVKHej4SeG7rLwHeIS7XiVKxL/0jX+0BiktCPU7qCAWUjgQdCspCObZT1ZFV1xs7VcMbDEHD88HplYcm/FrQVF5qADFCdNEYBMGb0Y2hILAl6qmy6oTTicP0jX+UijCXxjBEKDBmhQhsBgG8zwpMLGfiTv/EgRvebJ2RKyHpIRGGF/zb9CqmACL+lrgNejTTkA6CQd/aTv6NRjSERvbucW8oW45GedKzy6hw6YeUtu+IFRGZx4yDfHKiMIoN78z1YJ6Ph3QqYeBwVVzkqa60oLDkJGd2nmViLY0my8zZ8fXtt96ydSsn826VwKYcCPSDDtrfE3IPP/wICerOEvwSmlIwyB9+yClzOxDo9FpxodeHNeijjz4uN998i4f9OPCsezc2gqtWbyhfwMYNm7zCg2WoqWiimA0cOMB1hzLFKqbTTz/NCgJzTDiPKARyCMPcl0XFNygK/hsf0A8KFc/ugRq7gWEaJcoUymjUiS1WKpcVW/njO0rDCy+86Dk6DAVxNAFDYChulIOe4ZKlS8oyfaNszA1iQjI75DKxl4Zq6NAh5dxzzyknnnii8NWt5EnXhFWLYtolHQ5IRJGnQSKu4SNG2nLVt29/5w38cCU/NaEFqNVouMVzqs9OHTuXLaJJFP5PP/tUdbTUc49MO6IE8I9ii6UOvrTSqEisGAv34Jm9WWIPJaw3Ug6kaK4TDxACRYAVYhAcvIMCQxs8c+bHopfnbeEZOKBfueC8s8tFF13k7yi71CvPpJf16fyTuB4tDXCXm79Vz1iOfDp5lTb0ilfcmYvlRls0QblQwuvyIHUDdwIj5nAQZPqA8yCou/HMVf+W164g85Zh5Jm/Ku32APf4FvESrkU+clFv8Ko7s/CCCgXvsz3AUCkuzK1LuZLhm/DrQ1N5aQMpbCFGC20EiFRnTlCdP29e+WTWLPeOYC6WldJY2zoifxFGjYsZk4YrTKIwAkIfd7/LPwyMiRjAPdNEqNF4mUXkRoPWiIeGywxjdsGH/SXjES/xOH6+6y/j48XMRQgHIgBh5N951gtBFBd5pewIGwSkG1M3vBEeZQGmZwgBgYlyhGkZgYfi1a9vX8+ebzAoaegHLh1/llXfaegYukAZpJFFaeEsIr6x+RZKy8svv+xNsOhtxh4VKGAhwKfsM8XWFg4xxMLilTWKs0KJ0yJdrCa5XJv3ESNHlQ+mTy+33357ef31Nx03w1Pkf9NGVkxIkCqSnNeyXg0Lihb46N2nlxt54qFHe8ghB3t79PETxhsPCOSwQkU5uTIPfAdfdYUw6kW4B8+qr6hboPqmi3SsTPGdcCpXR7lRHvKNuf/Gn91Y3nr7HU8C5ABIyitvDksvGmthzj+iN84QEcu1VyxfbusVp2dzejV4pNw0dChgZAdrDitYlBUpOmqA3KhygGM/788zVIKZHYajvMzHiKFALuqSemhCBa7T4DXobdWq1WX2p7OttFBP0ALKInULjsF9DBPFHBXogG+JU6QF8giAkrp0Ff136uI5WlBT+N1Wuqo+vUGj4njg/vttyYQejj/+uHLdtVeXffed4rjJA/RBvTGkiBxIOgQiJWiX9CgOD6TsF6Zg6yudmbC4oeTylaErOjaUl4nADGVSfixHObeOvMErTk/hq1hbAenXXTNfmUfwWjlYXrZyawcyPJAdv6qQOwH5cZ5aZQsaD9mPnHTHQjgnrs7qFPQWPzFxvf+A/lVdVh0Zp0tCu85bE3YNTeWlBhAtTEtvPwUvvV6GKT779HOvVAnmqg5DqwiPXisMwJALZtJs1IKZQuFwr1m/bLiiEYo0IWaD3t270jfCuvHTOxBxiQkVljgIR3z84ZZ+aFxxROAgOBAiGZYLyPQRaPh3vHKnJ48gASgDaaMs8J0eVM4PoXtE4wQw34OVKh7G0LfRPsQvllASR+CJnkfkEZySL+dNz+AWxYUGeP/99/fwDcf4P/nkk57bkiuMWIaJAHejrbAM00ydNtU9RXZ7XbR4YSU0+E5akQ44Jt+Rx80+NoA6/qka+vskwMnfuLHj7RehCk4w7TIEwqokGnEEOgfSgasxY1g2PMCTGydNmly+/o3rbWpHoWVCMJYQz/cRfsg3Qoo4ebbyglIg2gAa9aE8UufUC8+u1uobN5QI6JDyoZCAA7YL3yjcs2z7Fzf9ovz5n/+55wTttdfEsnIVK4ZiGIlwrFJh+TMmb3rmrNTae/JkW16Wq4x77TWhfPvb3/KBlAzZQXcMKaAwklfqnl4kOGXoiDuWLQ6KmzBBCpDwEXXNfJuwugDgFNzFkEVTeUkAPe64qFPERH8Uzzmicxp7GjfqhaNBoDd4JOROdHSoU/gSZQV6YEiHRn6T/MCD4Bz+XLFqjVd+daOx1J3lzgOkMCxbusQHk7795pveKPEPf/iD8s1vfrMsX8G+PsucXq+evaTArLYyCt8x/ANkvRr0mK+45zekkjtY+jP9K132C1qwYH7ZIEVp9qzZPv+ri3jyhOOP9wpANisEcqduzk8Ka3OLEkG++PFXz0fb5/o70Pa9LRBvnTZDHofS1R5YllfPCcSB9djxqE6dD/2QO+yrNHzEiNKzV099izLC61ZiVL+NAjbh14am8lKDJHSIF4L89NPPPMufBoxeA4wFBeIrV1ikSZ8wCmSrRcx3kWIgYqahIS43pDCEAvPOg7XzKk0aNhq5nAcTQog+FUqF4taDJ/PJnTAwiplEl9nafuPZf0SiMDREKE4AggR30rXSYv/yowaffFqJkgNM54mlanh4z15dfiNO0mdohEmEmJYZfkEBcWOlsiC4aGhRoghO2QAELg07w0M0qpSHFUTsJUK+2B2Xbf0ZKkIhwD8Ce/PmjY6vX58+ZT8pOWyQdthhh7j8KB008KAy7pXpVu9WHpVXFCoOHnz99TfKrbfdVmZ+8okUpcEem8d6RuGoS8LR82T1DRYX8kTj27N7V2+RTmHY+fLUU04t06ZNK917Yp5f5zISh+tZL1aydA98RV2TIWoi88d31wzuanCIwj70R3xWaHThH7z2lFJFwwat4GnmJ5+Wf/7nn+o+s3A0Ahu/YSEMBbhDWblihRvH1WrIoL1+fXqrtzvEZzlRRnDLpGKG28gPQ0Rh5YuhCcq9Tfgj79AlyzlVQvfoJ0pxo75pPJkPBO0Qlkm+AHiwMK+eKUMTAqAHhnQ+/+xzK+/ULZYH6tqNtrBMfUAE0LN3b65wiF/mHcHLHppQPUEr0AN4RnG2NRW6UV1hUYw9YLaXl154odx9153e8n/qiSeVP/j+97xb7qLFi0yD8DyyhnpLuo+JtEFPToV61OUbFMtzfPBQLG+EJf/IGIYpmQsG/flwVbm/Ih7nrDGGlVH8GerF2hdxR1wGyqEfaaeMI0l/qvzU6Yrn+gVkvncF5NXyUd7IM+GQ3RVSdwIrZmSj8b0lb3zjTjvRt19fz21hRRF771he6+fOjOKP8O0rSE34l8FvtfICgUCMJiwRT76nYM1vQUgOYLfYYG6RmQ7iFFtYgMRzEHkKdBqpJHogCbgRv9xgXPzQWJkxBAgpnsmLGwn8W8mAOWCHAMa668KDD3xFyDhNguCm7w3lqnLnExDfoqGMyX0RNhUb3BCcNGYwGO98R1lKZYDyEAfCJ4dGcGdfCBoxzNzOo9ywQNETocy4IWARjED2NAF6XAwToVigrDz88MMWasy9II8AZce0zURbVrCcfc5ZNnPTwJIn8oHyRJ4RDGSBNCkXEyGxonDY4SefzPIQEenQ+PfrN0BpSAHbsN7vpIOysnTpMuU39uUhfvI2ePAgxbmj9JbwPebYY71fy1gpXPjZtGUTCTp8XM6AkU+JiYNGPfAQc3TSb+AraGbHjhBoNDyKwHURCgE99FBgUeJQIGap93rHHXeUl156xfNaqCP8kx/iwNTPnJect8C3MaM586mfjyvAzwknnFDOOuusMkIKGTik3pjLRJ1ygX8r26IL6s6Wn05dyoiRIz0BuJNxhlUpBLKCOO8UCYiyQHF7DlBe16kg6j06G6FgtOCDieSfz51r+cJqOvM/9C5cI2fgJRRQ4qAOHGPFp2LC0kn+QfimzRxg2s17tKDYQye2AkuNYJfknmxJID7kmAx2yf1ESi57D339huvL+eedJx5h40yW7kvptCyqOjbV5YnlVXmSLkjXoLz6Ud/pmEADWBWIi7JSLugaOUD58MfGh1hzsKz+4safO2r2bGLzRqyB8PF2OhCKK+gPPGZDT9Ghx1peKmj73HhPZ4UhDvCpj84L71zwR4JlpD4jF6m3erx84A2Jbgtp1IplJHzqPOJBd+bCjRwRJ607DF4zKtJAzuuecTTh/x3sEcoLhGhmgMAE0ZjGNvgQNBf+5i9YYEsCFhesLZ6QiMBwsCDOVDoqR98gwhwe8rN+3NPSEd8rpnJaYSEgfeJHgMC4rgj+Oc4A9nVouNfAjChw/DSYPOtndzGHi+q040sqKvywtKQlhDzRAMGEuKcAYgIgYVLwkl8aR3rsWJrYmwAmTXMpF+VgLxbwjdXEDa+ARhdhRi+TRpVlvBMmTPDwCwL8F7/4RXnqqaeMc8cl/DI2zzNuY8eNKRddeGE5aepJpWfvnlY4YqjOJXC5KCeCHGHERnAcN0DPh6GMf/j7v/cwFPWDwoSgXblilfNl4a9ysQMu1haWHLOiCGUJaxACnTLvf8D+5eKLL3JPkeEU8EidkV4M91QKiesi8B7KS/RoXQfCOXQYeImacf6rcrBihPyAcyx70A/WFGiSHW7J9x2331l+9rOf2eLRu3dfKxEoRfhFCWFCOcu42WOFd3q0Bx54kIf/Pvtsdjn00IO9DHbvvaf4Oxf5oY5pABn2ymFJhoqUfed0iBQWJjNjYSO7KGTxJUsK8MWF2eMA/FFvNNRc0D+8BW6hEWiNFXNYG9lDaPXadUEHrnzRCzSiR5RR+JB6IVxe3VTPKCt0HnJ1l+WJgAnxWG66KV1oGToaOXxkWSgl6e677y4zZnzgIdBzzz23/H/+3R+Jrkfp2wKlsaGw/xHxEyGNN5D8jLIAPfNs+VURA9RtpUrf3YkiEJ+QN/JPB4WhptjTqZfjJH/QVdLpn//Zn3sIlWHmo48+yqsKwREE57ltwiWsBJ8lkB/es9wJ+d7KnfxWjwn+no5R1ChTDTJ+yuL3NnH75G3KqV8qOVb2pHTRiRs4cLB5BCuT8Qa+ULpaQZV4E/5V8FutvCQRJoElAWZPx8ymi0aLyYyffva5G4pkVt9F3NH7geAkoMSEuOcYtJlXfjLubMD8090Ml3HpznguaeI9FAjyF3m0vyqezBvJ4mRWrN/lyPdMj3cumN85rRgmh00yfflQfvWMHzw4L8yFULnkl3krsYIl8sxhgZRZdOJ3GmwUgGzw6oCVgt6+86RvaQ1AYGNt4TuTcRkmQml5/vnnPSGXHYkJw0UaCC/mZrBS6cQTj7figpBjeIb4mJCIXxQqlAP3GhGkEnjM0eijRp3hlTfeeLPc9Iubyty586wosTU9DYzjUOPOnXxwxYRIsFLsl1VEKEmcN3L++ReUk0+ZZsGLMkW5EPQW+rqDi8i/MR/1oLjYTM29Od6yfqo0Anc1/An3+Ny0WQ1VpbhRNkz+zC1hJdRPfvIT77SKoMcPy2hpCFDkwPvcuXOEt9g/A4Vp9KiR3myO8qNoXnDBueXUU092+WjMQrGKIU/KYOuffryjNGEFQIFheG3cuPGlu+qPbFMM75TbgErB1v8o7Z4F1KvxJ1xRb0DSBACd0aBzijj0A563SEHJcNQ5AG06vFAIjUUc0cnpUNEPsogOBsqBuVh/4JzhOuqdieI7RMszPphenn7yqTJnzpwycNCAcv3XbyiXXXqpFd0167Bsyr/pNSxnSLgdyn+4RJlcw6rwLFOD38mLbps2xx5PKFX4p7PH4Zyfff6ZG28m7fMdmYFcAR+h9HQof/nnf1FmffKJhzD332//ctrpp1uRQn5R3pBRQU+kRRinbzw4E3Y3hEPLu4D8JNSfAd7bcwMynUYHtSoygJ/oLKCwRae4Y4eY34hsGzJ0qFfv4Q4tAJRXRWrC/wTYIywvbQkTQFDQo2buBYoLz7AKwhrmgUAhYBMy4Sth7fA8yonG3vNFavG7YRPBOl1+otz8DnAsvMekcVI8NG6hHAWEV0IGRCwBCKd8cz6qOBqgd7/q7nAIgOoZgKFQUkJZUsPv/EcZyTPl5E4IhBwK2qbNrDCJpblYI+hN0eDxbtw4DWFOz+CN93THysJkXHDNWUQsfcadgxMffPBB715L45tx0VsF2Ib8gP33K2edfZYPAOzevauVJ4Q+vU4aZnlXeRCqyjOKmh6ZFMcQ0PQPZpRHH3u0vPTiSxKIWIj6Oo1NGzcbQeSBdNnqnDSpa+JjcuKwYUP9nbiOP+64cvoZp5Uhg4eUzeCjc8fCRF7STJyBR/DjBqDCnfMlnLRMvg7l0TVo3ISyFY2Hg9gP1hGUL5QGhD/WIxSPW2+5VYrYG3ZHQJIH6JS6BbdLhWesQdQlih+K12hvjsckzo3lqKOOKuefd34ZOWq4cLjVjQ30DE5Y8hzUIVDemKNDvCgq1CuTmfuqJwmN1pUcaDGhauYMUOieBtSt+Ud3cModPKG0sNkcCgTKSyq+7LK9VXIB5TEg+CUaTJOD5ULWMZNuPX8MmqusLCg8adndLhroIdrtJzqfP29ueeH558pbohf8H3bY4eWGr19f9ttvXysWhIXWPLFaP+jH8k00i2zKqrT80sUraUAb6R60LFDDTXwsUkA5Xr2GA0m3WLli6AulGnrK5dF0NuATGvr/8Vd/VV579TVvK4BM+fa3v11GDB/h/LD6keTIZ1IneXA+BOQhof4M/KpvdbfgxRb5DeAG3qBxv4ejnwGOd2GVacpsZCHzzbA4Y7UlfMQXsnpnq0sT/q3gt1p5CSUk5njwDEBYNFzsbYA1ICeFInyYiBhkx2ZtYUrlHQUFIsUPlhbPEm+hZxOsf7p7iADir/tRJMHw6p0oHoPDVAqFLsz8YbGJPNqiYOaN+Pngr3io3MIfDWXlRnjyXLm3WFiqOTJ6R3gQB+lmWASZlRnKprLSi+MZ3MF7OUSE8CFANNgRBwBu3ajpnV4WlizmDWHRYGdcrC30wDhQ8f777y9PP/206wB8kleEPHnhwu8F559bjj32aKeL9QNly/FX5SG/Vi5dnhDggwcMdgPxi5tuKs88/azdWVm0ejXH9Uf+aLBJFyvFipXLY+8LhWWZMEuGEUCcpswGcxddeFHZZ98pVgoAlCbSp8Ggrhgio1qgC3CFkCJNgDKBICum+llJROhRP/JHrzfyjf8QqDZfE06A+RkL4KOPPV5+8YubFE8n44JGxtYS0Svps3sxq55o9Iib+UeeQ6TGgkZs4l4TyjXXXlOOOfoYN6Kbtmws3Xow1CV8V5vu6eZkmc9C/WGu79atR5k0eVIZ0H8g2TN9UljwDlBf8AzgHFc0CUB/expQf9A9tOW6F0CTDBOhvCNrUsZgreNMINQ/6BGcc4Ao9Ay9YFHDXwwdBV+gkG7cuD6UDPmBl6kT4iQdDvTcKoX0ZSnrH3/4oVcUUVff/tY3Pa8J+mS1nYemBD6TyopENNIhB0SfypNpUVfKF6AuO5NPrXgpn8nza9esLbNmzyonnniSl0OH7IBvY/I/Sg1WRMrGPLT/8Vd/XZ599hkPsSxbuqz88A9/WA488MCyaUPsRo3iT+OPAgNAYvBLuLUmsrbvBrm1dSXe9Es+6koK7iZjuVH2lG08R9ooI1Io8a98YLnFaoRcxKLb0lGJuAHiIFwT/ufAHjNsBAMy74IGlX1DeLeQMCMGAatlUqBKWOuBhpxGBSGfvWSECsIDf9AlGjgWChO30qOhSq6BfUy81TuPXdRIkC4NGBNK+Y65NQDGjHtYe/RYpdsCwZSZHi/co5ciqDWCGReQ5cwGk/iJAzxw92ZXfLE/5jpIaHbtrAZ9kAQqy/qY+4I5O47Wpww5KZfGDCWQd4/pS3GhAWaXTnpZWLWeeOIJKy70QnFDuHFhciVfhGVjtMsvv7yMHMGOsPTiNtsaQloIfXBNJigvwpmy8I34XnjuBW/rv3zFyjJ61Gh/izzFSc1btmxzzxcaYB+XLVuxoDBE1N8X5UCgX3XlFeW4449TnN3KkiVLLXARviHKQjCRD9eZ8kEewR+XrSkhAsmmIJQN142QG8pL9PYcD3WhD6FYhqWGSX4fffRR+Yd/+Mfy+htv2mLFvi3QCtu9E5ZyQMcb1rFrMJOju3jfGU6JXr16lRqSVeUK4ZEjEpiwiWWG8m3vINpUkl4B5VxCh6HQxhLdbZ6MO3z4SFt+UMChbVOQ850TOem1V/TWhjz3ROUlARqFnlFaWOKP0lJvBJPeOaZhg+gG5EEX1GE0dDTyzEGSoiOFNWgyhnChIVCNHPIu2KIDOgQMx3yudB5kW4HP56juV5dpU08qf/zH/6EMGz7UHQmWWrOLdA7v0AlBgeUZvkPeMSwF/dr6Y1pWalxyr8uMkDW65AL90MmDx1Dy6Sjsu9++5NZ0RTqUAVqPThHyh+X2Xctf/eVfleeefdZWC2TCd77zHZ8Dxnw10iYtRF+kFbKKi/w0SEwPtTe/Jz0SrgH4S/lYQfCf0nH9VIEETo00qvD4Sb9+l/zu2i0s0Exez13FsYqCP8Lhtx6+VV6a8G8Gv2XKSxAKxOYGQozDO2cNLV+xvMye/amHiCBDGIQGIXuQEBmz+GnYbPZUWHZzpaHKiaDEieCm921G1A9/MTzTQvQm+MqPXp0WeQomroQZ7xVh48+NC+GruJJZiCfi1Yv/BeBGQfBFOBqW8FN9EzQYx+/R+LhHpEA0Vo5b6aGoMJzEN6VkhaF3r17e0r9lflAwfDReIZTcMOtHj3PlyjCPI3jHjB2jRndcYXvzN998qzz68EPlgw/et3kZfNuipIslygzP0OM697xzy2GHHmZhyJ4VHNgHWHGscMFKBS8TVT7YhI2yzVBP89577vUuuQhiekEW7ioPOEYpY5iFw+1YhYMQBWk9enYr/Qf0cwOAMD3iiMPL2eec491msfZQJuIDoaTTweWNDcPIe/aUnTPufq7u5FdhHE6PUedZp6oTP6NQd656wZ2F7z4eIrrv3nvLM888I38dvecNw3dWouVCT3zt2tVl+bLlVf66+OgFDn0EJ6wCO+igA8ulX7vYe7fYhC98eQ4RdUtroDy4PqWUUH/kA5oeICWVCbkMsUUZKxraoTAKx7vLox/DZ0nH4asFKOFvM1CHxhvPwrnxoh8NF8oBSssHH3xgWgFH3G3tlL9G46+wWLyS7/kWDV90LvBHWL6ZhkUDhMohavyxDw91yq7Tzz7ztA9SHDF8uJTWK8qFF16gsB28JBr/xINf6j5oMOQSz85jlVbIgqBTaBv/gNNWmVG+uePCnQuF/+233i4zP6HDMkAN+gjzLO7du3WzDIGPsM7AZ7gTP6uNYkfr/mX+vPnliiuvLMcfd7wthEGvdOycvPHjfOviTpnCPfLWAB6rMIEnPIQPygZuHWcjYsoTSiFuPCObSMMKm8JazskN/sJjv/6DxW9DrbxQFmSY61AfnUcBfknbfOa4Mr0m/FvCV0p5gSCSGLiSQCE6M4yEBOb0ILgg2kWLF3slCT1V9gOBKWDMLZvoJXX2cED2yBcvWSyC7OLvjMVygBZMR0NFT4eG3OmKab0qwwIHoYLiEGjMOwQcBF8RbpUfdsxFUPGtUQa++K/lrhI6WGf3fPVTmumXLzCUHO3WEDiKEwFHD5pnb5amvDGXItOi4WEyJo0aygzlYHM1rBT0tmkwsWTgl7KDT+ICp46T3pTiYvIs37F0YGmh58EKIibWdu/Rs7z7zrvloYcetJVrm4T6NjXSAD1H9odh6THLJM+/4Pxy/InHi9G3eziHOsl0nF81rICVBbljch4wYFD5ZOYn5a677iwvvviSldReqivqJ4ZzYj4H5WbZNWZplCLohLINYXfcLuBjeznkkEPKRRdd6M3WwAlKagijMJcb5xZo1FnUiYWcLn2SH9zDf4KS13flXQ+EQxmivOBLQWx6hlaxBrFlOPuwPPzwI+XOO+9xI8PwlRsb+aOhIS6UbvC2RbhkHgvzUCZMGCsS2FZWiXZZQeLVUIccpHQCDwHR4GDVUeULD7GCDAUF9xgS7Ot8sI8M/ikzwB2cNyEAugI//EARW+DTMIOtzz7/vMyfP89WRmgICKtcNJjgErxbAeGj3KEhaBQLZ49KGTfuCaAL3oTPqUuUdoYFkVUMCy5furQ88fgT5bVXX5Hi27NMO3lqueGGGzxBm/O6tldyDjCtQkvVOxBlaYGg56j3OuBiWSOwXCUeOaKowWPwLB2UWbM4YmCAz+zZpPKbh5V/NlNE5mAhgvcZnkXJfvedd8oqdXjgiWVSxi+99NIyauQo468L6TS2DgicGOt6Twt4u3mtufGcZWrPb0v5Q0nBi/3LOctJGZBH1DPDWwMHDyr9+g6UWzeXHcBfW1w24TcDXznLSwrTJEwVwYS0cUNsY40wQUBw6NzcefPK/AXzrZjYJComRBvG5A8zM7SBif5jXQx3sKcKWzjTU4do+b733nuLcPsXlq5C1DCkmUg/CynFQwML/ZInGmGe0w0gl1Y+9AszMFBHe9UDqAJwxy9/2XQ04lAZogdXKUw86xthYmfXMIOm1QHrEmWnQSNtzMXgAIsD+V+2bKkVBVYQ0ZC5bLooK0LTcy2Ut8wfAhkFkF04p8+Y7nlDrH6ZMmUfKz80sg899FC54847LYiw4Kxbs7oMEPOT7hopSn0UJzvjXnb5Zcb34iWLol4qKw9zSowr5YE0sTJ07BjnEOF23733l5tuutnnv7B/CctL2ZyN8iAMCcNk4UWck1ThjLhRCgYMHOA5Ab369irf//73vNEcDQJCGNqKKxqnpDWAOAOixwngFpff7Nagy7zkDn4JZyUIpUVlZI7JhPETyrPPPlf+5m9+VN5S7/XII49xfJj6wXF30TL5+vzzmDPBkALWIw5QZMXWgoXzrBix9803vvENKSG9y+JFC91IIuQpc8sGcp3KZupdCgqKpvi+DBo4yPXGREMUMHBP2eo8VsfBng6hQKdSHbs+cx6RVxJ99KEn/3s4UaRAHcA/6Zd6RTYRHrzm+TbQDrKIzgN0yPwrOgYrJbOwSjJxeg3PckcBnTBuvPdsufWWm8uczz7zsOIf/dEflnPPO8fxsuEcMqqzeN4KSw2o36TZkJ0twHtbNwC/nLuEPCN+AH/IEY7JwAo4Z87ccvfd93hV2qiRo0sH+cWqG/QXlidOMUfRHjJkkDuJKFZYe5FDKHgMGaFQ09lg1ZO4rIE30nO+LddaFJq20Mpd95CTO/sD0p2z6cCTO4DCb/BqyF/yThmwsCAfBw0ZIr6NOiQ/DV5vwm6Br5TyAsEAEAyEY4IW4UNsMAMFQfAzfMG1mZ4ODKcP3LE0wFSMy0OUNApMHkVw0OiJem3mRIDT0CBMGJOdOnWae/ye2yLmgagRBIxVY31BCJE2+fLELS6902igMJE3FKsWf+SFJ4E8JiOgZLhMFYPqn3pQoQzhHk7BMKSNP36kEeWjR09vDcYL5Qb8wJBh8g3hBdB4odgwZtuvf18rHjSQiVsg8BumZQQJ+UdBQDHAPA4OsZ6gFBDfa6+95qXP77zztpUcBBPA/hMb1Ahj9WAi7llnnVn2Vjh6kwzRkTfjRmlzBylp3cIN3OtW3nv3vfLgQw+Wt95828uohw4Z6kaCZaPgHKDByJUdlJT66N27lxVQ0uH52OOOLRdcdL4bexTVsDphbXIUKnPUJflIHFjx8HPV4FR+oz5QdNJf1ejrmbRNA8Z79OigAxSIZUuXe6O5J5982krloIGDy+ZNWyzQyTiTpsHzKtFzNDpFjcPAMlgNhFLxjs97TRxfLrnkIm/rz7lD9GijriNd5c75CUVa+CUS8qV3JjOzrJOTjG0NqMoT5aMcIfh5bkKAcaMf/AXNoEi+/8EHUiKlJOuHfPB8OPmJDd5CAQ6lMPgWevVk/u2KR2GS9rHswltsA0BjybwYVvLgHzrqLveVK1aWRx95uLz80ssegpk69UQp4N8vw9Wwrlu/1pNmOWeKvLBix8oLdajw1CP5iHJE/Rp095PulKstENb8rzyRP7wQL4rVxx9/6HPJJk6aVF56kfPHVnt4tq94DZpmGImOSA5Ddu/RVThb7zk4nNrOPDpkSK+evX3EBJZuW2hMckF/zsMX0GD68V1/aSVKwJ0r5Eob/37QRfy64M3AE3JUOJf8YvM8tvhnJ+7gKXAZcdXlZBN+8/CVs7xAdBBL/WK5J2e0cD4IAj9N5ugH9JasQFTEK85rTD596aUXvWyXHr1NvBI+bOVMYwlTsb06DegZp5/p3j0AI3N50iIMAGNUxAykQkGjpjenk/nkxZMzFcyEn9/0473hrwGtlZdw4Z+UF4Sk7vwI6/gcr32ovEz204Xw0TeOygdQFsAPY+YeIhJTNgRolk0ChPITZ+IbYCIiZ98ArApCsQPeeecdT8ZlOS/ClvBYDrZsjeWdTAY84vDDffDfoYce4v0csMqQPwQmaUXa9HSEVxclVgER16ezPy0PPPBgeeWVV60A9O8/ENQ15r+Qv3Ub1tvChqUierzbbV5nozryANDIn3f+eW64O6knGCuZwlpH+oRh+DHrLssOfjwhT2llbzBx3qhncFilo2D+5z1zdK1ft97fOcQQuOe++8tdd95pxYl5JlQZ9Uz9kSZDnJwtg0JoK5fwxU64Xbt18QGR4P28c88t006d6vpn6AE6T9qL/FLfPFdK5+YtpbPKOVY9d/Z5AeeUA0uBJ6ibbFoLeMLlcxNCCUTBxAL26WefueG2lUxKRjb84AslBtrmmXqATqAb7tCZh5u3irbUkVIleI4WfCkCEi1GfRAnHSpWs6CoPP/0k+UZdbQ4CXqfKfuUG66/zsc6oAiQBqRHfWIRgeagRToAAO4A6QO8k7dG3eoGHbdX05Yvlb8MD13AMzfe+DNbn2644etW5jhyY8H8hWWxZDDHH2zZvFX5CSsv1r2hwwaJtpe5A8FxBwAKDsoNPDt50mTPk2FYNHixsnJX+Qcyz1kG/WvkO/ix5TuQ761omWCNUPIrvOtfJXei/hhaZr8oOj0crohvlPyItyU/QCMvTfiNwlduzgsAIUIwNChMsF0uYc/wBcIEwoPZaBjovSAsgtkgQLmLydh4DeZ48803yosvvujhIRotFBSWKsJsCBsmmI4aPbpMnry303YvSO6kAcAssKB7ZG44yGO4k7/YjwQBFW6+akSOn+CFGiPWasPfKweHs5d4ZxdN4k2TJ+74R3mht4OgxTqD4kYa5J3JcOR/3NhxbhAZt07FhfDcE7dZ3ihHJ2/bj0WDc4XGjBlrIbN0ydJy8y03l0fUG2RoZ+CA/t78jDwhfImbhvbqK68oxxxztHsxKBjEy1yj6CWR52g8eyhPFuQbN6tnForRvffeW352442uC4Y4SAdFM+blFDfcWCEWL21RWskz1qSxqrt5c+e4Z8jBgwceeIAVAvCCKZyJ2KwmouGn8YheXyhx4CHrkXLEkEEoL0DUZyiiAP5ageoBAb1J8VIfnDiN8vV//99/5pPJg6awgG0Q7aBIbSgdd3Qw/hDw4IjeLXMEJk2c6IMnUWjOPP30cu2111oBWSg3FDz4AGWWoTwsMFGfsarIlkaVicnO7GzcB0VdOOzZq1dYAATQfihvUY6kBcpKPpoAqOMhfHkomuXPn34m+RLDIl2kVGaPH5yDM+iDOmHSv5Aa9GEEF9FDt9KlY5eydv1az7Fwj180Br6hQ5QjFBYsbawkeuzRR8uHH7xfNq5fV04//Yzy7//9vzddQCtY2uA1ZBt0RjzQEtbl5GUg5UYC7+lWf24LxIsOhBKNTMEF+fjxRx+Xu++5p1x33bXljDPOKAsXLigfffyxw7AXClYYjuSY+fEnpnEU965dO0kZ6ONJujkxl9WMzEmj43nJxZdY6aLsHTtFBwGo81bmM+m0nnfuybP1MPqgXAe0cheAe4eXO50nFEbk1PDhIxRGflVBaTWPoJWsJqzcgHoemvCbgy+t8gIxJKFBJBBlS0Y7WACjtED4bLcd8z0ws4aJlom3Nv+Z4aKxR0ArZt23SqtG0K/3IYCMVdOowaSMMXvTpb59ypFHHlmOOPwIz6fgrJBc+ePGTQ0CVg2YrS3DkE/ybLOt8triLoVAYXmVqwRNCJeKJxQ3F70Hv8a/iMLDQLknAR7CPB2NDHkyfih3JwSpIworhnwxIZfeGUpanNMTeUahIzx4ww3hSdmiIQuGxNrCEBxDQ5wtxHbfq9esLS++8GK55567y6xZn7gXj6LGKiHiAy/EfdTRR5ULL7ig7L/fvraI+HRcpUHaCDj8AOQXhZC8ojyyrPPdd94rN/7sRu++yzb9NNbML6Bo4A8lDWWFni+WCjbvApNsiEUZUUpY7XTJxReVc845x4oAeEiLA/kkIitOCsc75eYbdYDFoqVeyaXwQxhB4obv1Udc84/qimEDvaBkMaxFWR548EFb9YaPHCElmu3f1ejID5OJKcuyxUs8TwlAuRw+fJiHx1auXO4JuVdccUU59thjPC/AEyZVFmgYnHo+k3q60DtlAT88o9DQe+f06U6iB28tb/y39FLpoaPg8E5cjbIJKP9vO2QZs16pQOMDgaBncInlap6Ulg8//NDPpgvhmc4TfA3toMBgyUKBsHVX36E36ID6Snri3XORrPAoboVFYTE/io7l0ddbb75ZXn3llbJ82dIyRIrMD/7gD6S8nG46ZhKpMht1TYQCaJm8Ognd+UZ6Lhdp693lE2RZ870V2IlSVbhReXL1HcOaWGufe+4FKc69PNndlmspXatWrXAHMukaBQUlZtGixeroLCvzF8wrkyZPFI11KOvEyyh6lHn0qDFSzNeWffbdxwoiw8xsjonlxTKUPJAXclXlDbd6WfiAHOFy3XD5a3y3TFQ4W8mrD9RxzAPc4rwge/r3619GjBwlWQ8fBS/EVcn0SkkFjBtBo16b8BuF3aa8JOHVK51nE5qIASEK8AzTwPwoJFhU2H+DI9bpeSA8EBYoF4ohwpjAIN5g1riS6Kr5CGpsmedB8hxYxnDISjEau5oyY3/Y0GEeP6aXT1zsu4DCEKZDETINBozgr5FPisS3lnIgQGgYWxoEvlNywuDP5bdjfCcOf/RDxMv3nAsBQ1tQSgGjx5X4Q0hGAyzcKT0UNOZAYMmg8ULAZI/GZmX5BYifZ8IjoNIN3GJpoR6YrAZOUPDY4vz22+8s77//ns279FQwVSOE2NKfBp69Hlj5cughh3j3T5QW8k498eAyqW6oA94R2DTqmJbfe+/d8ujDj5XXX3vdZWN7/sB5KKeEpfwoLVgiWD5MHmns2SOFsrATMIony69Hjh7pfDGEFQ266k1Xlps0eIY+8jsQaKWBCiFooafv0ADhqB56owA4j8mYHD63yT1T8M2w41NPPV0eUc8ZAc58FWgYfIQlJ06wRshzzosisnI4UsoN5ngUEywk56kcJ554gutxzbrVboSgh6h70ZjyjOKCAEZ5RTEBF0wKRvFDIadRtcLrctUh6GBPhKz75CF4lIrnnV43rygVTObH2sJ8Dho6Ju+HRROFNuSCFUB4XXRiGgXXgqCeiJvLQyEo+oqXxhNaQh5t9blWXay4fzLzY58A/dYbb5Yhov8zTj/N/DR8xHDTvelRcYTljwZZLuRZz0HL5B6gHCFHgCwv34G818Flr33nUohWYVHIH3/iqTJlyv7l7LPPwqflCh1EZAhzgaBn6Bo6XbduvRW/lXrvojKyJwxKOocwsiCAoydYPYcMMh6JkbJV6QL+Xz1nvurQktedgWDgGnxFfBEP+N7G8J3qrV/ffsYvQ0XKgrzU+aIlDGWNqwm7G3ar8pKEWQeYGeB79oRhFpb/sb317FmfWrv3NxEdDQ4Ej3+bX/WzGTUosLqiiMRFkpjzaXDxh+kSLzQk9GQB3DH3cjdDYdtVFNH4BqRQgtIzXmUhGFw/vtLIWLAIaFD4hl/cIkwlEPS90cPQC2UhAkISjkYbIYngI08wvncAlmeYH5yhWNDw4gcLBctq6SGxooRl30SdQ0TEB+A3yrfDwznERWPKCizwy3b+NH40hMwNuvPOO9Xjes7pE1ejPHpGyLOx2w3XX1+mnXyy4o1hK8rDskcAq5PPH1JDGkMV6qlKWLMCiNOcb775Fh/Q2FXfBg8aYsUIAUj+GPYgT0zEZV4T6SIocRujPCIU2e7/oIMOKlddfWXZb999jU8UBRqasKbEUAh341hAPDxzRVnSPAw0Hlxn9Ar5Vg9L+ZjfgF+GsLD8MBzFXh8/+cd/Et4+sAmacX4P7zCHSb4p+4KFC4x38EjYsWNGep8ZLEk0kgy1XXfddbZ6YblCkWbeC71I6jDqLvNDrCxD31hYrjp+/Hj3jOEdaIN5BXiBNlsD4fZMAG91WrDiqjpFscSFpbwffvShFXn8MXfJ28OrYUMWEA45E5P9pehIZrjjpMDwJ/TiYTvFZWuEfoRlu4TY7TbmuHTWM0diUL+v/PKX5Z033yiv/vKVctIJx5ff+73fLUcfdVRZuXqVFOMNUeeKELonT5aDQZSRn6osCfV3+wPsVFFC9Z3/+E0/jbj0jiKGcs5wFAo0S6P/9E//L3VoxpX//L/953L88cdantIZIY8c6krHAplAmVgKDb1+UJ3thLxYLb4GXwyNjR49RvzRx8NeAEPlVsz0a+S5Bpk3568GLkM87gQZDfFxEZZ6Zv4cE9fhsa7iXarP1ivhtgUIjCKY/3eVShN+k/ClHDZCmLuhFsFDZDRSnPT80cyZ/gZAgPTIzcTqcQIInyDKaDSTtrmZ/PSPcPQMmLPBwLCJWT8LMX3HHOv0qzgBmyLVQ8UPULG9XIIj0iRLA2dlil5Zviss381oek/FxeG4qkwyLIQCBWNb0dE737hIl54DyoB35ZV//NHDt6JFo6kGE9MtKw4QrF4W3L9/lE8XE49JMRUOhCDPDFeAa9Jg3hDWFibysmcLlikaUlYQsTKGISTGqzesZ1Js7AvD8B3K0WGHHVpuuOH6wk6v1BdKENaQSC9WATG3A+HN986du5aBSge3l156qdx6y20+PmDUqNFSXAZ56TuNLkKTeg0T9KoYz1eExIEg9YRc42dHuezyy8tpp55i3JA+FgeQhdIUvS4UNhSnsF4RT+KfbxEP2KVefBNQB6of0RRKSZrmEdQ0SCi/4B+cY1lZumypD4N88OGHbWWZMH4vp7XCPWZooqN6pWuE6zmuT5SLrqqb8ePHKf5OtiiOkTC/5pprygknnOCl5Sgu1BeF2eqjG8IyqWy44STfsZQ/Vi0NHaYepHCT1jqGORye8la024QA6ht5AU1ACzGcVjwHgyXAHL+A4heNc1g3kRfhNyyxWFGoY1DLd3gtLTC8o8BQFyi5NNDMt1pTbSDHHi10phgaYkLujOnTywo9X3rJxeW7v/d7Hjr8+OOPS9cecWwA1yYpRszPIt/k3xSrtN0Bqsrkevaf/lVgv9VF2nnpXzzX/NldQLmQi/A6c1fgLQ4InT37c9H6Gncc/vP/9idlv/32M2+wJQN7EeGP1FHOsdBifXn7nXeVZ3bKLmXl8hVWDkdyeOjwkeYtCoIyiJTFhlLPawOcXX21ktg6z4SHJ3aGUFTgAXLFP2QnMnXiXnvb4kudYaUmbvioVZoK0Ein8dSE3Q1fWuUFQsNESi+bOSkMFcWhWFIydKfRBhAScANhACs0YqKGkIHYWijPbkxms9VGjNnobUkpgEn5SFiA3jFMyJCRAwuCqFF6qoYORkJw6Zm82M3fQ3FJJSRMxC3MGAoRwRTGjB7lJv8oP5llhmHwi5KAsHJjjrKhIDY940dlYNIqwothBoYsYsOxGAYhPA1lpg8kcyKcwDG9SywsnI3D/BIazBdeeMF7tmCJIRx4IZ4dnGBb4YlJsOedd56PAvC8Fwkq8EYylIc79UEDQE8UNywCKGozP5ntSX/Mb2HYCIsB6WzcsN7CmTyiJK1YsdK0YLwo2wyp+DwRNQbM6ZgyZW9vhY+1AeUT8zX0ww6zzPMAD4SLMoCDqN+A+OZ6VnlI05ip/vENAGvkCUUFBQhBjUCMFVEcprjZO+PecsutxuewESNK567dy8b1yo/80Tgi/JcsXuLykRZpcuLvMClgq1evLP379imnnDKtnHba6VI+B5TVUsCi7lC0oK2ghRgy2O6Vcay4Ynn8sOEjbPJm9VLWFX6yTE1oH1zfuuArFGyU4+kzPirLlsekaWgIoP7BIqi0pZc3/YHroBnxtPANgHOUFfiTemfIDrqhwTU/yt8O8Q/LhdeqcX//vXe9Vf6czz4vxx5ztI+oOOGE48SDLH9e43lKW4gbZgJ0p6Hl1bLMP4FbbuSKZE81gOJ8VkBeuQDnWXFCT3X6SD8NN3kn2rCqxAagdGY++mimFO1lls0HHXxw+Y//8T+WvfeeDHJUfuLXXfGAA+6zP51d3nr7HVtZt27dbIV6zeo1sYquSzfJwJDXCsj/KFgNMj/1ez47HIGqvLYHaXkFUPhZccjZXV279nS7wq8tfhL8FM5ts9WE3Qi7TXlpl0j0DIGhrWMBwBJAbxsTOiQNYQbDhVbuyYkS6DQiaa5F0KeQgKghyqA+0vR/KxQ0RAkIE/y7JwXTyz/MBMMGk8iTNBvC+1l3K018qwRGQBC/lRE5ER/fgykqX46gArvHxUfKaQuB0k4rTsyrUGOkvHjCqNyNA/ljiAL8IFSwlqB8YIGh/ODRvUkLPRKLfCRQ3jw4DmZOpQU/b775ZrlHSgXbdyPAUQQQ6uCC+SQb16/xoX/MxTj55JNLN7mRD/vtKrzKHz1Y8swzDQA9ThQWxrY5A+XGG3/hxp59RoYPi9NkqUeV1MoHY95YT6AFypcNMauXmBfCfJB99tmnXHTRxeXQww4pbJtPA0G5UArwz2RXDjgkHHVJ2RL9DbwbcAzFBpy3QFX3AnxS58RPXqEzcEGPFDz99Kc/9T0ORuxRlq9aLVyod6fyoGCwMos9W6zgKq6+fXqX8ePGeX8OGqnDDz+0XHv1FZ5bhOKIYoayQv6pR3BHXjjdmiE0huVYjspSTm/LPmJUVXYax6xr8s8VNKASVyVpQgK0Aa1g5cPyxzJfJo/GSsWgSfiOSdfgP3BozDpcWn/hRS87t1IRyqOfRVPQPpZCK76qN+gG/x/NmFEeevDBMuuTmVI8e5ff+da3yplnnOYhRuibeTDUHxbEjVjRlHbGYUUWeaX0vdcU9ExdU/fyuV2tLD9nugLTv+5BE1X+dfGceU6esF/86RnLJbyBfMId/mUu14wPZ6pTscpzgc44/Yzy3d//bhk3ll2fWbUT1iqGczlv6ZlnnxYON1lZJ99esanIsYA4XuzYSt/qhdMNGW8gr7risVae6m4gv7pFjlsD8XDZMik5ycKFfv36Kp98ix2SuUiO+KlPeAlwbLWEmsrLlwd2u/JigDjFdDASSsv06TPEIKvEwLHsE3cI20Smf9mQ08NHwCTgF8KDACE+vgetV8wpJocQaeBpEBEu9LjsA6IVU0VDEYybaTM8QMCIQxHwp7hg0kwrktF/f47wmW/C5FAQHh2P3LnjjwtGxz9xkQeYFWsLzEi+OXkWwcQ4ss2fyiPHHhAfc1NYHeVhAgE9crDLMJKHv8Rx4AXPlJdeG9YUzLajx4z2Tq8oBExMZHjo7rvuclhm3iNYUKCynDyfdsq08o1v3OD5MAsXLXTc4A48cYgjDStlsQKjcmIZ4GKI5Jlnni1/+Zd/pTx1LOMn7GUhRj3jH8xR1i1bNpV5c1tO/KaemI+DYoBlBfevf/3r5Wtf+5rDgYdQmlAAY3M8rFOEy3lMCeCcKgyIZ8rmN9cHT/HO9wTmJTSsLqIrllNiSfn7v//78sADDwh/vY1LNhLjBF+sS2r3PPY/b9585ZN9X6SQuL7Geiv1OZ9/ZgvLd77zO+Wcc84q8+bPseUKZZKJ6DQaPXr0qixsQf+UB5wsWriojFW9TZw4ycoMSksqb6QFbUYjF3QbVitiaCnTngqJBZR86pL6ogFm5dyatWslG2IlGPjEI2jjLC2sh8geJkJDN1jU4EcPh4rOUVJjD6lQMuAdeJX6Qk6RJh0EcvDIIw+Vp554wkPY+0yZUv7kT/5TOerII8rsWbMUF8O8sWyaeFFgt24LeYTSg9WCbzEPLObDcRSFC6a6J8MtyktVWN/oAAYdwDd58R58GgqE/RKfwN9EU+xmzfAK5SM/dHoefPhR78HUVUo6E9LPPuuc8r/+r/+x9JMsYp4bPAO+pk9/v7zyyi9LPykN4APLKcP2WIiZmwe9IqstA0C2Mm1lzHmIPLso1Tf+A8jAzCfA9x0trwEuf2wayMIDhqUTtm6VfOrQxeUjVncc8ev6Ql5G8Dq0jb4Juw92m/Ji4tSdng1MTsMJAyxcsEiMhOIRQwzmRYSxfiwthGFZacOpwBBb9JbxG8QGeCWQ40BpCWY0c8rdCo1dKjLUDYK1YiPiT2bmazJyK4BBdOM7O5Yy+Q5wHDCBwueESxQFev+EIa6uUiQ46C4VLPLUIjxaGDG+S5ERE+nNZQs/MaeHXhnCkV4EwpB4gFR8UMwoN3tAIBgcty5W3SxctKgsW7rUggSlh+GaJXpnv5uHHnzI+0ow4Y5y0Pg7R0qzp3qLTIY986wzy2FHHOb6iMl3kfa27QhRCSvKJMFFGRAYzEfq3Klb+fjjWT50kG3wORKgV68+xiN4Asg7+eacn02bKN8G5x1hh2LFpnrsfnzIYZxFdJG3x8dCQY+WsBXqXG6sLNQQOIz6V26VWOAYpRGfQQVtYavoA4UvwuKxqhfqQ2XrJnyxwunVV14rt9xymw9TZHIxihn5pzyiIk/AZVIiw13gg8aPvTmYE7RxwzrlsXOZNm1qOffcs60IYbkqHcEq9ZRzMMBLKIL5jDtlGDtmnOcMqWIj401oBebhiijyDsCz4BMncM4qQ+a3oBAzPIPy2F2NMfRBOFRqZBTxITusXOt9q+oXOoHeu6nu8ZcrgZA9KBnUI3zQRYoI8bG/FOcfPfXk42XGe+96kurXLrmkXHX1VbaaYpmDKhv5dii52FE30WBDPslPvVwN0De844cLSH91t7bgOHWvyzz714+OVKZrOlUUTIR/4qmnPHl37dr1Yg8sG11UnkvdsRg4sL9kX7eycOH88vgTj0kWSmkRXuk4gpuDDz7YCvrs2bPdqYtOocpEupG4/kVeMt9xRd3xj6G3KFoVivDIH8nL5BtiZIdczk1iXo3nR1YoCPlbvTThKwe7b86LiIZGhs2OOH+IGekmJOcGbZtnU6bf+bMGLgLFItFRgp4GOQma3mqYIBEYUm7UO2EsE8alcePCLw2y2RR3CRniMCi5sIzoQd8QUsH0FePqyT7llnce2IQMxqPhmjdvng9o40wd9gxg0iSNLsD5P9b6lQQNHPlBKNKgggeEHBdxBiNHY5vMSt5prMk/Zk+UFuKAAVOQcVF2GnzciS/ctpXFi6W0LFtmhYrxXqwmCNtXXn3Vu9eySy5pIGSEOOUYPOhR+Jw8eVI55+yzPIEUMzC9PqwBWHhsfeInXJNX0qZ8KBoszf58zpxy6y13lk9mzraiQW+LfKNYUsf0zMAveWGIiLAMG/XozgnRnCkVyuGhhx1azj///DJl371Vtk6FPVygl7qChsAKgYTCF4KtRVlJHDk6ATXaFvRd4Wl0iIceIkNe0BTDPChRb739dvn5z2+yEjag/6CYGKs6IQzlIP9YDb0Xi8qLIsOpz0xCpm5Wr1pZjjnmGM/R4eRnet4us/LcQWUx+SknlJEnrAAcbsdeQww/jB8/wYontG469tWEhOSDkAtRx8kD0Bv0ayVZ9fPB++976NSKotCIBRCw0u14RFvCcvBR0ClyJWhLARQfMkT/LGvYHwoFl04HlgXkCbzNEAV79XAY4S9/+VL57NPZ5azTTvNmg5PEWywrZljKVlHRgmuV+P1U0akaasuhqlwup939v1FWwN/1s2VJYRyFvDXCVWHqEGEEbb6l4gKfwovs+YRH+PzFl182HyxQhxPLYCw77lSuU7lu+Pr1inNbufvuOz00Cg8MGjDI6RxwwAGi/Ynl7bff8tlI3hySxKoytZSFeuQeZW5cFU46dEochCKCKxf1CaBsIkNYig0/oWxGPUY8DhMJNOErCLtv2EgXzP7yyy95Vr8b+p69yorlK9y4ib5qCoQIjuW2eoSRYErvLKlGY/SoUd5NFQvC5MlTLABQHl57/XXFtcwpmfEkSBA8KCto39GowcgwCzlK5UUh8CPCJuUk7jqRN/zrx4mpMPWrr73qPVAwrVoZkVsyGY0yPSvMqoMHDnHvBWWLPDG3gUaNCcOUG1M/eca6RD444wYrCxcNFr105lmYiXXBqITjGdyAF5QL4qOxXSPByMGTlJX5FFgsaPw4Sv8ffvITn/qMwCVOCykUJjE9h8P1VZ2cf/555aorr1RcPX3YJflguS7x5Th+bnuPQMMawwog8soQ1I033qj8dZOf/hZSntFvYRj5RmjPU8+XVVQ5v2f4sCGKq5OVtZEjRpZLL7u0nHnGmYVJ2mvWrTHeSAtlCQFFPNQ7YPrQRf5wB1yfVLTijnrMumypU74Z7wpLXITPeT4jR45Wo7K5/PjHP/aBkAP6DzCt0fAx/t9DZUUworQsXrTYjaNQatM/q7bYt2XWrNlSZLuVb37zG2Xq1Kmez7N+3VpbbFhthHIiYjA+GYJiDgbKGOc3sYwcZXWkeo+DVP/0WGkgq+amCRVQZ1G/wa/UJXfogIshNw4FfPvtd8oS3aEd8yGKoyoMHqXO16yKg1yREawMgkaJi6FL6pnhPIC5TUpAfmLVHnWHogmpwRsMsYwbO7rM+HBGufvOO7yfFIrMd3/vd8tFF1zg75yLhEJPPgkPLxJB0GsLoATjJy/APmr+0h3AlTwzdOv3yl/e20I9bB2QYViaYuuD7eU1yTlwNGbs2DL700/LRx9+XN59730pZ6s9YRyahS8vu+wyyZTu5cWXni+j1FkaN35sGTJoiOXX8ccd71V5nEbPPCHLgzb5cudVpcDVZdZPD/GNZ31ARtvKqlf824/iodzwEJ1F6pRYkDfUKVHwHTzU6aUJXz3YfcqLUqURwiLAcBENP90fGiULHZNcEDQEhoDhQhEBGHOltztu/Dg3BDNmfKjeTo9y8MGHuPGE2TZvVg+LuTMSLADxQLAsYaXQWAtQhJyK3IkZWjZh4yYgL4aGm/5XH2GWXr17eut8hl0wS7J0lvDEi8DMHThp1M466+yy/777ucGjgURpgQERMG5oqzCEj30itpa1aqwRsDRe9CL4Bt4IF0MIVa+yYkg2i0JJQMAwFLdKihMHt2FtIU3cHnr44fKwLg8fibnBI8KXSXYoiaxUmrz3ZG+Mddihh4bSsEYCXWlimdm4aYOtAN7/xphECMSpueR/+gfTy8233OK9Tkay6qZLd+Mv/NGTRSHb5PFudkh2vUjBYGilX38UoTgX6JhjjymXXHKJjzNYrfRRqLpLAaAXRXjio565owSifEYdB42A9zDtR9pkgV5XC9Sfo1LBe4/uLAHf7HlE0OMTjz9RfiGlZemSJWpo+lvJZlInQH2zWyhDhSgjOScJs/kwKWH0pKmn4ySwzzzzdFtbmBTKEAK42iy8Q9fdSVONA/n35Gblm3pdMH9BOeywwz3fh/k2QZ8IYfk1TpsAQPvJC+AQWjW4ijtYOcTyyGZpWEiRI3A0wx/4TVzyP+eP4E6jyGnztsiJHwHuKBrMl4FuqRfzOpY2+FB+mHSLReW1V39ZXlIHrYvSY3fkyy+/rBx04EFlhfKCfzo7zOMiL9ANvOayOKUAygNfcocAXCSeAec1ntu6kxfyb7mg/HMPS+nOkHG3BVyYJA7NoSg88cSTPl9pX8mxdZIx7DhM53Pd2vW2XIELOi4oZIMHD1SntLd5FhnD1g0//MEPPZT+/nvvGYdYwpTJncrrq3o3ZN5oOCizix2KaQynR5uBgoriAr/07dPPvIV1LPi+RVlx55V3qUJN+GrCbrW8wPwsK4WxaFTZ+8LzKBDODV8tPSh98DPnE6G1I4gIN+fzzyVE2GVUPXeFHT9ufPnapV8r++23j60vbHCX5txUjIjfcWbplVQqL/4nBonU018IsDAnxwVj9OrVo7z++uvl5V/+0kNEZkgxEA0fjRzpMsEN9+OOPU7KQn8LP8qMoCURmMus6jRCAHs4Qf6Y0IkASKUGBYH8cNncXXsGGLNfvGSRG1SUHqwtKD0cpfDss8+W+++73zgjLnBh07aeXUYJBpSWM844zUMbWFuwONDTdL6UH/JhpQvm10UeaWx79uzthvb+Bx4oL7/8S5eJVTBuTFRINwJ6pjFnyIddNokPNxQMyomSwbwhzMpYfJhjgxKBJSmUM9GMYguljSoiD1X9uLZwC0GNG2FQbvz5XwSBe6xQjM1Pl0J90003lffefVcCmA3fWH4uUISkDY4ZBsJC5G36lS7DS1aeu3aW+xqviGJiMXcELBYVW7eMlYCgJ+F1Bw2E6pl8KO9snkUPF6WO9MJvtYqFgiueJrRA0nTgM2iaoVk6C5/Onh3HiNBYVuTioT53GDp7/xzoBNrp3rmr5yyBZxSX2MY/lE0m9+LPu7NKfhEZzSA8jzKCtZPVRO+8/VZ56sknlO4sNeKDyre+9Q2fSwXtQgNM+kV+0Gmo83TUfwukuy3P1Tv5h354Nh2kew1wxSX9UC7gi5SXvBIct/5w8WR8dW44hZ/tE4YNG6GOWx9vGIpFFh6AH1DGhqqzhKIDnfcWPigfSv/v/e7vejXSzJkzy0rxDfIJwNKbZSb5LBv8kuDvlSfygzwCVzjiD/nChGqspEOGDpUrnkPOR7CgB7tTLqfDI/+b8FWE3TphFyUEwRIMA7EWLzddsnhpeKrAjSzfeVbjwo6M7773brn99tsd1g2imId5JgxhrFyxynNMrr3uajMgQorGAJpFmMVzMBcKCQlHFnSHufXshlTfQgiSC/+rIISj9xPpSmO+zct+2YXWZkp9o/dBvmEwrCbTpk0Ts3Yva1YzV0NMKT/02qPHIAEpQYkbSgt7tiAER6j3QCOIEIXREQIISIC8ETflT8HEMAaWLNwnTBjvCb18e/7558svfv4Lb3ZFz4h0wBdKCRNxVQAPBbGd/oUXXlD6D+gnhW+tG2OUl46doweKkoFlQphzupQDfKOoPPzIY+Uf/v4nUrT6eliFpaYI5phszYhIJyum5BHrBOWmzKxoYlvu5VIyaRC+853vlFNOOcV+UfjAI/ildxVbkG91vhkeox6onJjYTLFCQFFX4MArg9RA5Bh3+mnxV4cQcew1A25+/Ld/W+6++25vPEfjs3ETitb2oCVbjjaXNatW2erHplzkc+yY0cYdVrauqrff+c63y1lnnWXFkXla5CksMaGIkregP1aGsaJqgBTyBV6JdOCBB/o8JuQ3ft3AKl3qBFx4nyO5N2FnCNxudx15c7S33zEt0sBCKygg1AVDu3379bVfOhjUIbB14xbV8xbRvF5UPdTNRtUxc2HMq9Cj5Qd8sb10l6LLt57qyCDT2Afl3Xfe9hLhY44+qvx///g/iCegi0VWjKk/+JiGlDigZ5QfZE9C0id8F414vNtdf6QL7ETL+NcN94R8jrC62qEbvuWVkHhEQoFLhvbfeuut8k//9E+SSdtLv/4DrdAsW7bUmynC92xlAE94OLzCrztnOzqUa66+ykNIWFDp8FAngDuEforsWSaSF5ekyg9+7En/9Gdri350gKm3wUMGl4Hi1Z49eptPAXjGslbQgg/dFSV45RvnLDXhqwm7VXmhIWBpNEQEsdIrQTDMnTu3zJj+oRk09y2BqDeLGTqrIaVny/4Ijz3+mM2TzJVAGDFsQ69m3tx5Ze8p+5Tvff/7jbi5LAggZiITBbshF4Qfxl2jUTGj4KMKl6uX+IRf8hhIY0UOcxR6+Y19ad5VL91DYAKUjf33399WDBifjfbomWS8MLeHS8R8DPNgNaHHgqWEsXPzqYQkAoJ8ocQQjmdwxTvCD8HCZlHEMWrESDe28lbmzPm83Hbb7eWJJx43s6MAEYbJtuCLMrEj5sEHHlCulmDZe8oU9YhYKbWpdFGalK1BHMpLCmyEA+6cB8LJsT/76Y3egAqLF8sm+cg4uYflhC/OFaKemetD+cgDvVMmseYR+Ch3rFIAFyzLJAXK7nrgotx6QqkE+B+WsMr6wj/canceuedQEXkBKDsTcX2Inr7TA6bXhqUJK9pf//X/sAIyctQolwGFjdUUlJuVRuzLwnDkNil2KCLsOjx65CjFuUnK2ZIydepJ5frrryuDBg+wck45SJv8kjvo2dZF6IAy6blHz15lybKVXvqMyZuNuygAuCK/TQgAZ4AVB3AqHOHGu/FZXaHILy6fffaZZELVSMoPc1ggKCyGzGFBXjg8dCm+Js7tm7dWtCH6Uv1SR64D6Ew/+I3J6Cg40AO1yiqyefPmlp///Oc+9+vQQw4u1157dTn3nHOkiK/2EBLyIPk2884vShT/uZFG22fy2N4dOcqz3/TPnQLFTX6Jvy1kuLbgOHRFfuKZC5kJ3lCW6XxB+3/2Z39Wli9b4aXhlAnFq2/fPp6kj3JOOGQLCkzPHr0sz2fO/KT8yX/6T5aHcagkf5GeywDeSVP8ZryIz9nrKevFw3xyhwfNO8oz8cO3Q4R75sbB5lLzo0DtAvio44RY2sdHE778sFuVF3qj7IvhSZxiOhr27CnT0M2e/WlZpN4KBEaj6B12RdT0SF979dVy1913+Z1dGqNh7OxxbcJfeOFF5fAjjlS8wSQGnt1wMC+E3isTdINBYQysMjFHIoZ0YMIYokAwJnNFAwgTiD+dX8LCxClQvXeB/OJG48ycGxQL4kaouAdPLxqBKH8wM+mgBDFWTjgzcBUvcSIUeMefU9czcbJKhx4lEz+Z19JbjSCKzJNPPlkeeeQRj++neRalBCUGIK9s6X36aadKuTqq9FKPcMXK5cYnw0cIeRpm9/CcF4QHe1zE4X+ffjpbaTzlxp6VQygyjDdv3oTwYsY/z5u9qoPTZrHgAFhX2KiOsjNcdeABB5RzzzsnthcXXpiDQDr0eMGx//sWYtXix/nJuzzqmRoOb4E3XggB7gDKRX1SbudPZQCnCFwUy3feebfcccedPlsmT5f1JGLwThhFgyJCr5LTs1GYBw0aUEYMH2ZrCJYiVmUxT+jggw72903CN3lAWaQx5Bwndgx2zpQ/lO3cwXXYsOGl/8DBYclSHacQJ89NaB9cz4LEEXfkAPPhuOAPFAXoE8A/dB2NX7ihiMBT7MRspVz0YhVT+PfKRVV8zptgdQtzsWi04Wu29Yc/li9dZj575JGHbbHkJPULLji/jBs7RmG3WnGBRkgneRnLA2F5J99ByzvXN+951aH+nt8zji+C9uIy4K4b9MpT+sONRQTMZzHPSolgEv7DDz9S2KEWywpDvuDDQznCE/hiqBM0MqGXYfvf+fbvuBOHhcb51A88WMmq0rd81eWvigsZnHNcwJ0+CV/IW/C+w1aeEZJ5KDCe+7YDfieyXUF7uGkHF034SsBuU14Y/oGBYXoIFiJG4EOIMDSNDGZFVqJ8qt4TzNNNWjzL7yB6NH2GaWZ8ON0CB6sGcbB3yd57T3FjuHwFh/pB+2KGGt16noeYEOAb6UWaMFJ4jF69vpmZYBqsCKGohKkftEWPLRUdKy+Om0Y/emhYl+ghWHBJOBImhq3iMEPi4Wwgr2SQHy7iCQtDMDhuUYYwM5NXLBk0pAArWkaNGuVljM8+84zntWAFknddYekAb+SVPDGJlv1aGJ4ZOpit6VepDEqnS9QBK6hSqHfUhXJJY9+lM9aYbeXhRx71JFYm0bIahkYYszv5QniRbxqRPJCNtFH+GD5j/g7H5LOV/2WXXlpOPPHEsk1pIvShB5/dpLJT1hCdVbkpDO+KBxxQLjvpu/1Vz/j1U+1OfVAewjHkw1wkhhNYvQMef/azn5VHVSZ2+8XqhcKC/6jn4t7m4sVSilV/HNXfrWvnspdw3qdPL69aYSLiueeeK3yebOWM1WXgDpogkzRclIQ9ZGggsS7xzY2YlHLmJbGcc5N6/KYd4THpKcvRhJ0B3MB74Jr6Yi4XE0iZR4c1IL937BjKIDxJwwpu4UHkBnUAX3RWJwGZgJKJUoJVlG/4y6FaGnGGfUiL4db+ffuWD6ZP9/5FnEnEUO23f+fb5YzTTxcdb/JyeXRr8gcBIM/MU8pX8jGXMmQ6Ib+8c+cin/WrDvne+KYrZVZrn63B6bUDGZ9SVviWNG31lhuyD6CTxAaX//1//+/i+ThYkXPUsKKyfxPWGXiA/XOoC1Y3Xn31NZbJ8BpKDXnIicnUi3mbIvhfKGH65wv5YaVInSa+kadBQ6TkqwNEpwPLPLnGOh7ytckvewrsNuWlsxq52N8gNiOD0dm8CAUCAU4jAyEihLC+zBAjLFu2ovTy1tkbxETdLEjwSyMO03GuC6s0aDywSNCDFq2bnhvDC3oXK5oJYJq0vtDb9RipGYCeuhph+achawlIIxqKBUItFJUQkCkUaHzpnXHHHatHphNpKrzCePxdwpKlgwx9RXiUOOayYF3Jw8RQGGKVA2XFzI1lBf/s1cKukQjZN954o9x8881eAs3EZebeoDDQ0yE/xEu6HKB41VVXeTIspzCDJ4aomFuDRQEFBiGLcMV6Qq8JvLIC55VXXi0PPvRweeed9yS0OABwWFkjXOM/hRbnEKG4UEcIecrMsmd6oVHmTuV0CfcrrrjC5l4anC5d4nBBrBdRp5iKw4IDgD8EGA42JatuUrlLYMMq3i34eKru4IBncOp4hVNgwoSJ5c477vTyZzaamzJlivMA7aBI0uAxCXfhwkXGEfOTOCxyxIhhPkRx9ZpVZdXKFeXoo44sN9xwg891obdPebGWYW1DoAIoLAAKYCfF42EqKYJYGseOHWchzEngDKVRBuIAyDf1TL6aEAAuwI8VCNEKPAbdsLU/F9+SH+ELUEm7C0bpnaOg0kjC1ygSKDTE6c4G1kHdOXsKwMroibhSWIkPyygTeUl3+dIlUuAf98IBlCVo+gc//IE7EQsXzFcdoyTHhHdoiTwho8I6uUkKramVfw0g7426573mlu51SPoArADowp/T0nPyQB3aiwdId/IEfuppor6AS2QZ9yHqsLDi6C/+4s9tjQR/WH05wZ6wrDIkD2effbbxAn0js1gFhKUxZGjQtC27SsZHG+i9kWPyLz9p9XIHSvWFZZK0+ki+hdLashKKZ+RLE/YM2K3DRvPnhXmXORoIBls3RPT0hFp4DE08LAEfVhva0ZAwDwHGRZOHyUJAhKkXAkbobKnOBgnugC2DuZlg2U0NLcSPgIHomcQn1cQMAwMRN/kBUgZkb98xwmzyYwGCNYD4dZFPAGWIYDBxTihlMh9CjThQLlBayAMxomhRaHo4tszIFQanoabxo/dHI8qdxhWlhzKyQyXLnpmUS8+GPUfIS0yGAy9SAFVWLAVnnnVGOfHEE6zEMCkVAFfKou6kuMOC2uFc1g6lq/C7aOHi8vjjT5Y333hLAn6rFJehVsYQZOAphOQOp49yhZJCOWIYrLd6qd1UtG1l//0PKOede1454ogj7G/VmtXe6I7yUVYUtWhw6hPpqDVuuld1SXpx4ex/bnzCW7g7XDy4DgCUCvJDI/fTf/5ZmT7jQ6LzHCqGdhjmQsmhbjmzBaXY9KI8dRGesFhx/AHDYOwvdNnll5Yjjzjc+aUBteBUmlnnVoZFQ5SPuiJPzAWCxiZNnKQ6HEryVqi8TL3KZwJpUwbuLVB/jvLtaQCeUejhBSyMzG9BCQZP0GM2YDwzJ6VTx9gaAVxiPUFGUKc8Z0OfVhksL+AY+mUSLvXG1gDEBW/h/uLzL5Q3X3+jfP7Zp7bwsvz5jDPOsF9W3iC/aPLJB40uc+nYbBDFJTpIkgHV6qGkUWXeeaQMru/qHXD+lH4+J6Q793TnnTLBT3W/CY34dwGKSemGHy5kkYcxReO8gzfKhaK9YOGC8t5773uVIUdlIJ/WqrO01157lVNPPc1KPpZceJ0wzBsDH+yPQ6fVFkjxRw7FN3JLebgpDBZdLLJYp7FQovAzP4wykh9kcgQJHOy6bLty3xlHTfhqwG4cNmKy6xYfWIcCw2RJei302IMIg9F4jvkKCqQ7k/AwR9JAYv6nN0wPl6WmKB/ZyzGxiq4lhiKecPHz5Il7uSGDaZhARkNMg/bxxzMt7FgFQwODuR8gXAoChANxWLGQG2FzCTEXzJ7zJEIRw5y5zY0j6fXtF0NEKE0oLsRDrwHBSSHNfIrXzOgUO7pnhwBAGcBES3g287vv/vukVDzuSaKh5GxVBmMXYYZ+yD/j0awiOnnaVI9Pe7WO8I4ShSCC+bEIRLr0SJmkywGMPdyrevyxJ6QYvagw273Mu3PnrhIoMU/Dgk3lYw8YhlZoTJh8C6oYIqKM5Hv8+DHl4osuktJypBsH4wIcgi/hxgJd7xa6lYJI4V1+/ilr+Mc964Rn46jyT+8Qz1lP8S2sHuCYlVcIV6xTDz/8iC0fCEHXofBF6BhG2OZNDlFmCYuAZdXXAOFukYQ1q4k4nuC0U0+xlSrm6DhJpwN9oKCAJ8KDH3qcWA9Rrg846CDXIQKc75LQZDuKWVOCKW+UuYq8Ac5pPELgexgYJ8IzlloUFibHg3Noz1YNrH16hzbZugC6RTZQN9BXWljAM348t0hyhUYVOgjlRjJAfOL5WX37uOfPnA7OPmKuHXu0LJPcYg8kVscxdEKclkXiOzoHmU/ziGQSygvvVB0dpyL+I99cQNCrwuGmsOke9IBlqNbAVzSRdKJ/Qf3Vu9MOD/xvBRnvrqAehy+58d9x8k34Ii9EjfziG5beTZIJuDGEjIUG/8iZRgwKh2xGRlMPXMTHRRnxxg3ADWASPnU6dMgwyzxkCnvO0MmBdygL/IX/enw7Q+RhZ8Bve/6b8FWA3aa8iMzc6LLbKwyLqRHFhbHREAQb3CtPoeMJc1gR6Alt3OhVPZj7OR8kGAtlIiw0QE819MvVe0YAwWy9evYon8z8pGxYv66MGTO6/PKXv/TmckMGDylHHHmke1BDhw333BkaYHrM7FGA5k+jAiiZGgRDK/NmTD6RVytaCESYSMoAZUJJSOZjy3kglR0gmJBGOHpLMD1DNoSbv2Ce74wdY5bFLxNl//Iv/tKKHz2gTp1j/gxxROMew09HH3W0d3RleGnZ8uXCo3qBSjN7UfyIW1kOAS4hBM7ZpI7VAX/+l3/lYZO9JqDs0dhujQm51gqx0my2Mgm+XA7VE6vBOOiRYRP2crnkkovLd37ndyTEt5X166QQ6N6oU+UFpYu8UC6uqEuEkPLkfynA46JcNDL4jflRYakKSwfzpGKTuFQk2JuFeTlPPf1U+a//9b/aorLfvvsrzzRQ9FKxhEE3m2JPoGrzOfLP5OdDDz3EG5xN/+CdcvY5Z5Y/+IM/8JJQGs5UPikLSEThCwVui557CZcMG2yx4sIKov32218KHZPSdwvLfSkBfuHycAI8oB/1lvUHLdOYw/9MIN+wYVP5fM5cD5PCW9AQvM7qH+gA2oBewDFLcrEIbN8hIhLKoR+++VKaNLLUP3PSUpFGVhAPwPlFfcW3Q6T4Pv3Ek+Whhx90Hlj2/K1vf7tceOGF5fO5nzesbpZByreHOAVJ1wHhBsB/28Xj8CoKjXmxuuJ7DIuR37DMhmwBzBPyRj7xx3uGIz6eMs36N4BnX/nOk/6Mlyr++K5fjUbrTy3RxbB2vVwJGReeW8KGBRR+pwjwHrIZ/mDeinEvXqZOXAdWJLuXYcNHeGIu+CXtRke2CXs87DblBSahVw7xIvRhICbvIggYUqGx5xvCKARDC5PwTiPBzo5sbMcYMoIDVklm9+S4bvS8GKuVYFNczAf5UD21WbNmel5G7AMCo3coY8eNK9OmnVym6lq0mLM6orHkO8yUXFhnR3LETqlANqjkDeYlf6zuwcKD0oLVhLwRZ5aHKwUKbjBwNojs2MqwBRNchw8fZjd6mTfe+PPy2muvl43rNzpOGH7TZlawIAw6l25quDHbsr/I4YcfbgGROwzTuCOkUQ4zTcIjTFNxYZLtIw8/qsb+6dK7Tz9bLCQyLExRDikXco0NqVjZBRL4Rs/U5//05ODCTT6z5corr3TjT4/UdamGwoqdcJa4IB/tgpz5jgLIvS60yDNukX96gRKW/g4OWHod+aFR40TnW2+91SuvGHtHWV2v/FjhVHwoXFjxULRYJQagYDJEBB0uXLDQp0B/7dKLy9FHH+HvTDhGQcoeMjhmOI2yUN8xXMTurTFPAHM3F8/QicvVBAPKAwoB9E1DjtUSPPLOHVrhxzP09sH0D8WfsbEl7mnF05/no5hWRBc4wLdYXTqLJvDrxl31zrANBIb8oe5QqOHrRmdJ77amiq5WSul/TR0dziXCOsycsauvuaqMGz++LFHni3DIEdcp9EnV6o57QuRPFzTnj1xY2US3lf9URvxNcSELksbTrYqsETP+jSfLMHmpcBY8sTONOQ88kFUnFTHZ8lHlA5dwl9/4XIPWbturVVxAlCvu5Ckh0wCwtlNOeD/ziFKKssgQHXlAXsNbdKAGDxlW+g8YZJ7CP0CYepxN2HNhtykvMGcOEfGMsoLCwYRJLhiAYQcLE32HYGFkLhpCGAA3GvnZsz8rSxYvhrKr+TAxwVXcbD8IyJEjhpcPp88ot9xysxsQ3KOhiV1iOW15ypT9yh/84AcWkjlRFn+7EgZ2kqCjl4e5mVcUBRiQHjZzWigDeSY8ZYExeSZOCyYBjX+6o7wlXjyLf/Agjy3ffttt5amnnvKuwuwB0klCGSUBccEhlTTykydPLNNOmuo5JcPUWwmlhe8Mb8XQCGnyDk7Bi4pnJWiplJYnn3iivPrqa8rDOjX0fb20d/Pm2JCN/DEJeSXb4EtxIjzmdRoXVtuggGItm7L33uX0M04rxx9/fISRIkGPOtJrMe2CVxoU/1VuQH4jszj5m2VhfPcHPacyg8LiMXn96M2BY/KOEvaoFJYHH3ywWhUxyI0FOAH3CuYNATlfi51wWa6OIMXChTWLDcaY43DOOeeUk085pfTv31dh11vZIU/EQVpucN3YYeXhXKvYjG/Dxs3qMY4s++67r5UWAP/UGbTbhADqOC2B4AeF0LRA5VL3uhgiYl4LK1iWLF3mHjmWMnr+0AE/Kyr6wYe2wIo2g8d4ZzfcmGOCG8qvkrJVlY4Py+W5eId3Rw4fXlZIaZkx/YPywvMvSIFd4L2QLr/iinLoIYcoXzs8XAxQn97iXmC6Ur5b6BcC9qeGWzTy0H6WM9zqYXH3RThdUY6wUDoegcMm4K4bLuAPPw3FSJBhAD9VEeOXh4ircuS/4/BjG2jjvoNSVGFSMROQdj5zazwLWMWVHRfK5WfkE8qirTLsmTPUu+R6Ir/qL8udOCBcq/I3YY+E3TdsJOJDCWEewhNqNFk1wzJnZpLjzuRPesQoNTQK7vkjcWpAHLgxro1gY+Y/woQJXvpoczBx0eAMHza0vPH6a+XGG38mholhBXp8mKs5WwkkXHvdDWXayad4k7SYvBnKBXzdHrPsULwITxQmdsVl9RQNFUpHn76x9Jl0uGjIiY/88JzCCjfiRnGjzLyzXJfGFsXn/vvvKz/5x594Tg69d2DB/IVKe4fToqFlHs2RRx5Wzj77TG+WhlAHXwhi4qZ3SQNrYSHhzioa3Imf3tMrr7xWbr75FvdE2d/E+49YAZQAVflQ5DgHaeWqVVZQaLDpRXXt1tVKIXmnXJdcdFG5+JKLPaziidVSDrOhRmghxBBQqcyQhzpe45mr6mVxKS1bVniu/IJPnugh44s8MoTFJGYUF85f+clPflLefPPNctSRRypvHK4Xky5trlZ5GHIDD0xcxn2Q6oyVRPhlOPO4446JU38nTSqL1dP3Sdceoovt3RmmoGGkwaPnyFEI4JzhTIaIjj/hpNK9O5axqOdQlMO61oQWoE7BUTz7ZnxBN/DmypUrPCkXC1rgUh0E8SYKCO90HHgGv4FjeC4aQ/gAFWDjhtiyAKKhrthqP+a2bLFfLpQf6Jw5Lu++9Ub56MMZttQiB6659pry9RtuMN/SsYKfWIVH3Ow55U4O+UAjrhrrFrrOe4uYpcl3QSqgvHkRjgtrCD7gG1srRDuhbATYn+52I6yeMw7APFLlId0A+ydu+w18Uv6WfLb23xoIUz0KlEtcGv4jzoyPd//3Mzf85jsyGIAf6UCCP1YxMY2A89aQbbZmVvlKGiEN40fla8KeDbt12AgLB71+BD5b12NxOEQ9G4Y9MPEzbIKwgFgRTDbvishznwwaAogYJkFocXAeczWwxtBAhoBCo1cDLOZfoAb1kUcftpLAtu/cmVy57z77eqns+L0mmVkQFggtGMiNbMWMQJ1R2WQN6wONGcI25rX0d5lg0lReEigHbghNCx+HZ7LbJisAhENpwWLDHjY//vGPfOwASgInPB962GGFgx4/+/Rzp4mJnQm555xzdjnr7NPF4Fs8nMOk2Mgmy5TZVCt6qZzrkn0l0gXnzz//Unn/3ekWzAyzYIKmgfYqDYVF8WMFBScbgwUENXEOVD49J0hKwd577+0hokMOPti9ZOaIoNC5/MI7ZbPSIlxkHVI/VtwyR4HWCvRSDRchIPXQqjfXUAL0Sh0jRjnsjWHHm26+uTz15FOuO/JFHZM+Cks0aFtjbyEJTZQX6IyddKERykIjce1115TTTjvV+V8ixaWLaA9Fl7AIUZRp8Ifg7Y61Rf4Yhly9arUtLRMnT1bDy3BIKG+Ug7BJr01oAfgocQJ+4HMA3oc+UdrhD/zFpdpWHUGvALTE5GrwTH2gyEAXyafQyo5tNNbFfNRBdIfyQngsJtQ58XPaM50P5sK9+tLzUtaXeDsBFNhpJ5/sLQfWrGbbeymsklMMayAXUFih7QYNi0msVtTujbxXCo6c3OwD8b91fgFoBloznQN8l1sC34F6o54XvIICkXEn+Hs+cykvKH8xbNQS966B+KtHQ4TJvDcir0XV+CbghHzq2pZqKy/hkY4AS9hHDB/hzgdZcbAqX1kuIGmlHm8T9kzYrcoLjQrMxzNKSgorlq4eeuihviMcEGSYiWmoaJghfgBGT+b1aiMROoKIgxpZOURDmUsf0T9YfsvGasSJYCEos9kHqNftSZtSdGISGvHJhy7ip6GFMWF9BJB/MJQEC8oLApe8Mj8F5kJwuGGuwgOs/mHfCPJOWPyhgKCw8Rzh+7iXeccdd5THHnvMOOnbr4+HZbKxxCrCXAyGPHKuz6WXXVKOP+4YKRlLLYhQLmj0EXykz+FymSdWaDEpmfhfeOklxbOl9OszoNEgo6wgUxgiYndcVhIh4Mkj+e7Rs4cVNMo9XMLmnLPP9hARjfjG9Sy/DqUDZZJhKYA8pvUEIB4gcZRCPoAHaCJMww6rsvAcn4mbM5di6JB8syrqkUcf86GQNECDBg+2ErJGz4RlrgPKKEotlj7yiLLCGUIoYYQhnqnTTvLOqH379vawA/hNBdYCt1PQEjilAcWyt2b1WuFnUxkxckQZM3qMN+qCplCKO3ZoMXlH1it6Un6asDOAJ/ADD7DCDsWTOgPAmWkZ3IvXwT2Wmaif+jwi7tGxIT7vpLwZPo0JwdukuPDNCmnXzvresXSTYjvn88/K008/VaZ/8EHp3b1rueC8c8vFX7ukDB8xoqzkuAorHcgI9nESHShuOkYo6XxDLjgPmQ2qvPaMzPCfaYGHkAttgSBRRj2BD13QL8NU8HakERHXaQswXZJL5JWg/q3xXOWR95BFkRZXzfsuAP/Vo+BX+xfIj8ueLwKXQwof1luWQI8aOVodNw6fxSIeZbOM12PigvqPPLYucxP2XNhtyguAUpKECaBUsJkRW84juE466ST3ZBE2NJaLFi00w9B448bGaPRoiSMgGratW7Z5bsNrr73mISB6RkzCjCXNsWLJJmU1jDAHO58Sr2e4q0EMBolxZuIkDVty1CAjBFldgxt7DgwaOMAb5xEO/9Egw9jRy0K48Yx73Bm2YZ7FOodBYWE1EGX/h3/4BysurE6hjEz0RTjTmyRdyglTY+HZtIElycxl2VIuueRCH7e/evWK0l29S9CJ0LMAQAKonPQUmen/4ksvl3vvvc+NQn/Fj0AuO0IwoBwhPFCaqAdwjhJAQ86QCQdi4rZu3epy0cUXl/PPP9/555TorEPnEYHIT89cHhtXfiy79OrxeAFCzePcDYFVCXS9EocCuYcWyk/6USj5Qwnj5O6nn3rahyguX77Cm+bRiwNXNCykwHABSuLqlas87EU+OYJh4oQJrsely5ba2seqrHHjxlj5xR06os7cIFRlAI/QC8oqNMS5OX379feeLcOlvCQOAJZFg+8mBFhhqHgBfIJn8Mg73+AFaBLFha0QwDsXOE0rCwAZbZF/IK1x1DcAT0IfnoQrPx5CUlpbtoYFAzpjI0zoAdpgaHeLlNrnn322PP3kUwq/pRxy8EHlj374/TJ+/FjLkE2Km4m8Vh6UF/LLIYNKyM+KRuVRdEGeAfjxDb+VUlN7t5su8maa0d3uyrsVIb5Xbo6I4DxX8WR8gP1U0AjTDqS7/yu4o24V1v/tFnyY+eYKf4109Yp8IThudq/i46JMlgFyT56gXjy8By4thzt5qgAbYHbr1sNywKkIt46Olw52aUIT2oXdrrxko56MBLFD3CyF5ARTTLfHHnusGQpzLxNG8ekzRiR4aMTwTzjiAoiK+NZJSWB59Nw5c8yCmI1tVk4mrUouNrVbl84oPiEIiYt4kwG5IwBRMnhHuWCYB0HJxXfC8C0EdWebpem9cydPjF+zdDPjYm4EcVDW//Jf/osbQwQ1E9bqk5WBTBc8WHlT3mJ1zPZy9dVXlsMOP9SrjtinRd7c+w8FrVNhd9w5c+eWO++8u7z8y1d8jg49HYagUAC3bVUDIMFND3bZ0mVS+FYav6SBIBkyZLAtChxWiIXhBz/4ftlnnynOEytvmCfgpa7CX1WNBsrpSwIp6xewGz/uyqxN3NSHlCdANY2eIHzGRm/UTa5CwT/zS1jS/Dd/8zfloYcfLsNVHk6DxpLHRbxYkFDGVkthYd4EDRzDjVhbEJoMIfZTvi+7/LLytUsu8fEE63UpcJUvBG70qOnlq3YdH0NrzHcATyOFCzbeY2IzwwlY+kwr+hG2bm1qQvAkgKJi3FKfwjV1g0WM7RKoPxQbeM88r4tnaA1e8Hw1W19jqT1xEC1KNv6s5Iue8Es9UC+kylAmK9Cgc/zCn9D5448+Vl5+4UXTwre/+a1y1VVXKBSKToTBQsARGc6vc181rNatg16RHvEv8hKgZysjqQRU3yoPtj4QSH9RhvAf8QQkvtpCxNcC6Q/aI37Pa6lBPR6efLXyw7Nyo3hjKIm6iXTgzegERZ7lSOBIQ3zdXn65hd/KDWe9M2zNZHY6XxwPwvw6FEHPa2tExD2fCRhxNqEJbWG3Ttilh19XXrhSAeHOJNyXXnrJ1ofjjj+ujFJjIV8+zBHrBe40mtHIxRBEMhDMQs8XYcZOvkzmZSM1lk3TK0/FBUZhCACB19GOuvTnHpCYmHhhVPfudKfxYk4KwwwxFBNKkwVHBTZ9wrgKjzKCIKW3h7LFviNMyCU8S5/vuuuucu+99zo8TM2kU+JDEBOOZ4B3gPJxjghzW2I4p0O54srLPGGXU6DprSDoMW2zO+7SJcs8gfWll1+WcrO19O7VR3FWw1fIXuGJht7WiTWrPQ8kJjru8H4WKCYIM+bWnH3OOWXatKlSArrGfigqI3kkLhqDPNnZAokHvXMP1xagnvwD57QS8uB6A/16RlmgnknX+8Aofty6q4fGGVfsJnzrbbd5EvGwYSOsPKIUZt1TVygtrCQif5ydxDJuhojICw3k8aInJhezUy57v0SdRa/RuHbdBk2RDyZzMo9l9ao1ziOHL3qXY6UNfciLgfDkg4uwTWgBcILiYgVDuOEdpQXeZM4Q1lZwjvICzvGLP+ow8QmtMZmcdwBaBefwmRVWKTX4w83DrLZEhsUMAusvml6lNNlsjgn8nJ128IEHlm9+/evl8MMOUx2zgo8zrNhULuQCYkEkHaAHaJM/ZSLc/JJA3VeP1XPkNZ6dN8Vlq5HyBO1kWbKMCeneFup+6mB3hWmlvOi58aYHjtGgPAHxgPeMkudUysAbxE5d+B1PVRrOG2VI/0SVcWQC8ptKDP8YquvOEmjx4QDJEzbvw711OfFcReRI69+a0IQW2K3KC5aXurDnCqETAgjhhSDDAvPB9A/KMUcf5b1LaJy5UH5Y5dOta3eHC2aLuHmGiS0kdEdgYZKeP3+emTcaJvy4ExX8onRxQABixmSODQ2d5z6o147S0ad3HwtE509xMJeFZ9Jo5FvhuupCYLKaBcWAOEePGmOryYIFC8stt9ziZbxMWma+CyZ0ypvl5zmVGCAFOIIEywzxsq8Fpu7Lr7hUjfExZcPGdS4vO8ei3DzzzLPlSSkuWAqYEMd8GQQOFhfKTi+WyYdLlQfyaKuUhBtDQYMGDLQVByWOAxzPO+8cr6JCaQRo7Gk4yA8WDRoVBL3FjSmKf1JQlE7Uir6D5JRLNXB9yR/heSZNcMwQFcoKO2zSg379tdfLrbfe5snMAwcOcrrUD+UgH+CKd+iCicMcA9FPvTtWRNGwgeuDDzpIyt4V5cAD97d/9/K3SVFUeFuh5I+GkGEC8MsSWuqe03FR+lBasD5xHpQVQP2YU0TZqLuso6TFJgRA39BYDgGBd5QWlrSz4R91QT1Cz2ExhI6qxlykBE+BU7Y1oK4S18gBAH7NFWV+V13Btyi9KJh0dJh0zfLnN15/vcyfKzmwbUu57trrPM+J+WrLRR9egSc+IH9MNic97tAx6UXGSEH/fAdwjxe81D4YTCfxweWBBWjUySvujXK2gQwD1L/WY6+HC1y1KC/18PnM/5or3ivIB+KL57QcJk7bWl449iCHuRzEn0MWmu8rfs7vI0ePEd8OdmcjZFzw7c5lz/fIRxOa0B586Swv+Y0LYYeFAqVhzpzPvR0+QxhnnnmmLRg0vDRWq9QbRphlgw8QF8zmRl+/Xj16SSBttDVn+ocz9B0GUYODfwST3rbS21I4etmEoaEmHuaeYBWhsWTVCmkgCOExeh2Zd9xDCemksq2Kc06UL8yjLAPHSsR8kx/96EceIqJcLH9m/ksezphCmfLTQyVOhF8Md4USg/KCZYFhHdJnwu7UqSfIL3jrXF595bVy5113llmfzCoDB8XBjygwlBGhzvAVFg32zmAekQJJkKOEdCujRo/0tupYVlg6/Pu///seups3b47zBA4oB7jkmTxikWCnY4Z7SIR0XAYLIf5TnniyUwWJN8pM48O8Ite9hB7zbKhP8EMD97d/+3fl3nvuLf36D7C1BEsLPWvwQz3R2OQeOeCTLdhZ/swQEb1rRVm++c1vlcsvu0xh13nIgLwQnh4h1jjM19Qf8aDooazx/Pqbb5T99tnPc2MGSqnLRph5LSilDNFleazEqQwIbt6bEACdoECAE1Z7cSQIPLB2zbrSS7wFXZsGpSzix3MgRNvuqCgstM5yeC6wSgNI3REvPX3q0HNoxEMoLN61VXUDTzEPDF686447yiczZzouDgr9k//0nzz8uXLVSitNDOFCRyhHYT0IKw+0gHJNfAlZt9yh7QDouXqsQfiNb6Zvnh1/SzzIKr7VrSb5DeBbQt29Dvajb60sL4K6f558tfLTku96Ovm8K+VFL45Mof09/acMQyHFDfnJMugBA4f4e/BI8B5x76o8TWjCF8GXbs4LxA5B03Ah0GAACyUJMnriH0v4YEWZPHmyz0JKKwzbhuOX+DJO/bN1JBUMmIoLwTlXAnTBQs6bYUigm60vni9SMSB5YLItQw39+vZzg0p8WACIHxGUhyySZ9xo0DjYkJOWEbKsEoJxKQfzWm677TafE4Rf8k65yDv3BL6RtgWBigCjIzQpA98oYyovzAPZrPSuv+G6Mm3aieW9994pjz/+THn3nfet1PXr3y/CsOrH5UJJiVN4sbbQMw3c7rBFiIae+Fh9dewxx5SzzzrLw2wxuZjVHXFwIcA7ecQtzo4J5aNCu+MEohyUh9RDQKew803uNAzk0yZ6lZcjBrooXYawnn/+hXL77XeWhQsXlBHDR3oojEm4KFCkQeNFgwMtkU/qF2WNuS1U2Vb5O+roI8tFF11Y9ho/3koZ8x4kfp08uGZJONmVyuEy0CNkouaqlausPE+cNLGMGTXa+ccqQMPqBo68K70EGiR6nChB1FcUsAkA9Q7torBgOaPOgtaj4aQuoSVogd48q+nAHn68M64rqGrg9SUnQ3vyvOiBTggKPnEgO6g3aJvvixbOL88982yZL55nq3+GPq++8kqvnGMJNHWJZWfzlliSzfwmW1rIAcmKkIKOI5/+kW9++NenFsCteqzAYSt3l0PPlaGmem+B8BtQ/7Yr9/b8oMDpzX9KipTtDvDUWrlpyS/BG+W0Tyi+xX9b5SUVdV/2GeH8JpzRuQleHFh69+kjPOMHfiHNUIiCBuK5CU34dWC3KS8wHY0ogibfIWIaAxp77rzjDoHjRoMJQ2AxmDNnTrVSZ4yUhtjPhcaLnjf+UTxyN0eYhfAA8TJPBX+zZs+26RrLAb01mJVJsCgoQwYPdiMePexttkbYjKxGDUhBQdqkgTvliZUqnbzZHhsusa34TTfd5P1amPOCkkAZIh+hAGRc+ZzKCxcCPwVU+mOuBTuABs62lbPOOlN53FoeefSRwu63PXtxknOYv+m1InSIB4sBeaTsmzkDSL3X/hYu/Z0f3o866shy6mmnlVHKv1dbqJFBsGedAJk3IOoMS1T4aRBTPuDNDRSrQGKlAcoUq4KIwo1EVe80WqxqYvjm9Tfe9CGKn8ycZasXK7pQWMAzygXxMU9ihRRZhne2bZUS2KWrFQ2OOuAMKxRE9p854ID9HT/5i/wKH8oDdGAcGr8I2x5u9NgrCCHLpEKUZA+3CVLQZvkJl3UDyLUFL3KvHn8rgXIG/YVSzXPiBZrJ4aHAd0fPbZk7d675FhpMQNHz/BLi07uVYRNNyASQiPLCeVHUHxPJSc+geoRXbY2RX5RKrLHw5EDRNfTxvhT6l158wWkec/TR5aILLyyHH36YeYHhU5IiDxAscdBR6CT6IjM0xECWDcsQbuSv+uI//7M2UuW8+ke4bKQpCv5cpnh0nPmS35PHgIZfQe2xFYDfhIwu40poFTaTFLTypxufGjnSR39RpM6nXsK76lxPzpvcqRPqI+okykynih1yh1QHKppvhDshWkGifOClpfxNaMKvD7tVeUHZgLAtGMSEKQhhiLaA/3SHIXhnOS9xsGonTdI5hEAj2btnT3+nMcSCgDUCBqPx6tIlxrM5QRhrDmfYMHdh0KDBtkDkkAh5i3HwOLmW/JEOQgZ33un1M9mQPORKIfzeeOONnpDLnhUoLVhhUpgnED7jbA9SOCWO8MdwBsKXdGkkyCcXee7RqyWvAAIdYcIQHXnEHw0AFinwNlz5Xb50sfez+MY3vlGm7LOPV+c4N8KTEgZlDUiBYzHtR4SbnXYJ3jq/Zy8rht7UTfGysRib/JFnlEwajWFDh5Vly5eWn/7zjeWJJ542XjjXCdSw8iMsO3EmDfNXsKBQzxsV19hRI8uECRM8LMCGdVdcfnk57/zzXfYNwgXKFcpRTPBkvlJHH9yHsoKbD/iUkjWTfYYGDylHH3Os5zcxPEV9blPYrIsmBD9SPwm2moiuccfiwTP8yjt1xcR78Jf0Ax3yvmGzFGRPkmWOWzSA/FCYqXf8oByjuJIGioyaQNOLqssW07WqR+qZ+uojJXeHvn3y0Yfl9VdfLZ9/9pnqd3P51je/KUX2Kltb4APylpaEJF8rsVxVOarmuwEpf1poPyEa84iOD/AEDXns6GwfxFu7A/aaEVXuoUi19se31jlpgV3S5C7CZJqt4hcwXJ7WIAV2dvyaZdqRyhjKC6+SgeIh14noADlEGORN3779yuAhQ3xnXozDuB5b5F4TmvCvhS+F5SUYPZSTFIBtId1glFQiCJcNNwIzhSZKCnGzhwN7emDehHncgEmw0XiRVkzi6+yDGOkR0ttmciZAnMSFn4bQUnpcmTbuKBD4RaHARIobF3n43ve+5433mO+S5co46teuygzwnW/4oaEmLXbhpQFPweXeqvxRfhpoC0CVGesCvUuUJ5Q49qlBaWEFEXOHUBw4yPGUk6eWCy+6yD1YesgIIo4TcNrORPyrbnZvD3bl3qkjEzFjOTsKI75YsUReOLSRLdaJ/ZVXXim33nqLeugLyuDBKIFxSrNXEhGRAlJuetQeLlBcDI1xFo0w6H1CDjzggHLV1VeXfaSEoSzFMQfFuABf1CcNHZI6FV5WYHFmFBa94447XsoLacc8jKwbye5dlm9PhAZeKroFt2ml5ALgQSbjMlEePgF/0GoqOlwoKYwkZI8cJQXrScSLws58FlZ08U18r8YRSx2KJsN98CvKJUB8q1etLC+/9GL55YsvmN7Hi/d++MM/KHtPnuw8LhYv4I9zq6AfJWx6dFmIRHc6MTj6S1XlfE9+a0UH8hrNeUB+wk/KnTokvoDw20jA6bfEHf7Sez1cHXblnvG1BaJvHYQ6dBW0DGVVbmSNe/qPnEkm4K6f9JKGK0oak9iZo4bS4nOJVFdty9+EJvxbwW5XXlAEECZANnDJkMnIIQiqjab07MZVfrlCIYleMeFowImTSXnsnMpyYt4x/aO40LtCqJEOk/RgMOKjQVy0eLEbcNLIeFAWMn3C4I4beSc/CM44ebm44cdvTr799re/XT766KMyceJE55X88b3tBeQ9y5530sy0uRMP6dGoo5DghhKCO8+EIizzWWgw2CE39muJuSCclozyxnXEkUeUU08+uQwfOsy9X8JxuQdqP6gEAmUt8wfUn+uwS3f6yvrmeAWkzSNDcX0k8N5+++1y9913W3lh0iSTjLdsYf7CJgtFeuSsJGGuExOPadxQwFAY+UZ9jB45opx7zjnl+BNOsGVpzRopxl3j7KHoFUoBFA7osZOXWEre1RsCctzCYYcd7iEiVichykPJrYSv8tqhU6XINcEADpMfuer0Sn3AC2w2t1g8ZRwKcOcZPwDPns8FZne08IKtY+rV448NJ73aR/hn2NXDMCgu4mHzvxQYjqlAqZ0xY3p59plnyrIli73h4IUXXFDOP+881zsHb8IHnqCvvKJEuxPiFAMogXlAd+dFf35HCSFdA/msHgVR7rxag8P6+86Ac8RTRYZf3lpe+e9n4IviaReq+L4YyF88WXlROVUNdsvQfpZ74KOqI19y10UdIAP79e1v+RKyEP4h7oiDMB4ebuCwCU3418NXQnlJQFjynTA03nxHmUjLQwpGW3Pkn2ixPKSZGCuMuU4XcZCMU1DYVeqxLVBDhj/Cx/cwjRM3dxpBhDI9fIaBaDxhXCs+CsuQERdWF/LyzW9+0wKcuRPEURdAvOf1RcD3LFfGgZAAd+AAxYXv4I68MwRDfthZ2I2L4mDZ9tChQzz5mPkho8eMLpdccrGXDWPS37Zlq1drgEfKzuoZlBnXC/mrZVE5brzXn78IyDPzVEA4jRWBBg8aYsvIzTfdXO655x7jl2EflA32XSEPpE+erLSsXV0t8S4e7uKIgmXLltp6cooUsMsvv8z1gfWE9MALDVq3Hih2sWlgTM7G0hcnT7/00ssWttOmTvOmfQBKLnjz2U7KEz19yeGQ7v+C5mBPAWgO/OQzvMEdhfq9997zkC58gMLCnaFeaBQaNl0JCG+a1RWKTQxFgG/TrvxyR+FgZ9bgn6iDzqoX6h7yWzB/Xnn11VfLL19+2QrvkUccXn74wx+UvSdPMl9Ce9A14U1DUp57dMeqt1GkaCo25LAR5x85Fb+G4kIDbnKHABP4zq9Vo2xHu1d/rSDCE8ZJ48I/OTlEC7R5j7L/GtA2vrbQ5nsOG+FW/0KymbTzXl08o7xQ7wz3clQIOI5h2RaLi8PgUX8RexOa8G8Du015AbAMIMgQYhA5AiwFG9CWYWEI/KV/gAbKjUzlRphgmB3qXedcEoYU6LWvLX3VaCEkEVkMr3g1knywsuXzOXPCDeVHcdSFLOmguBAfk3FRXnBjuIl5Nvvtt58VGdwIj9D97ne/W955550yduxYx5HuXBlvlmNXUMdB5geFjYYAfIAzgDsNByudUGAAhFAfNRrsBMsQDBYPNvs799xz9VysuNBoc7I0wyrdWclTKUEsWaV3mrIVqCsr8YwQizdgVz0rhBm5Ae/ggInWb77xVvkff/3XXro+edJkm5pZiYJfzjtBiQGXlIll5whXrC3Dhg11uqtWrij77buPlJbLfYwEjSWKDsIUPBGeSdhM3qXxQ6jmYXpM8l22dHk5YP/9y/66UFRQWsgbeAS/5JVJ4FhoqAMvA6/K3gSqIJCRCgm0iKLAMBETc610qB5wR8mAd6xsyC84Jhx3LCjwgclcUVL/0CITzfFLnfLO9gXMUUGRQAFl2AdFhLOInn366TJv7udlxIjh5dJLvla+/o0bFFnMiWM7gvXrNphmyLGtcLpz1hX8kO7UsTnNdR2AC+74IC/1Rh1I3myh+/CPc35LSHzFPfyEU7jjUMXmbwEtz23jS8h4d4JGfDtD27h4JxYPG+mh8d1KR3WFQxUn+OjoM8QGDhrojkCDT8Q3We/Om+LwvjyOZ1c5akITfn3YrcpLDnsgvCB4BF6dGZOJ6syGP97xG0IPBm9hGCAFhD54gp/d5cQyYbazp1HiWIGWxorTZTeVTz/7VHHGUlfCIWwRnlha2LSMCYHMFaGx+0x+mYsxbPhwz2khDfySD9LnYs4L5ytxSjZ5JD2ENsB7+uPiHch3ADf8ZzmBuv+Mi0YeRZAeLqZxZvZzSi5KFmWjHPvtt2859rhjymT1RrG+RMMRS35BDr/4Q0jTC62ET2TF7q2f/T/y5TyFcknjgxvvESAEGnnAGoKCcscdd5bXXn3NK8KYHEt9YElKqweTeRkewoLE0B4rk9iVk7NoUDJZBs0y7qlTT7IixGnOKCXgnjpAaaEMvJMHGkgsOeCI+T+cp3LYoYfbgkVe6ZljlQm8x/AS4XFLxcsNlMu05wF4iboN2qaOAN7BH3hFYcHKCO9Al/hJnPIM73mrfuGxhU4YEoyJntCuzw8S/xHe9SIlJWk/eDg2huwpxZoh4aeeeMI75RbFM1UK7LnnnF2OOPxwT+RmCTRKKIp8DFlAqxEHPzfDcqSeo94FOOlHPuqQS6XJh8H+uOObp7j43vDTgIg7k4h3/NXdHFV1r4dved453oC28QD26n/64G8taQa0xJVu5nq98N7Ah1xdbr1ywCVKJPkAfxzHMYLtHsTXKCatwxEVEfMeeItvyJomNOHfBnbrsBHDHm5sJJC4LKAErQSFgOe8+Fb/zjPh2obBjRUldK7odfONBpRGe906Vqss9+ofdtZkF1fMzey+i/BkTgzvKCcIVTZvGzlylPM4c+bM8smsT8oIKS2TJk8x89Kbs4Cu8sGFX5QXjthP5QVhjz++ZR5x4z0bBMIm8J1wfMcf7+mGP3BHo0/jQbmArmoMOOgRSwtlGDdubDn77LPLPvvuo3DMG6rOCKrSScFeB7+2ZMNQzxcf3ZMSYGonvgCsXV0clkaDfNODRtlgJ+T77ruv3HXn3baEDBs6VG3OduMYYUg+KAPl8TEFwjvxcizBEPXu/C7/p556spe74s4uup7DQMry68ZRz1jCevVixddm1XkPz23hbCdwzBbwQ4cOU6PJ3jptCtkA3Nt+I+Y2iNpDANyieCf98QwuUTJys7lQNLd5gnQq1UCEic5GkEzyB3SPhZP4w/IJrVCHAP7hKxQQ6hPoKj5csmhhefvNNwt7Mn3y8Uzz+LXXXFNOPeXk0qtnT9M8jSwRkw4XlkXA/ytajWf+aIzlXfzFnc9b4BHccPEfX8KvP+z0nI1yi4xywF0C/qrHNtDCS63Bilc7AG6dXCO9Km6uKh/8J7+7itvAN9UV/ES9wGvwtvGnz8RC/QwdMtTbFrAqkzO9dg2RdgtkpprQhH8b2K2Wl7ryko0zAMPUGY3nvPCXbnVoG8ZCVpoLTKsP/Dkd3Onhr127zkM+CGKGdWg058+f63iwZDCkgiIzZnRs6Y8Jmo3mmAB88sknl9FjxsjPiqo3GekSPxBpdC3f//73vUSUuRwAcSOUswwAYcgDcYSgbxFSGQ9hMg3ceEag02gQPoY5OH9oYBkvZYX8cwjd1GlTy/nnnev5LJwD5PkE+ikbVR70AHoc8xcDeU+IjcRS6CPWwDNxhkLFfisoG1hFyBNWlh/96MfumU+aPKmwOzKNHTlAUaTRYyk3k2xRFtnojyXM1AtxLlww38NyrCKiZ71mdVhkKHf28ml84tC9zl4OiyWNAxw5SfrNN98qxx57nPewwT3wXResTdgVJL2iSMCvPENzwS/zPSEdXgGnNHzsOozVDn9hwYoGkHohLuZSEQ/KLd9QWFk+7/pjk0jdoQcA6yHL6eE/5ko9+eST5Z233y7rlfaihQvK/qKJ//wnf2JrIu+MSkDf0CKTxKlieKU+WuHHipf4Fn5b0/cWLAy6191agT5GyIR4Du9OtHLRve7tV0JYKduD5P+24PJluoZMs3XeXVb7be2egOrmVVzy4w6Bi8Ez8wcjDMND48aPMy0wjLelqqcmNGF3wG5TXmAiGjounhFa2XDzDuMkJOMByXz177i1DWMzNY21hW8oLemPNHN+CsMICGIsMAukoDBnhHiYyInQZKx+9uxZZf6CBVIMxnurfAQ1jSZMThOeCgVCPcuBlecHP/hBeeGFFzysBPDNDW1VBt6Jiwt3LuKplyPDcOVzWltS8UOYcD4S4/vM82GiIucR7bXXBCsCNBbuTemHcEPhENb8R1II+vahNY4TSDOsWWqk1EDxnnilLCh04Jc5EHffdVd55JHHrLCwuR5lQ/HCP9YbDk+kPAwhsm0/Q0soPEyuRpFhnsuZZ57hIyFYiUS5nS/w5NwgkJV/xUWcXkqrH0MW8+cv8EaDnPzMhEIaSnBIHmI4qAm/CsApF7ijbqljlFAmRudEeOofYPiPOtnmBjjoODYno7pwg4bkru/83CgqbpZCEwd0yiqv6Pmz3cAm0zNK0rPPPmslFitof/Hlaaed5tVE/fS8ePEiW9qgCSQICkBaBF3XSsPgPJCDAMubKlsupx7xEurPzuD48ptu+ZzRew4NscifJ//io/2oBO1/SBnYFnal1ACRfpWJKs2wqEaYxEMA9Vk91gDlhZ9XVclDlA1+6ije7eUNH9nSALnm4T0P+0XYJjRhd8BuVV4QiAjDBBgshWULs7VmPr4BdTcapLZhEAKdYGDdo0cYEwth6u3bW88j4WyT2bNnlxXLV3iy6KCBg7y0cubHMyU459lEysTO3Oo/gd6i/vk5lQsugEb4D//wD72zLhYEINPMMuAXN+7gIvOT3wErSfqe4bhjpUCpQtgTd27ah5I09aQTysEHHagyM/+DZcJStMiz40zBFvFbSOuPBr89yPwA9Tz5WZ+igUDYhkCk0WEeCXX66KOPlNtuva0aNhrc6E1TL1zEjaLIAZMs5wYP4Bdlxadly+9xxx+vBur8MnLUSCsyjTyokSB8Nqi4x9XJFptPZn5iYb//AQeW8RPGu5dIvWcdpbLYhF8N1BW4BW/M/WLYlL2LoG9wSD0knbDNAKcGu36Ff75jDYM+AvfBf9AMdI0/7ijfKKamEX3r0bO7LYeLFi4qL730YvlwxocQo+m5txrQ73//e+XMM84oC6UcEz6scF0ibqVm60/V2EMyTPaGYO3S8i/yqUf74Z/yaV92CG9VKEMqXX6uygw4aHUnnsAJLnlvC7tyjzy1B/X02kKkX2WiiluYdk7reflC0OfOquOOkhcooXT6kIVMpO/bJ5ZAezhOfnIeYdN62YTdCbtdeclGOy+EZAqAhPpzQvoHUrjWGZ9nlBcYG0aG8WiksTrQw2cbepgUoYrFAoWAA+N4ZzjpjTffsHJw4gknlkmTJrnHQQMKl5Mem2nFkfmt80s+ACwPf/RHf1Sefvpp91pwz28AYTLfQAiDFsUGcBmseLUMG9HwMhyDpQKhn+GxtDCc1bMHcwTWWagTlgMOUTLosbpHWuU/5B35Vp7jbSfINIF6vsAovVniJY/kiSEcBBx7trCK6M233vJBhsCG9ZttoaEOqG/Kw/4fTBz2jqmqk8FDBtvStWTxkjJq5PByw3XXlhOnnuThJfBOWbh7GE1p0kNk52QfgbBps5eB01Of/sH0Mmr0qHKC6q1TbV4LeYyJudtiNdYuVz7syh1oH0+/zUC9Q0vUAwo+q8Ooi6RLvkEnXAz7dZC7UShUQRv4SdqPcDHPJQEeRNl150Lv/fv19X2GFJbnnn22LF600HsTfThjRtl7773Lf/tv/1UK+5iyYOECr4gjfwxFMTQa5MrqllBe+AaddtiBUtRSr0nXmW8g+aiKooUK9CBfOz8LMmxLeYgv31OJafH/qyEshr8uZHoBkQey6Vst/Yrr8eF7HZAB4MsWI92ZM4e1kg0bwc0myRF4iDoFqMddW4N25d5AVBOa8K+GL4XlJRmMuwWOmKXOdK0YUN95z4v3uns+w2QwK5+5W3mR8OSZjc2wrOQ4vJx8Z3+Kjz/+SA3rEu8USeOLYhO9fsdcpRsMjPKSbqSZeeGdnuQf//Efl4cfftjWEb7Vy9XWP5Dv3Mk/7oQhb+SdhgJ39pJBkKDAsHnbQQceWL73/e8rnxvKurWrFSYmRNLIo7Cx+iaFotNSMvX0U9bwxmPmh3v6q3z6u03G+lF/zG+hrKzieuzRR8s9995r5QCFLTYGk+K1PYaUUJ3WrF1bli9b5uEEJluisLAHDauk8HPOOeeUiy++yD1sJu5mI8Tlcii+zdV8F+qBCcKdlYdPP/3ccy8uu+xS9xbJJ8oKjSO4I27yjdCloQwTf3tQIWMn2JX/3xKoaC3xDW7BHXXASiJ2yeUdGgSvDP3x7HlUVYNGOKycNIAoDdAP9Uy8DNFSD5AWuzf7Af9CK3XKN1YR0bF48/XXrQRDH1ycw3X66aeV666/3sOJdDQIi+LKXBh4AesilhdbVqt0k9ZbVTVuFbih9jv0FW7+qmfjQOWyH5z0zs9vcqtC6c5TXKSHd+LKb84Dn4F6Plq/VPCrlRfiTSB+v9ejcnKRDyb9wHNt88Q96jgyhhvb+CNnwCXnEtERYRsF/EETXsFnuRdh4SfooH3IAreF9srchCb8v4MvzbBRMhMXwi6hLhj5xp2r3rjnva1fADcEo5UUAf54zngA/OCG4Jw+/QO/MwSDtQVTeO7MiZWAePnupbneH7uFITNN7gxf/Omf/qkPZWTCbqbHt0wXqOch/bSFjDfLiOUFqwvKC6dAH3jQQeUHf/AHZcXK5Ra4hiouotP/yq0lLqAlrRa3/M4nBCmKXg65ACw5ZqIeeUHxQLF78fkXyz333FsWLJhfBg4YpF5b7HjqvCg6YiRva9euMT4xSQ/o178MGjzQu+XS0B15xBE+i2jC+PEeamLSZCps5BOhmsoSPW125+3chf13NpQ5c+aVKfvsX6ZMmWJFCn9A0kYTvhjA7w7zRPAdeMPSwkaHH0yfbkUFuqM6acjY/yd5CKUBRWH7DlbbiS7oncsNfmEYAgqz1c31yP47m0uXbmxoF3zQvWsXXV0dz8cff1ief+451enask11yHyXIw4/rEydOtUKeqfOHaVMrdE99hRJaKHZiu/9F25pSWgPKFNCS3zIkuAdyogf6FCR+Be+kFPhhx9lJ/zOeWp5B+pZIWx7sGvlJdKqA2VsxKO4nQc/RFoBdvEdoA5QQjKuVPw8z6h09Lw0tlhA9gH1MjWhCV8maNESvoTwP4txUmjVBQgCm97G4Ycf7qXNfKOhBeh1NCb9VUDWvih/hEcw/Cr4ojjyG/e2/ogfIYSA5awevpND3HNfikaW/SEedwbijfizQYpGn3k7sXEbjVcoMlJcNseKnhHDR5SZH39S/q//8/9X/uIv/tKK1N6T97bQC6WKvWQ4yXpd+fyzT314IucY0UjuJWWOAxfZIRcr0nd//7vle1K+Juw1oWzYpLTUGJBG9tpp/OidoxCyBwwTeskXO+SyHBprDVayHNozLlQOGswm/MuAxisVRIZP3377LW+wSN1bERVOGUalbqENCAocE4Y5Ksx1ol5YHYSSrxbdcbFZ4EYpm1hImP+CAoK1ZsNGxVm2e7IuCvLzzz5THrj/PoUVXSss9Xja6aeV74suDpdiu37jBu/9g9JOw0vaCUHrleJiCHpuvHNv7/oCwDpHnmNJd8xV82TWKpzTdzRfHA/+TMO6HERli7xFVK2vlnzvdCkcilj+/Cw3QI+Vaz7btfFLFwCs4SfqT3we2Cz9Bwyw3MNKDJ9Rd/BPXcFrQhO+TLBbLS8wB40czJnCJ5/r7+m//g2m4j0a2l/P8kKaCN10z3jZAwWhsHDhAguGGJpQPPqmh0hX94ybRjV7q0C6c8cC8Bd/8RflJz/5ia04hM08ck9/uGd+udehHh9AfgmP5QUBs3z5MjfmTCb+X/7dvytr1q4KgeY4HcSCiT+DPkVMATincMu8ebhJSgMrgJhDwjb8mI9x4zt46yy83HnnneWO2+/wXitTpuxjXNCwIfQYngGvbCTG1v7khXyy0Rxb+zNBl3RPPeXUcv4F55cxY8aUJYsXOwyKIulgYaHRRCFBaeJUafbx6CaFiomc7IY8TT1yhG237hK2W6Puo5ccOGsPp01oB8CTyACLyiuv/NKrtJgwu3DxotJXSkl4EY10YAiSDR03wkimH+oKywN1t1XKKpvIwSPgHaXEc1ykkFAvzE3CqsYEW1aBUb/z5nxW3njttTJv7lzRWc+yVArtpImTyje+8fVyzNFHKa0NXtXEeVVeyqs0sf6RH9IGPESlezTmUe88US772AUJ6HMDCJPAhH74oU478HmkF/zK3ek4XIStx8Gz8aM74YjPllv9UMp3lScsUu0BUe/My8G39XfngT/d+bUqg8Pr0ndv8aC0mMzOJPkRI0f5NHYgZSJ15nLU4mhCE74s8KVSXmBynhsMKUgBlQzEva3fvNf94gbglkoKgD8aWNwyLFfEW8pWKTALFyz0O0D+3NsjT/iF8ysJgjDYlfLCCqC/+Zu/KT/+8Y8bc14yHxk3sKvnelwJKUxQXpgQvGTJYjXqa8t+++1f/sO//1+kPKytGo4qQAPSobUgIi6uDmq5cEdBIQ380+PGcsJSVMzKvXv3UX1tKx9/9FG56ZabyyeffFKGDRnqDeDWrF7rMOCai3pdvWqVzy4ijp49u5Vhw4caX8zROeCAA8r555/vvVvAx5Ytm5wf0id74JR7zFnZYgGLIslkXuZfjBs/oRx15FHGA+ByVPVAORJndZpowq4BimBuFCvrOCMIaxZDgigSSX3upesF/KYCz4/Gtj7MsmOL6lPKCTRgWtPlOS4C6hBllHph36QXX3xJysvs0tsbKoaV84wzzigXXXSRJ+6i5OIXIG74MGnWUN0zj+le9+Nn8vEroBFngt7Dgkn6wR+hWHBFfASJcBG2HgfPiRNWSWFJhFcIC24yTFuoRdEKcId/qqQdHPzTaeCe75kH+6/8ZjjfdcHH8Dn7tgwbNlz33t5rBz5PfAPkP2VlE5rwZYMWSv0NgwVbDXYSHoL23P4tIJkx48+8wPw5VNE2f0iD8M9cl7h28lMDviGsAcLtqixt81CHXYUB8B/x4i96pI6j4Va/qod2INJtEczZ2Pfozkmx///2zjzK8qq696eHquqq6uqhuqur5xGabkAUExQwa9kgo5gIooAjRjExvCQOWcZIEIgGx+StRPPiH29lrffeysqLw3pR0ehySlRwRQXBGUQBpRt6Hqqrx+rh7c93//a9596+VT0wVFf1+d46debhd+/Z+7fPPtN0LYadN3d+2rB+Y/rEP34i3XLLrWnzpi1pyaIlJuDsS1u3bLfn7NAt1rrJemAgbdywIW3ftk2LablOYeXpp6e9Jsh0dU1Jf3DTTemWv/iLdNZZZxoT5TI+Fl0yerdRYEclJBpoF21Bg4W2h50ubA+/7LLL00VrLk69vbP0SDBiF3bq31/8fv6SKDga+B55wXJ2C7vwurs70+Aujtdvs37Ozjl7sdlvtZepHvu9ON3WF/QOmaCzVxo6ppTQrHAKLpq6LvvdOH2aizFZZMvoXjv8LN2vTAD+4uc/b4LLb1JPd5f1la1pxfJl6cMf+mC66c1vsnonm1C+SzuI6BdMM3VMmaIpKPpKjS7sN1avNT99xenBQqp4+d3BvxamNRDGlEJJrIxKGxJCmlBlx+9CQWuQR0cRWBLaSH9XmZa/lWkZiGlGrRnE66+ezGwGJECto42iERdAGfjMmzc/LVq02ISXfglWQSvxXSJ0AQTGgoKTEaMmvATEbDI0+58JBAOiLids98NkVH/lz+9WCVQ845gQQlKUf6Jo9Z14mRXbtGityZEhAJCnOZ/nqSWqoimLtqLhIA5Gxnw//qn2Irrrri+kP//zd6dvf/vudN5550moYXcRQgXMjYPjYHa8/LZt3SohhpF7/9x+rYP4+c9/ns4///x0x223pyuvvMKEnt2aUuJEVW2RNQbPqI/t5/4MLkxx8Rvb1r/2ta+nZcuWp+tveHVatHiJ4rlugHNdmDKizfEctAODm/YVHB16wdrvv2DB/LR69Sqd78GiW34KBBfulmKBNC9eFkuzFoopvB4TULA7WRvFGiUTaJhuZHs+2pdd9jvzW8c5LD//2U/TP/3T/0z/53//r7R7cGeaZP0aBvRHb/3D9JGPfCgtXbrYBNSt3kOtctacIbjQTVVvtTW6tii9AvRRoxGzcOU04/4jjf3nX04RAv0fARiDQIbQpDNoLFUcbliJRZ5P/9zfCPjLRGlc+H5dKPC2R5uPMMp1pBGsHp4f4163yeU7gbwMB4nNst/WMngeM7SD3URLlizV78zvxIABWicvtBPPTnvLAKDgZMWoTxuxToKXTBAkYRBYnQg9LYiw3I8bIsPOwzEQICA+0hIGgUZZgDDPe1iMl6P0iSefQNnuagBEzzqAqC/aAViT8m//9m/pjjvuqO02ivbgDhN5czT7AWnR5PD9MCWFRgJhYZeNkJda+bffdlsaGGB9idVvf4wWKUUaIj0fZfg0mZ6rqhfBgeembVSL0CDVvqV96KFfpE996tPpxz/+iRbWIpCwToERd3w32PyGus3aBBHWPPg2S99xtGjRwvTKa68xoee31XZG6IyeaVO05bA1Ib4bmCjuHdt3pHU6IHBWeuELz9d9RAeGXMvioN0YwJMe+Z0VHBvoG4fsJbbdvnMOn+NFuG7dE+nxtY+bkOmXp2rq1BJyI/emzZvS9Okza8KhhEV7qbNmhr5BeGdnR5rE7c+dXWmr9dOvffWr6TePPaa1K7sGdqZ9e/fqVu/ff9ON6XnPf64uUqRvAPVTs13hQT+tbFnWZ82hfi5vRT/YCmkEYUpjdpWlAaKBqk+5AOD9imfmWcQrrCFr163VjfQrTluhKdVcWHBTb1OgHqdWKA22Onyrxhg8bQsQXMsC73CX1s8YGGwA8rNeDKEFrVUVqGmhKR2d0rSwjgm+JZqjORhVUKUvKBgDGHXhhRccwkqEheSfE3HOqEDuxw2jwc7DMfFCxB1pCKPePH3YEO/+IdTnW5SHtoDhpohgenXG1yi8oJr97Gc/m24zoSKEF54zfzbC8ny4wzTXhx/hhTZRNgJMCC+sqbn99ttt1Dvg+czUcsvrmgx5iad8Y24wZUbLtItyeenMmNGbfm0vmS988YvpnrvvkTDBuSnEI6TE7gsYOKPswZ1oUHhhTdIFjJySy5ZocPXVL0+XXXqZjfC6lJ7n5Dtm9Epz8GsKzvJSBjdMs6METc3EiZPTBRecb6Nx/+54efq9RKHG5gnjKXk2f76C44X9HvQJs3fsMOHXPqJHC2JnGWce8eLm9Gl+B7SR1n3S9oEd+k25aZ3EaML4BdCgsa4JQReNzc9/9rP0zf/8T00b9s2enTZv2qQTb6+95pp01UuvSjN6p2mHGf2BvgVtasE3faVqV40uqMn+xa8eII5GEd8MwiKvw8sC9CW0QnidLhnkuEDAVCiCHAvEEeZ5Vk4Xpn9P6TABLyHc+F1M0b5meLjbXq+7RZ16tiPRqpyjgd+F3Xhao8PH/MhHnG0Ff0IrxiGOnL2EAFPlqmyA+/jrLSgYTcQwdlSgF+kziGZG4MykzmioP9pQS4ulNMbIjIE2q6hHQpSFDVPDNIMXNoJAGJg1dqt2hVAHyBdpMC4IOBjx6uhug8Xqv/PHipFZegQTRr28qEhBnaSBsQ3tP6ARcn//vPSlf/9y+rM/e1f69Kc+k+bYKI0tsEwLwbxh4tTF7o919kJjtxOlTZ82NS1cMF/rWzjk77TTT0+f+MQ/pjfe+AZNFyCgqi4TQLjojTJYoMnLAQ3MAat/rtX92KOPpW9981vpjJWr0qtf/Rpjtouq500mOLFmplvP6KieU6bgqYBRO/0cAZGtzLzQWQODXM7p0ue/8IXpOc85W2tX+N0OWV+b09eXpvX0pG3btmotEu4F8+alWbN607nnPs9+z/70mU9/Ov2/z3xG25+XLlmSHn3kEd3G/r6/uiO9/e1vsxfqzLR7717ru143C4WZngm6id/eodey9efKawhakFv/W6MxjjJ80KEpSyvQzzKydCZBUd5UexbuCmN6BSGGXVRMlbKVmAEEAr/TLG3wdlBu3e/G4Q731wKPG7QzEM+NYRoq1uTAL7RbT0IYu4Um6zlWr16tHVzdXVP13eYDLsxTaVdBwWhhVDUvMABebMGssAmLF24gCDfCcj9uXuTYeXjERVi8/Kkj17xEPMAZCxdRueoFb2CLY54uEEwQNNfJtAmal1tvvVVbpakX5pILIfHckQ9EfuKw0UgA8iE8kJaXPuUjRHCgV9+cPnshvM+ei1Ns8+/IyrL/hJCP59YUnfl5vnZeVsbg2DbJgth//b+fTA888IAWw3JYFZoVfh9eLHwX+CmDF5ZxTK0R0n1E03t0kB9z+6965at0qFh3V6e2P2sKyhgqW505zp/n0fdgTJd6KZthIueK0JYrr7xSQhMLhfX89iLVgkcDeeM7K3i6gCbAeo29AHfu3FHre4TzWx8+7HdBIYSiUeGk3ccf/03auWuXa+RM2Fi79glN+bDVtmdajwkpj+po/8d//Rtd1bBj+zYt4H7FNdek665/lQk2c2sHKlK2hCfrjxj6A+ttDvICtlaoB4s0oAu6HW11GjoWkErTlHisAJ6Pcpy2mKLmWdECe99CiO/tnU335ltRAexAlM/qhjfEVKu32dsCH4g21dtGfGbbPz7+LK378bE8Vy2NWZSHpop2QCfQNa3r6OzUDkGOJug2oVPPY3G1NTu0pSrHeUVBwdjCqAovvJB5OeKGkMTIKoGhRqCGIK5mYsMf5WDn4REXYbnwEnVEXD2dTxttaZo2ystpAOGZ8iqvE+Hic5/7XLrllltq57xIcDCbtjQj8mFyRFragiBAPAyeNTXb7aUQh7a9/33vs9aLQyl9fHsUV2es9vzmZiGkFlzai2bd2ifTF77wxfT1r39djA1hBGhtitWJoMFom9+JaSOfOpqgUTgjbQQaNCpr1rw4XXXVS5WfLdK8gHhecJC6rd74nXgJkJ/g++69L3XY6JaFwIxsUckfUqM9vZ8b4iNdvdhafHcFTwX0Wfsh7MdgazK/j3bbmF+LVE144QUfL2yEToQBppJ+bcLJgQO+O4/F1vw2XET63f/6L+Wf3sNdVRtTf39fuv7663T/FofS0Wd5wzLt0japTZoNFuaqb1g+BCL8CDB0hQbQadTcY3v5koL+44C+ai6LowxozLWgTMciuLdN7tAzqh32bLFDCGzZ6ryBthNW30kU7fEy67a5snDctPd4hZfhwr0sawBl24f2MmW3cOES0aUGB0rnmuAop15eXu7w32NBwcmG1hQ0TjAcwTdseaxQ99ftYAweN5wZDjApS9GQpF4ebQsD04ex1OtyYSW0LhGWg3hXGTuT9dFlVT4JeHYNt5RcQgiCC+k4H4VR2Tf/81vpPSZcffHfv5Tm2GiYeXEEFUbcrF0AHDLHmS0cRsdpubzD2JXCNNHadY/rXqJ3//m70htvvNEEqilaiInAEYIa7YSx4+aFBNiFtGnT5vSVr3xFi41vuOHVafWq1ZoWQuPio2sTZiexg8XzxmLlgqcfdBX6DJovPP49+2CCCLQSvjbEX46EL1u6TNNJ/P7cDM7Uy+xZvWmzCSuc+My1D/Sdyy+7NP3Dxz+errjiCk1tDu4atN/Tz0/iCgGtf6LvWt/kN1cbDKIJS0jb6D/0cYSc2m6d3JBoBDhted+jXAQw2uJlM6jx9S9MEWldmabRoEsXWsQvzNCXCadSaIm2MwUa68lqsALrTQqHqPKEEbyiDqd1giQ4EWJt4hnmzJmrreW4/ft0bVrwmuZyCgrGIkZV8wIR5ZoXXrAwiOGQEx15As783B9pokzscAfykVQOZ3ATdMEf51fgpz0wa9gD2gTinRE408Md8DrM2EiWraXf+ta30x//8Z+kxYttFGTMkfI4vTNva7SLEVL4MaTh+8jDMKSjPUwdcUEd01yMGP/6r++0OGNUVj4ygoQbY2oIABMsgO8IdE+dpht5//mf/znd/e27U+/s2Wl231xpWlw44btCIOKguQEJLryMWKjJegZOyT14kF0hh9Pv/e7vpqte9jJ9Byzc9SdxRg94SSCwIIAgDKE5gply8zO7uq644qVpwfyFylPwbCO+cxeyD5lwwGm20Ia6tIXR36puY/BfN0B/8p1JSQcHsqWdNVUP3P+A7vNasXx5+m8335xOP/30tMP6KVcEWA/2Uur/ZLGAN0CdAo3Kw0lof0Z16p/DoZbfkLtbAUFI9FvRGn2bs2kIF0+xNMQjzECP7IBjGtMFG84mckEg6pHNH+EKad0GDS8ovIbmNJTfGAZNefH8XiaM2YcUCFDsHIInLFy4KPX2znSBhXZ51oKCcYmTSniBUcRLthVyRhACABCjqfyRJsrEDnf4Oc68FcQQLDtrSTgCPdqjPDArM9JgWHheT8DDzJjwghbiO/d8J9188x+LqbBrx9N6vshPWVEe8WhbsLUwsKoTRPoQXhBYEF5oJ+4777xTbeP6/8OMKu2DHx6IzUhsYGBn+trXvpa+9OUva+TL9mcWS+4bYuGw13vQbJg05e4xYQaBbVZvr0bYEuisDeed93xNES1dulQLefnmaB8CCqpqykZQ4SWAEMWODV4Kjz76mI72P/30lTr3hcPM/LHq32HBs4X4zq3f2YffeS+7fljEKnnc6WU4OYH+Rd9EA9HZxRTmdq11IYadSVz5wCJephnpF7qVWLH8s/9yhNs9tbgmeLj/U73uaQLtxSJFwMNyGs3BS55+joDPNOzsvtl6ptq0lbUbPxoM+j6XVeL378XaUQkvoMHWX2N4IyS+OJiyy1oMVESWj+ZzSjFCiwsrPmAiCQve5/RxjMEM3YAPrbeus6BgfMGpYJSQE1m4T5TwWjGo4cqCdZD6CFOVQb7Iqxe6MTFU6TAuDGHDMUSBvGbq23rroNy8HIQRRrBRB/GEE482JG9LgPjm8BCCEByYfulon5L27R9KXd1dEm5+8IP704c++KH0r//6yTRzxkzdHIvwg/CBZoWnGbLRMVonrh3YObDDhI72tHLl6Wn27FlapMsOk5tv/iMzN2u6Ry8mazP15qprFuayXgJBbPasPgucqKPgae51112X1ly0xp65UyPagpMB3o/oA/yK0bdkhvnQPzlPhBc4fY7TlAnjlm8u+aNP0L+ErJ/GVmfIJ2c+SpGlwxmGf/rIn0U0GM/XCtR1pHG6Zs0KfRh/DCLol1qHY36eC00KO+4IQ2iJ7ybqDDeW7JEaI+hp/FPlyw3xAdpq/7MpINJYvNEUfg6bYwu0LsU0wSV4SEHBeMeoCi+gxgiOATCYMJEPg785PsKay8/drZCXBSI/jPloeQOk0m6edj/Yi7wKtwgYDEwxwnnBa/7fwmCmns5v8B0JefuiHOzOzm7t7NlvjLavrz8N7BhMf//3H0sfuPPOtHHjxnTm6jPJnbZs3mp5jWEbE0Rtv3twMK1/8sm0w4SUKR1cCdCfVixbKoEGDcyVV16e3vvev0yXXPISY+SDafu2HSactUtI4vwV2oO2hTUvCDKUy/Zndi994+vfSGtevCa94hXXpJm9M9Vm0jLiLTgZwIvbX978bvw+0dfD3WxIF1MoWgdiQItBH0YgZj0L2j7SokUMWGr+yRBXtwl0t/xVIn1q8cot2mo2nmc4QCvNBmHd6Y6rCFyL4lpcNJtoiqBBBhZoh3HTx9WCqipvjcPd/K+HjQxP76apbUaXdT8sGo1o7MjygQpTXKtWrZL2FK0m7ZYwZt87pqBgvGPUhJeRmc3Tj4b6xBfsX7OpEMIFgCngDqEDA0Zsv5iMr08RL6ql9R1MeV7cwTDzerFh+tgRFoiyo10gBCDienqmi6F/+tOf0bH+9973g7Rs2QqdVsvlhiykZFEtLx3WtGzZvDFtWL9ex/qzW2jB/Pmpb/YsLbo8+6wz0y23/EV60+//vnYIPfroI1aPa4xYF8MCYKbEsPft3Z86u7q1Y2jzli3p7rvv1lkZ73jHO9OZZ51lz8lz8T1OMuGK00uHnyIsePZA96IvRf/jczTQZ31NU/1FySLYPfv2qkDWzrjm0NdfSTOHx6AXfLgrG9Rd7lacGXe7f1jTkLsR2lrdwtAP0VTQPtGlhXl6K80MB/A98cQTJqhvF51FHarN6sQbaaMdxw7StkjvxQrxO6DNZCH7oYO+hm123xydlMtBlRzjQAZ+u+BRDGSOry0FBWMPo6p5yQns+In/GJHxYS/f5/gJbjZEh7CAAeTBHYwhDx+uvR7qa06CAXkN9fIoC4MfxhlrbDTqs3zYkTYQdeYmysJGmzF9xsz0ve/fm+6884PprrvuSpxbwcm1aEd27tylZsAM9+7Zq3uIuAqBMzgmT5qQFi9amObPm6d1D8zxv+61r0lve9uf6JCrPXt2WRl7NAUF06c+BCQxf03/TEwze3slRN1zzz1aX3PJZZdqigiVN4sK+S544dEIn7fn2erPVzB6qPUjFltnP0mrPocBvnuMtU6+1bm2Tusw06Kepr4uJMvLH7bSYKr/Vbk56uH1OEii2dh/xbVCrqHJjda1WN9lvQuCFovIoSHORUE4f/iXD6f1G9brO0FAEcyi7f6Mh5Tfn+94wPfgjxXfSc3oOXkWf57gHwcPHErTp8/Q4v8FCxZqvRgDBr5nLeC1L8GFRF+Xh7+gYDxj1IQXvfyM0LAhWl7WET4SSAtI15w2wjAuHATpQ+CMTjzOGQU2sYShanXNB20CvJTxh9AShrwwiagn2hPAT62oeblPJDQk5M1BWIA81ENaXgC4IxyVNfWFHxPfW5QL4+VQOdy33vqX6aMf/aiOep87d57SDA7u0mgMkJfzYdZv2KAzWhA2ZsyYls5YtdIYd1t6Yt3a9LznnpP+8X/8Q3rpS1+qfPv2+dHv/EZ8L3xX1gxj/vabGeNsa+tI8xfMT+vWrUtf//o30oW/8zvpxje+UfPx3HkD4hnUbvvoe8q+g4LRA7+F29bvhw6Ywz2ER79vNoDflDSsG0GgZYoFUEa8QPmFfTuxv+wbDIKNxfNfH0uMW8bKzcPDUKbXT8kAO9xWWq1PWT7KsHqGA+2nzZzJxEWj7JTiCoDvfe976Zvf+qbWufT3z5W2g7S1NiPI6I/Wu01drUwr+DNkPMGSaUE/H4vju+NqBq1xMfrCRqhavGSJNC4cLonA0jbZL1KlXdRVK6+g4BTAqN9txMszJ7yRmA0gLXkDwSAIw4Qf5sDx363gQosjygobJsWuAhgXggT+vNzm+gP1NMa0jO22TZ6U1q/fkK677gYTDmb6SMnKIj4QZfHs2CG0IDB4Wp7DXxbBoEK4YYEei2tJBwM+99xz0w9/+EPt9OCQqvbJbTpTg7Jgduz48NODt+h7pzymjhYuWmCMc2Latm2bGOMNN9yQLrzgfP0uaIPYfk3bmAagfqZ6JkywMGsT7UCg4T4i1rbMmzcvXXTRxTohl/xsr/bHPfL7ah1W8Owhvn+Ebetn9hvzm6FhM6f91vZ7K77176T+yKi/egljHnroofTEk0+qPy5asNDira/Yh7R8aj3fHKyzouRD1OWhgtMQDv7yGAdtI0Z8gmgPMETauj+mqlrRK0AAQBOofmrgEkpukGbnFQc4Mi0DfTE4EG3SJitP7bI/BBkhqm6BVs8gkLdqF4/M9xeLhGkXi97RBKGxXLZ8WeoyAQshqyY8GUhXUHCqYtSEF4iUF2sILzAHMYbKDAficmYUaQnDhH8k4QWiJ1meN0BYs/AS4a1AeGPdGI6+n5Q2bdxswsv1qadnWiW8wOxcawIiL88eZcCUqTOPw00YfkZggGO/N23apMWRpNHLxNJR1/59Q8YIqxNALW7Pnt21bdVMH4H+OXN0keLWrZvT1J7OdOmll6ZLL7lUC2opk7r4fdAG8V0yjcT3wQ4mLk3sMQGJEff9D9xvr4uJ6dznP193GnFEPAshJdzAkGm3Xij177jgZED8HtbP7P9wwou6dAvQ1+IlSl+Hnn/1q1+ltY+v1TEBaP20rkQvWOu/lZZFoG+bR+V7iBBCQbO7AdXWYp+WchoB0c7K6+2TaaTvHOIDVg4CAX0UQZz+DpgO4vuArgiXAGZGqOpSG48C2nAkaJeXRRvC+DocDmZEQDmkXYMLFy5MM2b2WrifNE0boOmCglMdJ4XoHsxlOCbzdIN6woBmBpPHBfI8eXzYOVSemWDqCB6M8HR4VVUX4SG0hOCRM8ioAy0JhnjSkw8gYBGvXTvGXJk2QrhgJxDHr6Oqpyo0KuvXr0/bt+/Q5YZTprSn5z73Odr+vO6JtWnlGSvTbbffnl5/4xvS5I62tLM67p9DxbC5z2a/ldVuI8Hde7i/pjvNX7Ag/eKhh9MnP/mptHzZivSqV12XzjrzLK0dYPTI2TEcF0/98OjqkQvGEax38s9f4Py+Ztg6jRaD7cVQhQQD+nTVAejD0f8lyshNCdWH+Orjf0d+QJRD9kbbhRrXuCjpiBDd2Qc6gobQInE79o6BHRJcmC6C5pjC0YCiVja5jl6Bt6uV8TJy4NclpTbgoi2sbVmx4rQ0a9ZsfdcSaCwNccE3CgpOZYya8JITbxBzmNEETCEEBNoSgsVIyBlJCCjkQPNAWc7AXTCJ8sNEXqWp6sLALGGgMcUDoh3kYYskmhSAAIOQgqaE6R2mg9jGunHTxrRh4wadvQHTW7JkkU483bhhg3YZsYPo9jtu13oVBByYIgIXwo8WMVr93VN7qFFbr9nlsNcEmP/4xn+oLk4P5hJG8rF4cM+evdZGa097R5rWMy1xSzBtzb+fgnEC+0l5qea0wb1FaFroa2hy0NgF8nT2/hewCI4+r7DKPZJxKLf5PY+7oRN3N8a1RtAmFzTS110LfEi7jBhsaBBg/ZwyRJtRrsquG8B3ceQHeJ7ceD4/NgFDMDv3aA90s2jhIh1siRaVksUnwrbv1enceUJBwamKUdW8NDOAsJ9pUE1eb/5yzd0hTATiRRxpsGHSAS/TbHMTiqqXHQ15PTArmBAgXGWYP4SUPE3EYZM22kMYB8R1dXUqDDfTOgDhZefgjrTRhJZt27dpNDeXM1tWLKdGbYm+8IIL0vvf//509dVXW71M3e01AahNbsqjfBg6h+whkLAgl11LrGu5//7709lnPyf93u+9XAIUI1E0NDwnax1oOy8BGCxCFW0vGLvwPn2kURw93Z2CFrZav2HKQ31V/bWRhrKcfpxJhjzdSCBZGPsv4+1qjhsZCCgIBVxrQDdlkT3t3lvREnRA8d7aFiA4oniWVqYFqFNbnA36nuwDrTCNu2zZ0tRngwTarzgGPWZoX9ASzxo8oaDgVMWorXkBaBdYDAeCGI9GlMRD1NjhZh4chlADhG6fvJzGMltzFcoDseaFF7EzEJ+yAbhrZZnN6BK/1MqsE6jiKOrgwcPpda97fdqze68uQ0Q7wUuesqjL8/gz87InHEMY9RLvZbkQQxxz8tjcaks8ambU9TC5nYODuo+INScIQ2xrXrJksZ6Wu2cQYN7ylrek1atX6XsnP+08dNheOJZGuxvMgUCi79baz9kwrJe597770qozVqUXvPCFGhFWj6l0gKmBcBeMBcRvBe1gmW19eYcJvNwizRUaoi1i7beu9fkqG7810yj0Z4QAXr6bN29ODz74oLnbNd2BYM/0pfo0HyuDYty2siky6zK1Ogy5uwHKS2kV8nTR/5rKkRDSAqqDvzy9GQQL+jPCl8KqeAYClJ2n53tQOF9TFRdGPMn+oEXSIdwhiDCosUxqF98xvKF/Tn+aNn26tFbBy1RLVFU9WkFBgaM1VY8pBHVju6nTOa5WpjXyl2+4xZzMBEMKyM8HBidGZXGKN7dlRX1OCTFf7sKHa1Gi7CgTk4cH8Odz3KRDyGG6aN9+E/qox8rduXNAl+PpoDkLP3zoYJrbPyedccbKtGXLZnupbErX33Bdev9fv1/rXbiA0Ud0XN7IxZNtYqycjusaoINaPzNt+jTd/PzvX/pSuvyyK9KaNRel3t5Z/g3TVtpk7cQ0t71g7IFfkD7dCurrWVz0W7ntw+9PX2S6khczcVrrYoXmaUkdaC7vWECqPGXd7/2PYiLMww3MU7UwWvtrIGduoGnthrJnysMp3N35h2B/PhkrN9zQPcIJ9ItRYoMGCcZ6d9ugpru7Jy1atERTshJqLBHNqpqWVV5QUJBjVDUvEDgvYggcxoc/XtLDgXjSi7HI7duPcefwcuphI5UZoA0ATQMmyszroxyMwqzemDaSMGBtsVgLN0ZuzIoR6dVXX2MCwaHU19fn2pW2+nkyCApATN/isKPOaG/487oxEydNkLDB98c0DZoiRoDTbRTHCbkIN5zj8rznPS+9/OUvT6vOOEMvFjQ28X0hGPk8P5olGGrcWt2u8y4YSa88/Yz0ohf9ju5I0pHwQ9bm6nsqGMsI2vAXsnUC6z8T0vZtW9OkydCiT/0onXVFNAYg75+8qOlDxHGqMpcz/ujHP0qzTMDV4u2DrnGADoK2lI8PNnXaB38N5pQ/7BYgX6DurgSJyKP8hFod9eSN4Fmq/LUktKn2jITzr94SaqmiBT2HBShe6ezjHtnwB8J4fnbnAc4+amufkqZPn66pVzSkIPhMQUHB0TFqbyExLiPUYGpPBcFYQM7YjhdSZVtpzj8ox93hJ97Ello6Ma68PqWtmI+FS11u0aE5QcsBg8Lkzz/Sd8DojbT+IqmDI8u5w2jAhBYEF04FZYqI9S2P/foxzeO/5S03pbf96Z+m005bngZ37bRyYI40zdvsC36tDRMm6cTdGdNnpn37htK3v3132rJlmwk9V0vbwgm5nPCJ4FJlLRin0HTJMfzIpImP/PZhCokXMYIugpD6rEXX0srGryyCh1Qgbe4/LqiGyh3lVH7r9NBas2lsiLkzv7sIk6MWn9cSWfRcFU17pKdgSpnvAfoXjVuV2KwNW7x4sbZBI+SFhqagoODYMWrCC4CQxUQq5O7jhRgIzKNC5jwueBPIXDeEhXFQlwswguIQAvx54rnQvsDAxLzMT1gILzkiD+lyQxgm0gRwM8rlWH/OsuHMl2XLlmskzF0sL7vqpemDH/pguuqqq9Kevbu1EwmGyXkve3bvkXYFrQ83P+PmhufFS5amRx55NN1zz3fSmhdflN72trenhQsWWzs492KC0kw2d5yDUTC+UKcfM/wdhYAUXyWhP+JHs6B1Hda/WfxKvNZ4mFCj8r1gcnvGDLX4Crm7AcMEB9Qs1eHAWaecI0HKhvQYL6SqyuwsvkpQhbnBnX/4PkSvFu2CyWF9H2g3oVVuZOcOMWiJeGgdDRbugoKCY8OoTRtB8BAtC0drJ1hWaGAWTYApwByDQWiqRhqFRhbl/rpsNlKZAbIgbKDJ2L5ju5hPMF6xQJiUGQkgZjMvjsAiAWMCcdVIk4/ZqNLZlcP1A5yOye21CDQwKkA5lBfPFAILYaFxaX4u4gljd9HAzoE01crlYDiuA5g/f3669pqr0wXnv1BbnjnyvKO9Xe3xk3F9vt2nqw7rECyz0sDAYPrud7+r4/yvuOLyNGtWn9L4HLxrjjjcjvM7tPNhUmObCsYi4je0PsZ/1oBYN+bQwsnWd9Qx+I9lpnnaKPqu+rLFc74Lmrxf/OIX0r7QZ0irfmQFs1g9ygyQP7cD8uuvMbwVGvI255GT52vdX/XcWX5PXqe58NfSWHjkIQQ3aeEF9m0ohKxRH6m0mNkEf069ZjeRFjLbd2Nfd43Wo3zsqLugoGBkjKrwAvGy5gID0QYxB4KwRyZo0jRqMgTLwycrrlY29YAoH1AHzJuaEF7YcQTUJhiT/WkBYp6HeAkvPq+tRKQTo/b7Sl772tdLSzJ1ao/WtVgGlUl9UT9G9VfPmYdHWgzl8rLgxcAhc5u3bK6td7n65S9Pl1xyiTHI6Wn37sFaHozW2iCImBuBBBU3zNR++3T33d9Jc/rnpQtfdGFaumSJhBvq1VoGOKyBeuMUUBb5WjEFYx7xI/Jyx6K/HUqDgz69CIn46chV/28CL2VAXySe/sW0KMIL5/wgPJNGwq59GsqonBFGf3NH3U2/VcOqsAgnD+UFVIZH1R6pVh4wd54+B+lUT4WoJ8Jq5YRNOUSRzn32b4JOD2a9WfAvpxe2Q0+y72GyBBYOkdSlpqIhvl+nMxB25C8oKDg6/C0+yjgWgs2ZzDGhKjIve6R6VHwebf5IjyW3mQjz9nibFOLBZlUOi4cZsWsHASMED0AZzW0JxoXGJbQuhAWoLzfUhNB0wAQTVNFXXnmlVNGMdBFAEDS8fUxbTba6mfJpV/ycOf3pl7/8Vfrs5z6fnv9bv5Ve/ZrXpFWrVms0KCZcjQxh+2L9leDDs3ndBeMPVV8xoUM/Mb83/dQ+w8LSKV5/lRZSQq4iXPjBTXkVosxavowO6jGNYQG59Zd9mtuYOQN6nGEMkE07oi2UafQaYapD5pA0VCDyEu8CXPLF72ZD5zw3W5+XLl0mjSjHCzBwQAPlxXo5gLSYPKygoGBkjJrwIqZ2ksLb5u2DnQTzAmI0JjRgSKJw4kkpp428xORcWGFe2zUxFjnCI0cdpG2oK/uecCPQYFM26wu4h2hWb2/qmzNHmhROCuWIfoQVpop0Zov9zKxvsdKU74EHfmiM9kB65zvemS6//Aq1kak7zuoAMFnSF5wa8N7G7+6Cru7Zqfrg8YLpo+izsROPfgeayxTNBJqqg4aCFmQiQU5DDdnNo7+GwBEh+jKb8mOhMnQrN+FVHAh3zSjUYGVAK5wN097RrjZDg72zZqdFixdrQMElizScovhuYzq2oKDgxHFSaF6eOfjLP5hp7m4NuAvaBbEa+8A8GYFVtuKrcsyndAgy0nLUQSwMjri4lZnQULW3QjDqaCMGPwh/CC6girI6vG5eFGhsGPn6uhY/W4Yj+mNR7m8efzz9/GcPpjPPPDO94tprU3//PN/6bG1DK0N+NDMwcF5ket4jTMG4g35W+qtPfahzG6KvHQ8QgGsaQ8tOH2Y6KfoywJn7gcSBKog4GRO8ZSIih5JHhia/Qfkz/3DwuuRocNf9bhQmhO3gG0LzgkZlv9Ea07Gxk6ibNWXQpcWFNpUcfAoKCp4aRk14yRljMIh4ST9dyIs6lnKtFZ5HSSumZQKMGBaHRVg48RPk9vYiLAAYEqn5RznkJQ7BQezK0sLEh4NrZxj9+gsk2lt7ERgizNvledgSHfeyML9OesK51h9hCUbK3Uaf//xdaVbv7PS6178hrVp1puVr9zZZGspDiEEIY5pLB43paYYzBeMVdDH6Ayb62/GA057J5zRQLyvgzkZ/REeeGqi+RRNUZlVG7hay8kBDeU3wtpEF290qYBjwXDVT+QF5oXMOdVy8aJFobiq3yBsdahqton8ehjpiLVlBQcGJY9SElwCEf9JATakYjfhSMLSccblfabO28xwIDTrLRdM1hyRMME3jOzVGfhlEXHwf+GPHRjMk6FgwggrpWWTJgXQSlCw9I2h2OMye3Ze++pWvpQcfeii9+c03pZe85BJNNaHGRlMDE223POwuQUZCu4TmhTYjxBScGogupr7Hn9mYkfrrcEDbKOHZDNmtN9bK8b7dSDPur4flbuW1jzp7oHVSh/kRRGoRzfFN8Oc04d3aqrbQXg1GvE79V9u9ftdMOU3m382UKR1pyZIlaeXKM9L0GTN0PUd8fz51S/mU1ajZKigoOHGMmvDijMMJPBhBhOXImURrEO8G5lJnPqCx3FZl1euWZTC/uXU6rxl9NHoyxoNdlc/giYWsje2t1qxo4yS7LLhwzefBtfbE6mr1fJhc2xK2YOl99KaWyY8Z2jcklTrCyARr59D+A+mwMUpOx2UK6PHH16Yf/+SnafWZZ6Ybb3xjWr5ihUaC7R0dEqaGuHrfBJf9B4YksOTtAH6AXcH4Rb0f4gqfxGw81ud8dx1+j62owd2aLs36s/KYZX1SwnoVrLVhBqUjrDJ5PhSZYaufR1gFjiRQo5THI9QO/ipaQWjhE/DkTvfQXm1NC/4IM6MwMtD/+WBXU6b10sxn34clVbqJOjLAmKfR3sxZs9PixUs1UOhon0JCG7Rw15gy1eja26nAyl1QUPBUMKrCS44aE8rCg+gjLvfnxmLELBAwQriQX3GuqWiuD3/Ei4HJb3ktmZIquZeNkOI7BYzhHfR0FioNCyMrEPP63CvEHUYUABNva2OnTlWg/UWdINofDA4bbUv4KQ83U0Dk5ZwV6uW+JMK6u6bq4Li9e/ZJXT992oy0dev29NAvfmmFT0xrLro4XfySS1L31J60f2jIgvy8DZg3WiGmhygfUFfYGNpRMN7hv7mgrm59zizr4easXtYV1C/4YBsdRD+u9RtyWRh9nvgqUP01+lT+aYDFSUAxhAAjWF/FqA7KNKNknlRlC+bX2hjqqAwJ+RDJWVAxgHCDG3r1svXofKriiMejBcfYRgusI2trR/BPmmLFPWfuvLTIBJeZvbMtNxoZBjPkwyarF+i2t6VuCgoKngpGTXh5OiFmVdk15lX5QTCRkUCaWv6KuYRLwoOBaRm0FTq/oXq58/InDwIFGowQQKiaMl3QqWCOEEwA+TzN8AZG2t7uUzvsLEIw4k4UdjGwu2jXrl1pwYIFatv3vve99NOf/iS94AUvSNdff722aDKdBMo0UMGJgD6ojmsI+vBp0EZYb3WH9ftYnBqfpxVVubQhBCXqakZerz8DWRFWvO05jTm8HOJdw+q7iBicIOjrpm2jReiM06o5noC1LZzdUi+joKDg2cK4EF5AKwY2HJrTBvNxhltnxNi4xMiMIbMolvlsthVz8BvhMGq0GiGUcE4G8ZSFX5qNqvwczih9FAhI22wY+TEt5ItpJ4hRkoc27N61W1ukEVw2bdqUvvzlL6d58+alN7/5zWnVqlWa9qFt7P6IXUQFBccF+mf1wjenUwN/1hfph5l8IBCv/nlgqBYv++mE1a1GVBDFNgY11Flzm41b3qM0SVUY2kzgx8SRA9A1h82dvvJ00Rra2CF252X1FRQUPDsYF8ILzBTkTKTGYCt3c5pmhuPxWfpKGAm3L2ytn4qJUMCR/1OnTpXNBWuCRfvI00/ZhMExkguQv7nu8MP8vR24+efCESM9krB9mcW2CEhTOqekrVu3arfRddddl97whjekyy67NM2YMaO26DZGimhdmussKDga6DE1zUaLPtrQowgyw5Qkgr36OSkaEj11qBqvvqFs2qXqop9nbqwq1ODtqvuPhBblQrc2cEBw4f6wGTOmp6XLlkrjMo0D54y+tJso06QWFBQ8exg3wkuY3D8c6kzNtSM5Ii9aj3C7MOJMGX9vb6/sH/zg/vTggw+Koba1t0lIYSTG/DhVEB4LFgWYaFW36mjB+GqLFSsbAUTaGwvglE5pUg4cTLsGd6XLr7g8ffRv/ia9853vTEuXLlV+0NPTozYDbKaXyrRRwQnBuqdRgV729N3cqJPWUPVjC6d/hngQ/f1phRVJua4VquqpPoEGt6UD0FrQW+wwqrcv6N1o0ugNuhka2i/a6+2dlebPX6CFuR02SDlgAo2fj+RnvBQUFDz7GDXhpfmlnU+fnAhONB+IvL5g15gZfjMuNBDkjJF0CAbfv/f76R3vfEf6gz94S/qXf/mX9PDDD6d9e/2EWp7DtS4+CtXi3WhaUxMpr2YU4syUvPKZG40ODLK7e2rau5cboSenm266Kf39xz6W3vOe96SzzzpLa2Go1zUsSetcyINBA4P2RfcqFRQcDXQgWfX1WHROLFGBhWNyVDk8bYZ8Ea0StTSU6s5GN/+ORF5eLuhjTOzQR3EWpNaYm2i564TFn/zeZmxPR0KmgYmfarS+bPmytGzZMmlXEWh0+GNFW7QjBjYFBQXPLk4K4QV3MKUQGAKEhWATaTA58FNGbiJNHhb+ZuTx0nSYWyMzPlYOYewsmjljhhbF3vKeW9IP7vuBLlyDiT355JNp5+BOK8NGYtZ+8qB9YW0Kh8HBFVWHs9Aj2i8QpHzVWRLmpWy2WnODNOHnnfeC9N73vje97vWvTytWLLcUVqLVh4DC94aKW22wfCDaDlo9d0EB8P6IdkUdVX0lDlRUHH9my23diPia3xPJjeYRW9pGi4rtySAW2DYbxZMum57C5gP0n/CAuXWbuzmhU5nMTS+XsSwyuC1cz2VuSvLiaK+fpaSdghYCHZGKBfk9PVPT/HnzUv+cOZq2hb4oJ4QW3CrXEHZBQcGzh1ETXgIwAzQD2BISzLRiCsEETwRihseYP1KRHoGFNnQa8+J8lCdMSPm7v/u79Nhjj2mtC4IFO38GBgbUfjQ3foaE5avKAcHsgiHjrj0j/9S2w6mrsytNNsbJ7ibKnza1Jz25fn1avuK09Kdve3u69bb3phecf36aOLm6ONEyH2Eor6DgOFCjM+s8fr9RJfxWgm8r1PIY1K+rjhfu6Ot08LpI0RpOmlV6UDmdLOrhmfNIWCS0p0RmwtkMtYQ2qf1u0FhOtmdmuov1ZIsWLUrLli3X2S1pwqQ0hHZlmPZ7eOu4goKCZw6jJryERiCEF0Y9IASYEDZyJvl0gnKj7LAlgFR+F0bqp4X2zpyZPvqRj6Sf/OQniuvq7hKP7evr0y6EPbv3pAMHD0jQYZRGHM9A2hBeCKy5K/CYMPdOE1zYzcT3gIbnAFuvh4Y0RXTre29NL/vdl2kKibqknaoXUVDwtED9lYWq9C/8+j886McumJAWgeGwawEnZWu56PMjlOQx9f+UIVfY1f9a+DBQjKUhXT1t3Z8ba5z9oeGkjU6P+FkEz/EC3EvEjdCUcOCAX5sRJeYIwaU5vKCg4JnHqAkvwdywYZYwPaltzd/MbCLNiSLqCjT7gcLsL1TZkQaVMluUv/rVr6ZvfOMbCuN8hzl9c9K86qyHfrMZvbHuhfwILFaImBoLeeM5KJ9yc8N0EM/NmhQEH0Z/XPD23Oeek2677bZ08803pzPOOEPxMFIEPZVVUPC0wvundcq6N9wtYL03HA0QHU/yaUwKUd9HTXiUV7xiWyRpDh+pFKezygNoP4YwMx5Fy+2D4GJx5GHdSm/vzLTydN8CDa1pcGVCS1zx0YwQXAoKCkYHoya8BMQkDLzwYRIxhZQLK/GiP15QRuTN3Tlyf01NbmGakzc/p9qCv/3vf+sHvlnyFStWaFfRS17ykjRnzpx01lln6fwHGCGMz5koTPuQFvGSBz9rAmgHJp5xspVPmi4TXBjhUc5rX/va9Fd3/FW64PzzTSjq0FH+E0zI6bA0nDdD+1SmtavZFBScCKx7WpfiUwnw9mFNyLBoEUWeGqoOGbQwEhTt/2r+mq8p/HhAEzG0S22jAAsQ+dg/6I9boJcvW5aWLV+uBbokywdRvuvIdxkGiuBSUDD6GFXNC8wBASGYWwgvGBhLjpEYYM5YmpHH4Q5/qzzMmSNgsOhWvM4+qJLvu+/e9NCDD+kMlb7Zfene79+bXnDeeeniiy/WYto+EzhcEOHSQ857cVUyTe4w4cNfCcbybLTHmhbK58XAPDtuzOCuXenss89OH/v4x6Vt4YI3tmWi+eH7kEZmiJujJ1U7HGhxQcHTC9HkQRPi6WAtaKQRjfFkgZ4xtesyRAkjQB25nkbeQOZxZx45DKxJSmVtl5DBMyjMnkv/zV09F4OFJSa49M+bb21mzYwNori3yFKh5eQ5YpCBuxEqScapvaCg4NnEqAkvMDYEiBBSxOiqsNDCEBdCRsQ1I8LzONzkjTJboVW4CxnOgH0+HIZ1OK1btza1t01K3SbI7Nu7J1180Zr0yldcmx595JG0cuVKCRcIH/C3gwdgZkwb+aJa1rIgbPBMk6xMnnaihbdPakuHTSCBSc7snZne9a53pdvvuD0tXro47dqz2yS5icnYpz+HvUwk5Bizxd2wq6LJFBScKEQT1onYwcZuudgG7K98R05TkBzu6I3cFxRXZyAAsfYl6LsGyxplMJ3kwk69BpFxVW5ulBHgl3hRN5QRWtNarNKldIDwSUZ3Rr8TjKYOW3OmdHelqTOmp3POfZ4NELotvVEslypOtGc2N3uZOKAueMgR/MVS5KagoODZx6gJL8PBmZm/tFlHgoFxEAYzDUYSTC1nKk8VMFvjRhUHFZ/Udue1jz9eW0z7ogtflF68Zk26//77deZLz7SetH37djHPaCf5cKMticWLhMPk9Uxt7WlwcKemga666qp0550fSK+49trUO2uWzpEgnHRHMP6CgpMETn91d3jQDMbAA0hAOVxpLUiWvezrLkPlkcU/yg9ng3G6rxsLhF7NsNsOWlPd5iYe7UrQH4Hs6OOU3FWrVms9iwsoznfgL56uoKDgZMdJ93YM5oMdBs1GCDEgGNfTDYQLivVavC2sbZllQkV3V3c66+yz0pIlS9KPf/SjtH79egvvTXt27zbBxncAHeBOF/ugteEiRXYkSWNiAkxnV2dq72jXYtzNW7akVatXp9tvvz29+93vTuecc47V5s/D9mu0MYODu8RMCwpOXtTpkH4PWCOGAKOBgCEWwMtUacji+dzvqMqq0imm8jcaJXYgrZhf9CregJDiabS+DG2n2jEhTemYkpYuWar1aewogl5JA6J9BQUFYwcnpfCSCym4UUOHABOMJtI9nUwnyraC5XfrcLrgwgvTm978Jl2CuH3H9jSls7O2A2j37l3WNnYj2AjzEJoh2kZZTPUY05zSIWGG6SZOyJ3TPye99Y/emu78wAe04Jfn4vh+nhHtDceOo/busHw8b0HBmAFCA0IBgw/71OjpOEiUpCPRNGKNDrRrVpBYnlho7PeSGWuzYuAR06dNT/PmzTfa69d5Tbot2ozKyuoiLW0vKCg4+THBXpzHwVqeXTQLJ7hjIR1ubAwv/uNBqIZDAAo33I7ysTdt2qibmRlFcubKzoGB9Nivf61pJE7WhRl2dk2xtIekJh+yNH59PutdXH3OTqRPfepT6cMf/nA65znnpHPOeW56xTWvTKtWr9Jx/7GmAIbpJ5oa87SRYkyPERftKyh4JuF9ja57KO3atdte7vRnowULb43olx7vmo6Juqpi08ZNOvPogAnitale1pBZUgSGGvBTr9leN2EuUGSpGqE4y0P9lEuY2aSPBfdOO0mCyoyZM9KChQtEo1qLU/ELcqKkUUIvpaCgYAzhpBVexMDMiPHB2SrghgGxBiXOY0B7cTwYTnjBiGEbK2RaaE91l9BBE2jYJQSP8/rapSHR8G+Cr8/Br2P9q/Jwz53bn+666y4zX0hvfesfpjVrLk7IKO3tbTpsjkWRMFKeAxU3AgxMtsbwzfAdFBQ803Bao+cfq/CSwZIgnNCXa8KL0cyQlaFTqi2uuS/X3OTFqG78lfAyTL2RBmKUQITLbBdnXHChbgScefPn61gD6Cm0ttxbxKJiNKMTJ/r5LVFX2EHDBQUFJy9Oas1LM3KmAqNBkIAxIcgQF/HBhGCmkQ4gZOAejjkRHmk3b9mUBgZ2pLZKk2IFKVzH/1udk02oIf2BQy7sIKxomzWLABmFWl2PPPpo2r5tezr//As0z466GwbbCkzfFxSMBqARDOtDEFiggYGdO9TnESxy+gFMzwQNNdMSgviWzVu0rR/NJcjTiIyoD6Kq3BErClMCg+UhPMLC1gJcE1aiDUwR+SF4ltr8PAfHDHB4JHcStSG0VO2vg5LrbSooKBh7GJMTvDnjhKHWmKoxqRBOQkWMwR2CC5qN4RBCD4B1qhYYJPXxZ0yTbcpenzNQ2GtoUBBcSLtv/760bt063U+0Zs0ancDLKFRTSjmowMxwgku9NQUFzzDo31Vfx8T0S/RRGaCg8DTSDCBfFu2wJJFH/yMemzqGgUquyvd8TnMHjY4J1hZryrY6SdXZ1ZUWmdCC4ALtQadebytTUFAwljGmhJdglNjBZBEaNMJqqx9sh5CC6pg40oRAQzwjw+FAuVRRY8jUIVs+i1CQG/NSnjQuNmIlC8x0x46BtHvX7rTitNPSbz3/t9Os2X1KyxZNHf4VsEBqqWo6AgonY0HBMwzRUtXZ5GY6hv4pYvAwAir9h8fnHTdz1wSGKgy38lGEB8Q/oe5qAvmDDiuQFlrjyg1OpWbQEO3mpGp2AjJVxKm5pPbsxDebgoKCsY4xJbw0Q4zWDEIKwgsGN0yX6SRue8ZG20IYAs1ImpdhGZvldcHGdyg4M/f6QbvVS/zOnTvVBs6QWLRwsQSbfXuZ0kIdDyetyjerkS03osZzCwqeZdCnpT0xqM9XPZWu7jTgfsW0cGsA0aLvRrwXV7kNdVczWscwAGC9GEcYcFUG12csX7FCd4FxAjZHE7BwnkYg0MSApqCgYHxhzFF2MNDcoFkBIcSwOA8D4+IAuS1btigNcQgzwyEOtAqhxAoXC406sInS9JEZ0llQ2r17r9bdMPJDcOmeOjXtMz/CCyNEFgayG8kyerkjQCy7CC4Fo4JKYKh1f+grc2uaxgKqMCB/BdzSvAT9VKjlkVUvw20ijgShR8RYuZM1QJmsRbdcjsoU0ezZfTrY0csmmWtZKR9Bp6CgYPxhTA5LYEq5CQTTQruCoEIcB8zt2rUrPfTQQ9LEED4ccp4rRihHZQNL4EenTzJ7Ujp4gF1PQ6m3d1ZaseK02uWMWi9gH+bnmUpiJEj6KKje4kYovAguBaMCaMn7IH2X/yKtKtAt0ug/GerIvC64xBSTudWf8VOGhVbrVORuKuYIqC5AObTKp4Ch8b45czRYmNnb68cLWLh2NlX1o2UF0GpBQcH4w5jabXQi4AA41sRs3LgxPfzww9r1s3DhwkyTApOuTwXB7Pbt25N27NieBnYOpPa2yX5mhTHDjo4pYqBoaAYHd5vQ0qujxhGW0LJURYgpU2ZBwVhBaCr8oMUJaevWrRZKRz7oViVGYOk8lVj3glwhmjCDNtLGQ1ssL1OobJsmDXRBnlZgJ5BrMc1tSdjCDFxIYaG9TwN7OVa60RqCy9Kly+SnvUSzGN53HRUUFJwKGNcTwjBkBBe2bHJg3LnnniuG+qMf/UjM2Zm1CzEAW0waTmrgP4ILXjFnMySFR3JQHepqLRo0YcbLchPlFRSMFUAHgL5Mz5dNNzZT1384DbDjriVIVsUdKw1oB55l0Q4iClD+CRbeprOPHK7FnNE7M61evTotWbJU7XDtSjVFVASXgoJTCuNa88L6llAbw+jYaYQfwWXDhg3SmMybNy91d3dXwodvpT54cCht2rwx7RocNCbqggm8mFEglyrOm7dAWhjCYZwg1+RgCgrGEqIvY4Nt27aJDkxsUN8HElqqrq10wTnU57Emai3K5s1bpLXUOS9KFgmPBJoTNC85HTlcgEIo4V6wuf39aebM3mptizeCPNBaPU9BQcGpgnGteUEQgbHB4NDAdHZ2agEf62BOO+00Mb+f/exnae3atRa+X1oUjjTfv/9AOnTwsHYyuFYFxj0x9c3uS4sWLbZyukwY8uP8YeLB8KknGGpBwVgEfTmEAWkz6NpV/24FCSbEy4rp1zpNgNzdDNagMaCgLu4bApONDhkkUCaXm3JKLnQ3pXNKTcgJGmNQQhi0XlBQcOpgXGteYMIwNRgcbnb+oH2BmcauI3YiPfHEE0rXN3tO6p7abQx1cnr88d+YELNP9xcxRdTV1ZU6p3RaPh+hsgjXGWnj1xfMtYwGC8YS6K8SIow2MCxyH7L+f/jwAQkWfm9QpVW0Pwkk+vP+bzFIFCZ0dKSNmzamgR0DOqyRdCykFV24vNEAls7oXi8rhoW3lM9CeGh1/vwFqX9uv2jTd+txw3y7tkiTjjIpHzftD4GmoKBg/GNcCy/B1GB+CCv4YXa+KHefBBnCcHOXEQfMccBVX99sqc1hoNOm9/ihV/YtoZkJoYd1hZRrrFl+IIZuiHoKCsYK6Nf0Z4BQwJQPwsu+fbslfITwYp1baQQLi16uUIvraO9IGzZsTDsGduj4ABKwbozppFbCixbsTnKhCCEJTcy0aTNEg9Onz5BAAxCONB4gnX2gYWi7mb4LCgpODYz73UatENoRGF4YBJmtW7dJgOnoaNO2Z4QW7nshfY15GxOVYHIYhgtvLkJKwfgE61H27dmddu/Zo77O1CnCAv0fmoBu6P2iJwsjjrVgmzdv1m6jwcFB7UBCQOHAOBbdkneyCR5+kenENLltkjQp5MW/aNEi3diOcILA0khd0u8oLAYImCK0FBScejhlhZdgfDBNmDA2614YLXLrM4IL6QhvjWCYRXgpGJ9AdDh08EDau5cTbYdq06+cYkusCy8u1EMFaGhYW7Zly2YJLpyrhNQDpXAi7pSODstTCTCTOVpgYtqzb4/SLFm8JPX19aV2S6MTq2mA/hXBpKCg4EicksJLPlILIQaD9gWBBdU1aWDUhOMuo7uCUw2IJPR6BBQWsnPMADRCILSBsAKgGcjDSEW0s2XrFq2Z2bGDm6ktOQtbsC2RCzu+/oUyZsycqQsV+/vnpO7uqRKIACKPtmsXFBQUtMApyR1CWAEwVFTUzJvDeDEAJhpxRXApOBUBiXBoHJoVrttg509XV2dqm9yWDh44UNNY+u3q1fQRcsohhB7/ANkIK5YON/kQYGb1ztI00dIlS9LUqT0qE62Oa3YKCgoKhscpzSVCiAlBxgUVBBpfjIs/j68Df3NYQcE4g2QPFzYOHjygLcwcE8CRA7pfSFM/E6SBYd2KtCZGFiHU6MRdjKUhLzZTT+TnqAIMu/igr0OWh3jPW9axFBQUjIxTUngJxhiCSV1AYQ2MMc9qYSGM1MNzhOASpqBgfCMXJHCziJ0bnKf1TNPZKxLyOacF4cVoAhujO76U1+kE7Q1bn5cuW6oF8TFFq5N0Ve4kuZkuKlNGBQUFI+GUXPMyLMRn4+sYaeR3LGkKCsYDfN2Lw11MJSFcIOSzFoZt1Xv3sbV6SBrLbdu3pT279yiMg+cIQ4ZZsGCh1rZwVguCC+UceeeR7yIqmpeCgoKRUISXgoKC4wYChgsghzUVFOcmAa7eML4ioYbpIy5C5QoOtDVoX+J8JYBdBJWCgoLjRRFeCgoKjhsIJb7LyAUP/AgyHDXAgY/sNiKMNS3cH9bT06N4wgD58BcUFBScCIrwUlBQcNwIwaOV1gSNC8IL00WclxTaFa2DMYEnFsLjb5W/oKCg4GgowktBQcFxI6aMAHbuRiAJDUsIKiGkhB2aGsopKCgoOF4UzlFQUHDcCOEkEEIJwgru/MykEGAANnlJUwSXgoKCE0XhHgUFBceNEEJCKAEIJBHOlFAIKcMJOnnegoKCguNBEV4KCgqOGwggIYQ0I1/IGwJKq7TD5S8oKCg4GorwUlBQUFBQUDCmUISXgoKCgoKCgjGFIrwUFBQUFBQUjCkU4aWgoKCgoKBgTKEILwUFBQUFBQVjCCn9f8T9t6aAry40AAAAAElFTkSuQmCC;" vertex="1" parent="1">
          <mxGeometry x="-1290" y="682.46" width="149" height="90.09" as="geometry" />
        </mxCell>
      </root>
    </mxGraphModel>
  </diagram>
</mxfile>
